<svg xmlns="http://www.w3.org/2000/svg" xmlns:xlink="http://www.w3.org/1999/xlink" x="0" y="0" version="1.1" viewBox="0 0 800 800" xml:space="preserve" style="enable-background:new 0 0 800 800"><style type="text/css">.st0{display:none}.st1{display:inline;fill:#2f3645}.st2{clip-path:url(#SVGID_2_)}.st3{fill:#1a2026}</style><g id="Layer_2" class="st0"><rect width="877" height="874" x="-42" y="-26" class="st1"/></g><g id="Layer_1"><g><defs><rect id="SVGID_1_" width="800" height="800"/></defs><clipPath id="SVGID_2_"><use xlink:href="#SVGID_1_" style="overflow:visible"/></clipPath><g class="st2"><g><path d="M475.6,492.6c-13.1,0-20.2-2.6-28-6.2c-9.9-4.5-32.7-18.5-31.4-50.5c0.5-12.5,6.8-36.3,43.1-55.9 c5.9-3.2,16.9-9.1,29.2-33.9c5.4-11,15.3-19.6,29.2-25.5c14.5-6.2,28.1-7.2,31.9-7.3c10-0.4,24.7,0.9,37.1,16.1 c4.2,5.2,5.2,13.1,2.6,21.8c-3.2,10.8-10.9,20-19.3,22.7c-18.1,6-21.4,18.6-23.1,24.7c-2,7.5,0.9,10.5,6.7,16.5 c1.3,1.4,2.8,2.9,4.4,4.6c10,11.1,3.8,32.9-2.8,40.6l-0.4-0.3l0.4,0.3c-13.8,16.2-35.8,27.1-50.4,29.4 C492.4,491.8,483,492.6,475.6,492.6z M552.4,314.2c-0.9,0-1.8,0-2.7,0.1c-3.8,0.1-17.2,1.1-31.6,7.2 c-13.7,5.9-23.4,14.3-28.7,25.1c-12.5,25.1-23.6,31.1-29.6,34.4c-35.9,19.3-42.1,42.8-42.6,55c-1.2,31.4,21.1,45.1,30.8,49.5 c12,5.5,22.5,8.7,56.8,3.3c14.4-2.3,36.1-13,49.8-29.1c6.3-7.5,12.4-28.6,2.8-39.3c-1.6-1.7-3-3.3-4.3-4.6 c-5.8-6.1-9.1-9.4-6.9-17.4c1.7-6.2,5.1-19.2,23.7-25.3c8.1-2.7,15.6-11.5,18.7-22.1c2.4-8.4,1.5-16-2.5-20.9 C574.9,316.5,562,314.2,552.4,314.2z" class="st3"/></g><g><path d="M473.4,485.7c-11.9,0-17.5-2.4-23.3-5c-8.6-3.7-28.5-15.4-26.9-43.1c1.3-21.9,19.7-37.6,34.9-46.9 c1.9-1.1,3.8-2.3,5.7-3.3c1.2-0.6,2.4-1.3,3.8-2.2c6.7-4.1,16.9-12.1,28.2-33.8c3.7-7,9.6-13.1,17.6-18 c5.8-4.2,16.1-2.5,23.2,0.8c6.2,2.9,23.7-3.8,29.8-8.3c1.8-1.4,4.1-1.6,6.7-0.9c4.9,1.5,9.9,6.7,10.9,9.5 c0.2,0.5,0.3,0.9,0.5,1.4c1.1,3.1,2.4,6.6,1.5,11.2c-1.6,8.1-7.1,16.5-13.3,20.3c-1.1,0.7-2.2,1.2-3.3,1.6 c-3.6,1.2-7,2.8-9.9,4.6c-12.5,7.7-15.8,18.9-17.2,23.7c-3,10.3,1.9,15.3,7.5,21.1c1.3,1.3,2.6,2.7,4.1,4.3 c7.1,7.8,1.9,26-3.5,32.1c-5.2,5.9-12,11.6-19.7,16.3c-9.2,5.6-19.4,9.8-27.2,11.2C490.2,484.8,480.7,485.7,473.4,485.7z M522.7,332c-3.3,0-6.3,0.7-8.6,2.3l0,0c-7.8,4.8-13.6,10.7-17.2,17.6c-11.4,21.9-21.8,30-28.6,34.1c-1.4,0.9-2.7,1.6-3.9,2.2 c-1.9,1-3.8,2.2-5.7,3.3c-15,9.2-33.1,24.7-34.5,46.1c-1.7,27,17.8,38.4,26.2,42.1c9.2,4,18,7.8,52.9,1.6 c7.7-1.4,17.8-5.5,26.8-11.1c7.6-4.7,14.4-10.3,19.5-16.1c2.7-3.1,5.2-9.1,6.2-14.9c0.7-4,1.3-11.5-2.7-15.9 c-1.4-1.6-2.8-3-4-4.2c-5.9-6-11-11.2-7.8-22.1c1.4-4.9,4.8-16.4,17.6-24.3c3-1.8,6.4-3.4,10.1-4.7c1-0.4,2.1-0.9,3.1-1.5 c6-3.7,11.3-11.8,12.9-19.7c0.8-4.3-0.4-7.7-1.5-10.7c-0.2-0.5-0.3-0.9-0.5-1.4c-0.9-2.5-5.7-7.5-10.2-8.9 c-2.3-0.7-4.2-0.5-5.8,0.7c-5.6,4.2-23.8,11.6-30.8,8.4C532.3,333.3,527.3,332,522.7,332z M513.8,333.9L513.8,333.9L513.8,333.9 z" class="st3"/></g><g><path d="M476.4,473.8c-13.6,0-18-3.5-20.8-5.8c-9.8-7.9-13-12.1-13.9-31.3c-0.6-13.4,7.4-24.7,25.1-35.6 c1.7-1,3.4-2,5.2-3c1.2-0.7,2.7-1.5,4.3-2.5c9.4-5.8,19.7-17.8,32.2-37.9c1.2-1.9,2.4-3.2,3.7-4l0.1,0c5.7-2.4,7.1-0.6,9.9,3 c1.6,2,3.5,4.5,7,7.4c8.5,7.1,22.9-6.2,31.5-14.2c0.9-0.8,1.7-1.6,2.5-2.3c5.1-4.6,9.4-6.7,11.9-5.6c0.9,0.4,2,1.3,2.2,3.5 c0.4,5.1-4.5,10.7-8,12.8c-0.5,0.3-0.8,0.4-1,0.5c-4.4,1.5-8.5,3.4-12.2,5.7c-16.3,10-20.6,24.7-22.2,30.3 c-4.9,16.8,3.9,25.8,10.4,32.4c3.3,3.4,4.6,8,3.6,12.6c-0.8,3.6-2.1,6.6-3.5,8.2c-4.4,5.1-10.3,9.9-17,14.1 c-7.1,4.4-18.8,7.9-26.7,9.2C490.3,473.1,482.4,473.8,476.4,473.8z M512.8,354.6c-1.1,0.7-2.3,1.9-3.3,3.7 c-12.6,20.2-22.9,32.3-32.5,38.2c-1.7,1-3.2,1.8-4.4,2.5c-1.8,1-3.5,2-5.2,3c-17.3,10.6-25.2,21.7-24.6,34.7 c0.8,18.7,3.9,22.8,13.5,30.5c3.8,3.1,11,8.9,44.3,3c7.8-1.4,19.3-4.8,26.3-9.1c6.7-4.1,12.5-8.9,16.8-13.9 c1.2-1.4,2.5-4.3,3.2-7.8c1-4.2-0.3-8.5-3.3-11.6c-6.7-6.8-15.7-16-10.7-33.4c1.6-5.6,6-20.6,22.7-30.8 c3.7-2.3,7.9-4.2,12.4-5.8c0.1,0,0.4-0.2,0.8-0.4c3.3-2,8-7.2,7.6-11.9c-0.1-1.4-0.7-2.3-1.6-2.7c-2.2-0.8-6.1,1.1-10.9,5.5 c-0.8,0.7-1.6,1.5-2.5,2.3c-8.9,8.2-23.7,22-32.8,14.3c-3.5-3-5.6-5.6-7.1-7.6C518.8,353.9,517.8,352.6,512.8,354.6z" class="st3"/></g><g><path d="M477.5,464.3c-0.9,0-1.8,0-2.6-0.1c-5.9-0.4-10.7-2.8-14.2-7c-4.5-5.4-6.5-13.6-5.6-22.5 c1.1-10.9,19.4-20.7,32.8-27.9c4.4-2.3,8.2-4.4,10.5-6c4.4-3.1,7.8-7.1,11.1-11c3.7-4.4,7.2-8.5,11.7-10.8 c1.4-0.8,2.6-0.8,3.3-0.2c2.2,1.8,0.4,8.7-2.3,18.3c-0.9,3.3-1.8,6.5-2.2,8.7c-1.6,8.9,1.2,12.6,7,16.3c4.6,3,6.7,6.7,6.4,11 c-0.7,8.8-11.3,17.1-15.4,18.9C505.7,457.5,490.6,464.3,477.5,464.3z M523.3,379.3c-0.4,0-0.9,0.2-1.6,0.5 c-4.3,2.2-7.7,6.3-11.4,10.6c-3.4,4-6.8,8.1-11.3,11.2c-2.4,1.7-6.2,3.7-10.6,6.1c-13.2,7-31.2,16.7-32.3,27.1 c-0.9,8.7,1.1,16.6,5.4,21.8c3.3,4,7.9,6.2,13.5,6.7c13.3,1,29.6-6.3,42.6-12.1c4.7-2.1,14.2-10.4,14.8-18.1 c0.3-4-1.7-7.3-5.9-10.1c-6-3.9-9.1-7.9-7.4-17.3c0.4-2.3,1.3-5.5,2.3-8.8c1.9-6.7,4.5-15.8,2.6-17.3 C523.8,379.4,523.6,379.3,523.3,379.3z" class="st3"/></g><g><path d="M481.8,457c-8.6,0-17-7.4-18.8-14.4c-2.2-8.2,17.5-20.6,17.7-20.7c1.5-0.9,3.4-1.9,5.7-2.9 c4.7-2.3,10.5-5.1,15.8-9.4c4.5-3.6,6.9-3.5,8.2-2.7c1.7,1.1,2.2,3.8,1.4,7.2c-0.9,3.7,2,7.4,5.1,11.4c1.3,1.7,2.7,3.6,3.9,5.5 c1.1,1.9,1.1,4.5-0.2,7.1c-1.3,2.8-3.9,5.4-7.2,7.4c-7,4.3-21.4,10.6-30.2,11.4C482.7,456.9,482.3,457,481.8,457z M508.6,407.4 c-1.4,0-3.4,1-5.8,2.9c-5.4,4.4-11.3,7.2-16,9.5c-2.2,1.1-4.1,2-5.6,2.9c-6.3,3.9-18.8,13.8-17.3,19.6 c1.8,6.9,10.5,14.3,19,13.6c8.7-0.8,22.9-7,29.8-11.3c3.1-1.9,5.5-4.4,6.8-7c1.1-2.4,1.2-4.6,0.3-6.2l0,0 c-1.1-1.9-2.5-3.6-3.8-5.4c-3.2-4.2-6.2-8.1-5.3-12.3c0.7-2.9,0.3-5.3-1-6.1C509.4,407.5,509,407.4,508.6,407.4z" class="st3"/></g><g><path d="M486.7,445.8c-3.2,0-5.9-0.9-7.1-2.6c-1.3-1.7-1.7-4.8,3.3-10.1c6-6.3,11.9-9.6,16.9-9.6c0,0,0,0,0,0 c2.8,0,5.4,1.1,7.3,3.1c1.1,1.1,1.5,2.5,1.3,4.1c-0.7,4.5-6.7,9.8-12,12.7l0,0C493.2,445,489.7,445.8,486.7,445.8z M499.7,424.6 C499.7,424.6,499.7,424.6,499.7,424.6c-4.8,0-10.3,3.2-16.2,9.3c-3.5,3.7-4.7,6.8-3.2,8.8c2.2,3,9.8,2.9,15.5-0.1 c5.2-2.7,10.9-8,11.5-11.9c0.2-1.3-0.1-2.3-1-3.2C504.5,425.5,502.3,424.6,499.7,424.6z M496,442.9L496,442.9L496,442.9z" class="st3"/></g><g><path d="M618.9,561.4c-2.3,0-4.5-0.5-6.6-1.7c-10.8-6.3-15-11.2-18.4-27.4c-1.3-6.4,0.8-12.2,5.8-16 c7.1-5.4,18.2-5.4,28.3-0.1c19.3,10.1,28.7,17.7,28.8,23.2c0,2.1-1.2,3.8-3.8,5.2c-3.4,1.9-6.8,4-10.1,6.2 C634.3,556.1,626.1,561.4,618.9,561.4z M612.9,513.2c-4.8,0-9.1,1.3-12.6,3.9c-4.7,3.5-6.7,9-5.4,15 c3.3,15.8,7.4,20.6,17.9,26.7c8.1,4.7,18.5-1.9,29.5-8.9c3.3-2.1,6.8-4.3,10.2-6.2l0,0c2.2-1.2,3.3-2.6,3.2-4.3 c-0.1-5-9.5-12.5-28.2-22.3C622.7,514.4,617.6,513.2,612.9,513.2z" class="st3"/></g><g><path d="M619.2,552.3c-1,0-1.8-0.1-2.6-0.2c-2.9-0.6-5.2-2.3-6.6-4.8c-2.1-3.8-2-9.2,0.3-14.8 c1.1-2.7,3.4-4.3,6.6-4.5c6.9-0.5,17.2,5.2,20.8,11.4l0,0c1.1,1.9,1,4-0.3,5.8C634.3,549.6,625,552.3,619.2,552.3z M617.8,528.9 c-0.3,0-0.5,0-0.8,0c-2.9,0.2-4.8,1.5-5.7,3.9c-2.1,5.3-2.3,10.4-0.4,14c1.2,2.3,3.3,3.8,5.9,4.3c5,1,16.4-1.8,19.8-6.5 c1.1-1.5,1.2-3.1,0.3-4.7C633.6,534.2,624.3,528.9,617.8,528.9z" class="st3"/></g><g><path d="M670.9,523.8c-0.5,0-0.9,0-1.4,0c-12.8-0.5-29.5-7.4-40.4-16.8c-0.9-0.8-1.9-1.6-2.8-2.4 c-11.5-9.8-25.8-22-33.5-37.4c-0.5-0.9-1-2-1.7-3.3c-7.4-14.6-24.9-48.8-16.7-62.4c2.2-3.7,6.2-5.6,11.8-5.8 c12.4-0.2,20.1-4.3,26.9-7.9c7.9-4.2,14.1-7.4,24.1-2.6c11.1,5.3,12.7,14.9,14.9,28.2c0.8,4.7,1.7,10,3.1,15.6 c0.7,2.6,1.3,5.2,1.9,7.8c4.4,18.4,8.5,35.7,26,43.8c9.4,4.3,22.2,6.7,33.5,8.7c13.1,2.4,23.4,4.3,24.3,8.5 c0.8,4,1.4,9.1-1.9,13.3c-3.4,4.3-10.2,6.8-20.4,7.3c-12.7,0.6-22.8,2.2-31,3.5C680.9,522.9,675.5,523.8,670.9,523.8z M627.9,383.8c-5,0-9.3,2.3-14.3,4.9c-6.6,3.5-14.7,7.8-27.3,8c-5.2,0.1-8.9,1.9-10.9,5.3c-7.9,13.1,9.4,47,16.7,61.5 c0.6,1.3,1.2,2.4,1.7,3.3c7.6,15.2,21.8,27.3,33.2,37.1c1,0.8,1.9,1.6,2.8,2.4c10.8,9.3,27.1,16.1,39.8,16.6 c4.8,0.2,10.6-0.7,17.8-1.9c8.2-1.3,18.4-2.9,31.1-3.5c9.9-0.5,16.5-2.8,19.7-6.9c3-3.9,2.5-8.7,1.7-12.5 c-0.7-3.6-11.3-5.5-23.5-7.8c-11.3-2.1-24.1-4.4-33.7-8.8c-17.9-8.2-22.1-25.8-26.5-44.4c-0.6-2.6-1.2-5.2-1.9-7.8 c-1.4-5.7-2.3-11-3.1-15.7c-2.2-13-3.7-22.4-14.3-27.5h0C633.5,384.4,630.6,383.8,627.9,383.8z" class="st3"/></g><g><path d="M670.9,515.7c-0.4,0-0.7,0-1,0c-9.4-0.4-24.6-5.6-35.4-14.9c-0.9-0.8-1.8-1.5-2.7-2.3l-0.2-0.1 c-10.9-9.3-24.5-20.9-31.5-34.8c-0.4-0.9-1-1.9-1.6-3.1l-0.2-0.3c-0.7-1.5-1.7-3.1-2.6-4.9c-3.6-6.6-8.5-15.6-10.8-24.8l0,0 c-1.5-5.9-0.1-11.9,3.8-16.5c3.5-4.2,8.6-6.5,13.6-6.1c7.1,0.5,13.7-4.4,19.6-8.7c4.1-3,7.9-5.8,11.5-6.7 c1.7-0.4,3.2-0.2,4.4,0.6c3.3,2.3,4.3,8.8,5.6,17.1c0.2,1.5,0.5,3,0.7,4.5c0.8,4.9,1.7,10.3,3.2,16.3c0.6,2.5,1.3,5.1,1.9,7.7 c4.4,18.6,9.4,39.6,30.5,49.3c10.4,4.7,23.6,7.2,35.4,9.3c5,0.9,11.3,2.1,15.4,3.2c1.1,0.3,1.9,1,2.4,2c0.5,1,0.5,2,0.1,2.9 c-1,2.2-4.7,3.4-7.5,4c-2.1,0.4-4.5,0.7-7.3,0.8c-13.1,0.6-23.5,2.3-31.9,3.6C680,514.9,674.9,515.7,670.9,515.7z M601.3,408.7 c-4.3,0-8.7,2.1-11.8,5.8c-3.7,4.4-5,10.1-3.6,15.6l0,0c2.3,9.1,7.2,18,10.7,24.6c1,1.8,1.9,3.5,2.7,5l0.2,0.3 c0.6,1.2,1.1,2.2,1.6,3.1c6.8,13.7,20.4,25.2,31.2,34.5l0.2,0.1c0.9,0.8,1.8,1.6,2.7,2.3c10.6,9.1,25.5,14.3,34.8,14.6 c4,0.2,9.4-0.7,16.2-1.8c8.4-1.3,18.8-3,32-3.6c2.7-0.1,5.1-0.4,7.1-0.8c3.7-0.8,6.2-2,6.8-3.4c0.3-0.7,0.3-1.4,0-2.1 c-0.3-0.7-1-1.3-1.8-1.5c-4-1.1-10.3-2.3-15.3-3.2c-11.8-2.2-25.1-4.6-35.6-9.4c-21.5-9.9-26.6-31.2-31-49.9 c-0.6-2.5-1.2-5.1-1.9-7.7c-1.5-6-2.4-11.5-3.3-16.4c-0.3-1.6-0.5-3.1-0.7-4.5c-1.3-8.1-2.3-14.4-5.2-16.4 c-1-0.7-2.2-0.8-3.6-0.5c-3.4,0.8-7.2,3.6-11.2,6.5c-6,4.4-12.8,9.4-20.2,8.9C601.9,408.7,601.6,408.7,601.3,408.7z" class="st3"/></g><g><path d="M620.1,454.6c-7.4,0-14.4-3-16.3-9.1c-1.3-4.1-0.9-8.1,1.2-11.9c4.5-8.3,15.4-13.3,21.1-15 c1.9-0.5,3.5-0.4,4.9,0.5c3.7,2.3,5,9,6.1,15c0.3,1.8,0.6,3.5,1,4.9l0,0c2,8-4.3,12.8-10.8,14.6 C625,454.2,622.5,454.6,620.1,454.6z M628.1,419.3c-0.6,0-1.2,0.1-1.8,0.3c-5.2,1.5-16.2,6.5-20.5,14.5 c-1.9,3.6-2.3,7.3-1.1,11.1c2.3,7.5,13.4,9.9,22.3,7.4c6.1-1.7,11.9-6.1,10.1-13.4l0,0c-0.4-1.5-0.7-3.2-1-5 c-1.1-5.7-2.3-12.2-5.6-14.3C629.8,419.5,629,419.3,628.1,419.3z" class="st3"/></g><g><path d="M673.9,508.9c-1.2,0-2.5-0.1-3.9-0.2c-8.6-1-21.3-5.4-28-11.7c-2.8-2.7-3.6-6.3-1.9-9 c1.1-1.7,5.8-6.6,21.7-0.2c2.6,1,4.9,2,7,2.8c15.4,6.2,21.3,8.6,27.5,8.6c0.1,0,0.2,0,0.3,0c2.6,0,4.7,0.9,5.5,2.4 c0.5,0.9,0.5,2,0,2.9c-1,1.7-3.6,2.6-7.1,2.5c-5.8-0.1-9.8,0.5-13.3,1C679.1,508.6,676.7,508.9,673.9,508.9z M648.2,485.7 c-3.9,0-6.3,1.2-7.3,2.9c-1.4,2.2-0.7,5.4,1.8,7.7c6.3,5.9,18.8,10.4,27.4,11.4c4.5,0.5,7.7,0,11.5-0.6c3.5-0.5,7.5-1.2,13.4-1 l0,0c3.1,0.1,5.4-0.7,6.2-2c0.3-0.6,0.4-1.2,0-1.9c-0.5-0.9-2-1.9-4.7-1.9c-0.1,0-0.2,0-0.3,0c-6.4,0-12.3-2.4-27.9-8.7 c-2.2-0.9-4.5-1.8-7-2.8C655.9,486.5,651.5,485.7,648.2,485.7z" class="st3"/></g><g><path d="M338.6,516.4c-6.4,0-12.2-1-17.1-2.7c-24.5-8.5-23.3-32.7-22.4-52.2c0.2-3.5,0.3-6.9,0.3-9.9 c0-11.4-3.3-50.8-43.3-79.2c-32.9-23.4-44.6-48.1-32.2-67.8c11-17.5,26.8-31.9,87.1-0.3c38.1,20,71.1,15.9,117.2,7.5 c25.1-4.6,34.3,2.2,37.7,8.8c5,9.7-0.3,23.8-8.1,31.3c-1.9,1.8-3.9,3.8-6,5.8c-14.7,14.2-34.8,33.7-44.3,44.9 c-9.6,11.3-8.4,30.8-7.7,42.4c0.1,1.4,0.2,2.8,0.2,3.9l0,0c1.3,29.9-12.1,46.4-23.7,55C364.4,512.8,350.6,516.4,338.6,516.4z M254.9,286.7c-16.4,0-24,8.7-30.1,18.4c-12.1,19.2-0.5,43.4,31.9,66.4c40.4,28.7,43.7,68.5,43.7,80c0,3.1-0.2,6.4-0.3,10 c-0.9,19.1-2.1,42.9,21.7,51.2c13.9,4.9,36.1,3.7,54-9.6c11.3-8.4,24.6-24.7,23.3-54.2c-0.1-1.2-0.1-2.5-0.2-3.9 c-0.7-11.8-1.9-31.5,7.9-43.1c9.6-11.3,29.7-30.7,44.4-45c2.1-2,4.1-4,6-5.8c7.5-7.3,12.5-21.2,7.9-30.1 c-3.2-6.2-12.2-12.7-36.6-8.2c-46.3,8.5-79.5,12.5-117.9-7.6C284.9,291.7,267.4,286.7,254.9,286.7z" class="st3"/></g><g><path d="M349.3,502.3c-11.9,0-23.2-4.8-28.2-9c-8.6-7.3-9.3-30.5-9.8-50.9c-0.2-7-0.4-13.6-0.9-18.9 c-2-20.1-34.3-53.2-59.4-66.1c-27.3-14.1-23.6-30.9-17.2-44c7.6-15.5,23-13.2,39.6-9.1c7.9,2,16.1,5.9,24.8,10.1 c11.8,5.7,25.2,12.1,41.4,15.4c27.9,5.7,41,10.8,50.1,27.5c6.3,11.5,4.5,20.7,2.3,31.3c-1.2,6.2-2.7,13.3-2.6,21.8 c0.1,34.1-1.9,56.2-6.3,67.8l0,0c-4.7,12.3-12.7,20-23.9,22.9C356,502,352.7,502.3,349.3,502.3z M253.9,302.3 c-8.9,0-15.1,3.1-19.2,11.6c-6.2,12.7-9.8,29,16.8,42.7c25.3,13.1,57.9,46.5,59.9,66.9c0.5,5.3,0.7,11.9,0.9,18.9 c0.5,19.2,1.2,43.1,9.5,50.1c6.5,5.5,23.1,11.3,37.3,7.6c10.9-2.8,18.7-10.3,23.2-22.3l0,0c4.3-11.4,6.4-33.5,6.2-67.4 c0-8.6,1.4-15.7,2.7-22c2.2-10.9,3.9-19.5-2.2-30.7c-8.9-16.3-21.9-21.3-49.4-27c-16.4-3.4-29.8-9.8-41.7-15.5 c-8.6-4.2-16.8-8.1-24.6-10C265.7,303.4,259.3,302.3,253.9,302.3z M382.8,478L382.8,478L382.8,478z" class="st3"/></g><g><path d="M346.8,495.3c-3.7,0-7.2-0.6-10.1-1.3c-6-1.5-10.9-4-13.1-5.9c-1-0.9-3.6-4.2-5.2-15.8 c-1.2-8.8-1.5-19.6-1.8-29.2c-0.2-7.2-0.4-13.9-0.9-19.5c-1.5-14.9-15-31.6-22.9-40.2c-12.3-13.4-27.6-25.5-40.8-32.3 c-19.9-10.3-20-20.4-13.7-33.4c4.6-9.4,13.1-9.1,30.5-4.8l0,0c7.1,1.8,14.6,5.4,23.3,9.5c11,5.3,23.5,11.3,38.6,15 c1.6,0.4,3.1,0.7,4.7,1.1c4.2,0.9,7.8,1.7,11,2.5c19.7,4.8,27.5,9.7,33.7,21c4.9,9,3.6,15.7,1.5,25.9 c-1.3,6.6-2.8,14.1-2.8,23.4c0.1,32.6-1.8,54.5-5.8,64.9C367.3,491.5,356.3,495.3,346.8,495.3z M251.5,311.2 c-6,0-9.8,2-12.3,7.1c-6.1,12.5-6,22.2,13.2,32.1c13.3,6.9,28.6,19,41,32.5c8,8.7,21.7,25.6,23.2,40.8 c0.5,5.6,0.7,12.3,0.9,19.5c0.3,9.5,0.6,20.3,1.8,29.1c1.7,11.9,4.4,14.8,4.9,15.2c2.1,1.8,6.8,4.2,12.7,5.7 c9.8,2.4,27.4,3.4,35.1-17.1c3.9-10.3,5.8-32,5.7-64.5c0-9.4,1.5-16.9,2.8-23.6c2-10,3.3-16.6-1.4-25.3 c-6-11-13.7-15.8-33.1-20.5c-3.2-0.8-6.8-1.6-11-2.4c-1.6-0.3-3.2-0.7-4.7-1.1c-15.2-3.7-27.7-9.8-38.8-15.1 c-8.6-4.1-16.1-7.7-23.1-9.5C261.5,312.3,255.9,311.2,251.5,311.2z" class="st3"/></g><g><path d="M344.1,486.7c-2.9,0-5.6-0.5-7.8-1l-0.1,0c-5.5-1.4-9.7-5.9-10.6-11.6c-0.1-0.6-0.2-1.3-0.3-2.1 c-1.2-8.3-1.5-18.8-1.7-28.1c-0.2-7.4-0.4-14.3-1-20.1c-1.6-16.8-14.7-34.1-25.4-45.7c-13-14.2-29.3-27-43.4-34.3 c-8.6-4.4-11.2-7.9-11.9-10.1c-0.5-1.5-0.7-4.1,2.4-10.6c0.9-1.8,1.4-2,3-2.2c3.9-0.4,10.9,1.1,16.6,2.5 c6.2,1.5,13.2,4.9,21.4,8.9c11.4,5.5,24.4,11.7,40.5,15.7c1.7,0.4,3.4,0.8,5.1,1.1c4.1,0.8,7.5,1.6,10.6,2.4 c18.6,4.6,23.3,8.5,27.6,16.3c3.1,5.7,2.6,9.2,0.5,19.4c-1.3,6.7-3,15-3,25.3c0.1,39.2-2.7,55-5.2,61.5 c-2.4,6.5-6.1,10.4-11.2,11.9C348.1,486.5,346.1,486.7,344.1,486.7z M336.5,484.7c3.5,0.9,8.7,1.6,13.3,0.2 c4.8-1.5,8.3-5.2,10.6-11.3c2.4-6.3,5.2-22.1,5.1-61.1c0-10.4,1.6-18.8,3-25.5c2-10,2.5-13.4-0.4-18.8 c-4.1-7.5-8.7-11.3-26.9-15.8c-3.1-0.8-6.5-1.5-10.6-2.4c-1.7-0.4-3.4-0.7-5.1-1.2c-16.2-4-29.2-10.2-40.7-15.7 c-8.1-3.9-15.2-7.3-21.2-8.8c-5.6-1.4-12.5-2.9-16.2-2.5c-1.4,0.1-1.5,0.2-2.2,1.6c-3,6.2-2.8,8.6-2.4,9.9 c0.6,2,3.1,5.2,11.4,9.5c14.2,7.4,30.6,20.3,43.7,34.5c10.8,11.7,24,29.3,25.7,46.3c0.6,5.9,0.8,12.8,1,20.2 c0.3,9.3,0.6,19.8,1.7,28c0.1,0.7,0.2,1.4,0.3,2c0.9,5.3,4.8,9.5,9.9,10.8l0,0.5L336.5,484.7z" class="st3"/></g><g><path d="M427.1,358.6c-3,0-6.8-0.9-11-2.8c-8.3-3.6-17-10.4-17.2-15.4c-0.1-2.3,0.8-4.4,2.6-6.3 c5.1-5.3,17.4-8.4,33.6-8.5c0,0,0.1,0,0.1,0c6.5,0,10.4,1.8,11.7,5.2c2.6,7.1-7,19.7-14.4,26.1 C431.3,358,429.4,358.6,427.1,358.6z M435.2,326.7c0,0-0.1,0-0.1,0c-16,0.1-28,3-32.9,8.2c-1.6,1.7-2.4,3.6-2.3,5.6 c0.2,4.1,7.6,10.6,16.6,14.5c7,3.1,12.8,3.6,15.5,1.3l0,0c7.4-6.4,16.5-18.6,14.1-25C444.9,328.2,441.3,326.7,435.2,326.7z" class="st3"/></g><g><path d="M345.9,467.3c-4.3,0-9.1-6.7-9.5-9.7c-0.3-3.1-0.7-5.1-1.1-7.1c-1-5.2-1.9-9.6-1.2-29 c1-26.1-25.4-49.6-41.1-61.4c-5.2-3.9-7.4-6.9-6.3-8.7c2.2-3.7,16.7-0.1,35.3,8.7c31.6,15.1,33.4,42.8,33.3,50.9 c-0.3,10.9-2.4,37.8-3,44.7C351.5,463.4,349.4,467.2,345.9,467.3C345.9,467.3,345.9,467.3,345.9,467.3z M290.8,350.9 c-1.8,0-2.9,0.4-3.3,1c-0.6,1,0.7,3.4,6,7.4c35.3,26.2,42.1,48.3,41.5,62.2c-0.7,19.2,0.1,23.6,1.1,28.7c0.4,2,0.8,4.1,1.1,7.2 c0.3,2.4,4.6,8.8,8.5,8.8c0,0,0,0,0,0c2.8,0,4.6-3.7,5.2-10.6l0.5,0l-0.5,0c0.8-8.3,2.8-34.4,3-44.7c0.2-8-1.6-35.2-32.7-50 C306,353.6,295.7,350.9,290.8,350.9z" class="st3"/></g><g><path d="M622.5,581.4c-1.3,0-2.6-0.1-3.8-0.2c-28.8-3.7-35.7-25.5-44.5-53.1c-1-3.2-2.1-6.5-3.2-9.8 c-5.6-17.1-10-24.6-15.5-26.8c-6-2.4-13.5,1.6-25.8,8.1c-1.6,0.8-3.2,1.7-5,2.6c-13.1,6.9-34.1,9.6-56.1,7.2 c-21.4-2.3-39.7-9-47.8-17.6c-3.3-3.5-6-5.1-8.7-5.1c0,0,0,0,0,0c-4.1,0-7.8,3.9-12.8,9.4c-8.6,9.1-21.5,22.9-47.4,28.2 c-18.4,3.8-33.4,1.2-44.5-7.6c-5.8-4.6-19.3-18.4-20.1-47.6c-0.1-2.1-0.1-4.2-0.1-6.3c-0.4-26.9-0.7-52.4-63.2-106 c-28.9-24.8-25.5-50.8-12.7-66.9c17.1-21.4,53.8-30.9,83.2-8.9c21.8,16.3,49.5,24.2,82.2,23.6c26.9-0.5,50.5-6.5,64.6-10.1 l2.1-0.5c19.6-5,38-2.8,46.9,5.5c4.2,4,5.9,9,4.9,14.6c-2.4,12.9-12.3,41-32.7,54.5c-21.1,14-45.4,35.6-49.1,48.1 c-1.7,5.7-3.6,19.2-0.3,34c2.6,12,9.7,28.4,28.1,38.4c33.4,18.1,82.2,4.8,99.7-5.9c6.9-4.2,13.1-5.3,18.3-3.1 c12.7,5.2,18.1,27.5,22.9,47.1c1.7,6.9,3.3,13.5,5.1,18.5c4.3,12.2,14,21.4,26.1,24.7c11,3,22.4,0.4,31.3-7.1 c2.9-2.4,5.7-4.9,8.7-7.6c16.8-15,35.8-31.9,64.9-30.8c14.8,0.6,40.3-12.1,41.9-23.3c0.8-5.4-4.3-9.7-14.8-12.4 c-3.2-0.8-6.5-1.6-9.7-2.4c-34.9-8.7-65-16.3-65.9-44.8c-0.5-17.8-8.8-63.1-21.8-66.3c-13.5-3.3-37.8,1.3-46.4,8.8 c-5.4,4.7-12.8,5.3-17.9,4.3c-4.6-0.9-8.3-3.2-9.7-6.2c-1.8-3.6,3.4-8.1,10-13.7c6.4-5.5,13.7-11.8,15.3-18.3 c1.6-6.6,0-17.4-7.3-26.7c-6-7.7-17.8-16.8-39.6-16.8c-0.2,0-0.3,0-0.5,0c-21.5,0.1-33.8-3.6-37.7-11.3 c-5.3-10.7,6.9-26.7,16.7-39.5c3.5-4.6,6.8-8.9,8.8-12.3c9.8-17,9.5-39.8-0.9-55.5c-10.5-16-29.9-23.1-54.4-20.2 c-30.1,3.6-63.7,6.1-81-11.4c-8.9-9-16.2-25.3-11-39.9c3.4-9.8,13.8-22.3,43.5-25.7c9.1-1.1,23.7,0.1,37.9,1.3 c21,1.7,42.7,3.4,47.7-1.8c0.8-0.9,1.1-1.9,0.9-3.1c-0.2-1.8-1-4.5-2-7.9c-4.1-14.9-11.9-42.7,3.4-61.8 C535.3,2.8,559-3.9,593.9-2.4c2.2,0.1,8.3,0.8,17.4,1.8C657,4.7,778.2,18.6,818.4,2.7c0.3-0.1,0.5,0,0.6,0.3 c0.1,0.3,0,0.5-0.3,0.6c-40.5,16-161.9,2.1-207.6-3.2c-8.8-1-15.2-1.7-17.4-1.8c-34.6-1.6-58,5.1-69.6,19.7 c-14.9,18.7-7.3,46.2-3.2,60.9c1,3.5,1.7,6.2,2,8c0.2,1.5-0.2,2.8-1.2,3.9c-5.3,5.6-26.3,3.9-48.5,2.1 c-14.1-1.1-28.6-2.3-37.7-1.3c-29.2,3.4-39.3,15.5-42.7,25c-5,14.3,2.1,30.2,10.8,38.9c17.1,17.2,50.4,14.7,80.2,11.1 c24.9-3,44.6,4.3,55.3,20.6c10.5,16,10.9,39.2,0.9,56.6c-2,3.5-5.3,7.8-8.9,12.5c-9.6,12.6-21.6,28.4-16.6,38.5 c3.6,7.3,16,10.9,36.8,10.8c0.2,0,0.3,0,0.5,0c22.2,0,34.2,9.3,40.4,17.1c8,10.2,9.1,21.2,7.5,27.5c-1.7,6.8-9.1,13.1-15.6,18.8 c-5.7,5-11.1,9.6-9.7,12.5c1.3,2.6,4.6,4.7,9,5.6c4.9,1,11.9,0.4,17-4c8.8-7.7,33.5-12.4,47.3-9c14.5,3.6,22.1,52.2,22.5,67.2 c0.8,27.8,30.6,35.2,65.1,43.9c3.2,0.8,6.4,1.6,9.7,2.4c13.9,3.6,16.1,9.3,15.5,13.5c-1.7,11.9-27.5,24.7-42.9,24.1 c-28.8-1.1-47.6,15.7-64.2,30.6c-3,2.7-5.8,5.2-8.7,7.6c-9.2,7.7-20.9,10.4-32.2,7.3c-12.3-3.4-22.3-12.8-26.7-25.3 c-1.8-5.1-3.4-11.6-5.1-18.6c-4.5-18.4-10.1-41.4-22.3-46.4c-5-2.1-10.7-1.1-17.4,3c-7.7,4.7-23.7,11.2-43.6,13.9 c-15.4,2.1-37.9,2.4-57-8c-35-18.9-32-60.5-28.3-73.6c3.7-12.7,28.2-34.5,49.5-48.6c20.1-13.4,29.9-41.1,32.2-53.9 c1-5.3-0.6-10-4.6-13.7c-8.6-8.1-26.7-10.1-45.9-5.2l-2.1,0.5c-14.1,3.6-37.8,9.7-64.8,10.1c-32.9,0.6-60.8-7.4-82.8-23.8 c-28.9-21.6-65-12.3-81.8,8.7c-12.6,15.7-15.9,41.1,12.5,65.5c62.8,53.9,63.2,79.6,63.6,106.8c0,2.1,0.1,4.2,0.1,6.3 c0.2,7.5,2.2,33,19.7,46.9c10.9,8.6,25.6,11.1,43.7,7.4c25.6-5.2,38.4-18.9,46.9-27.9c5.3-5.6,9.1-9.7,13.6-9.7c0,0,0,0,0,0 c2.9,0,5.9,1.7,9.4,5.4c8,8.4,26,15,47.2,17.3c21.8,2.4,42.6-0.3,55.5-7.1c1.7-0.9,3.4-1.8,5-2.6c12.6-6.7,20.2-10.8,26.7-8.2 c5.8,2.3,10.3,10,16.1,27.4c1.1,3.4,2.2,6.6,3.2,9.9c8.7,27.3,15.5,48.9,43.7,52.5c16.2,2.1,34.1-10,51.4-21.7 c16.4-11,33.3-22.5,48.6-21.7c16.6,0.9,56.9-14.7,59.7-31.4c1.5-9.3-9.2-17.4-31-23.5c-70.3-19.7-71.5-33-76.3-82.7 c-0.3-3.1-0.6-6.3-0.9-9.7c-3.4-33.5-16.9-36.5-31.2-39.7c-10.2-2.3-20.7-4.7-27.5-18.6c-11.2-23.2-32.7-35.4-62.2-35.4 c-0.1,0-0.3,0-0.4,0c-9.5,0-22.5,0.1-25.9-6.5c-2.1-3.9-0.5-9.5,4.7-17l0.4-0.6c15.7-22.7,42-60.6,16.8-89.1 c-22.8-25.8-39.8-25.1-63.4-24.2c-2.7,0.1-5.5,0.2-8.4,0.3c-1.4,0-2.9,0.1-4.3,0.1c-26.8,0.7-60.2,1.7-65.7-25.2 c-1.2-6-0.1-11.4,3.4-16c10.4-13.6,37.7-15.5,38.8-15.5c6.7,0.1,14.6-0.7,23.8-1.6c37.5-3.6,88.9-8.4,130.7,35.3 c19.7,20.6,27.9,34.8,33.9,45.1c9.7,16.7,13.7,23.6,52.4,31.9c16.1,3.5,27,11.8,30.5,23.4c3.7,12-0.8,26.4-11.6,37.6 c-15.3,15.9-38.5,21.7-62.2,15.4c-21.8-5.7-35.1-4.5-38.4,3.6c-4.4,10.8,10.1,31.5,18.6,36.3c2.2,1.2,5.2,2.3,8.8,3.6 c17.4,6.2,46.6,16.6,46.8,71.4c0.1,27.7,15.2,48.7,44.9,62.2c24.3,11.1,51.6,13.9,62.3,14.6c22.5,1.5,68.4-4.3,98.2-35.6 c22.1-23.3,30.9-55.6,26.1-96.1c-7.7-65.7-50.6-83.1-88.4-98.5c-26.6-10.8-51.8-21.1-60.1-46.9c-7.1-22-4.7-40.7,6.8-54.3 c14.4-16.9,42.3-24.5,72.8-19.9c15.7,2.4,28.8,10.6,42.6,19.2c19.8,12.4,42.3,26.5,79.1,28.2c39.5,1.8,82.5,30.7,97.9,65.8 c7.1,16.3,11.3,40.8-9.1,65.1c-0.2,0.2-0.5,0.2-0.7,0.1c-0.2-0.2-0.2-0.5-0.1-0.7c20.1-23.9,16-48,9-64 c-15.2-34.7-57.8-63.4-97-65.2c-37-1.7-59.6-15.9-79.6-28.4c-13.7-8.6-26.7-16.7-42.2-19.1c-30.2-4.6-57.7,2.9-71.9,19.5 c-11.3,13.3-13.6,31.7-6.6,53.3c8.2,25.4,33.1,35.5,59.5,46.3c38.1,15.5,81.2,33,89,99.3c4.8,40.9-4.1,73.5-26.4,96.9 c-30,31.5-76.3,37.4-98.9,35.9c-10.7-0.7-38.2-3.6-62.6-14.7c-30.1-13.7-45.4-35-45.5-63.1c-0.2-54-29-64.3-46.1-70.5 c-3.6-1.3-6.7-2.4-8.9-3.7c-7.9-4.5-24-25.5-19-37.6c3.6-8.8,16.9-10.2,39.6-4.2c23.3,6.1,46.2,0.5,61.2-15.2 c10.6-11,14.9-25.1,11.4-36.7c-3.4-11.3-14-19.3-29.8-22.7c-39.2-8.4-43.2-15.4-53-32.3c-6-10.3-14.2-24.4-33.8-45 c-41.5-43.4-92.6-38.5-129.9-35c-9.2,0.9-17.1,1.6-23.9,1.6c-0.2,0-28,1.9-38.1,15.1c-3.3,4.3-4.4,9.4-3.2,15.2 c5.4,26,38.3,25.1,64.7,24.4c1.5,0,2.9-0.1,4.3-0.1c2.9-0.1,5.7-0.2,8.4-0.3c23.8-0.9,41-1.6,64.2,24.5 c25.7,29-0.9,67.4-16.7,90.3l-0.4,0.6c-4.9,7.1-6.5,12.5-4.6,16c3.2,6.1,16.3,6,25.1,6c0.1,0,0.3,0,0.4,0 c29.9,0,51.7,12.4,63.1,35.9c6.5,13.5,16.8,15.8,26.8,18.1c14,3.2,28.5,6.4,31.9,40.6c0.3,3.4,0.7,6.6,0.9,9.7 c2.4,25.3,3.9,40.5,13.4,52.3c9.3,11.5,26.2,19.5,62.1,29.6c22.7,6.3,33.3,14.6,31.7,24.6c-2.9,17.5-43.4,33.2-60.7,32.2 c-15-0.8-31.8,10.5-48,21.5C654.6,570.1,638,581.4,622.5,581.4z" class="st3"/></g><g><path d="M491,283c-0.5,0-0.9,0-1.4,0c-15-1-30.5-1-38.6-0.1c-3.8,0.5-7.5-1.9-8.4-5.3c-0.4-1.8-0.9-8,11.4-12.8 c18.7-7.3,40.7-17,46.8-21.5c6.7-4.9,14-3.3,17.7,0.8c3.2,3.5,3.1,8.1-0.1,11.7l0,0c-3,3.2-5.3,7.2-7.6,11 C505.8,275.1,501.2,283,491,283z M467.1,281.1c6.9,0,14.8,0.3,22.6,0.8c10.6,0.7,15.3-7.2,20.3-15.7c2.3-3.9,4.7-7.9,7.7-11.2 c3.5-3.8,2.3-7.8,0.1-10.3c-3.4-3.8-10.2-5.3-16.4-0.7c-6.1,4.5-28.2,14.3-47,21.6c-7.8,3.1-11.8,7.4-10.8,11.6 c0.7,2.9,3.9,4.9,7.3,4.5C454.8,281.4,460.5,281.1,467.1,281.1z M518,255.4L518,255.4L518,255.4z" class="st3"/></g><g><path d="M475.1,277.6c-7.1,0-14.3-2.8-14.9-5.9c-0.2-1,0.2-2.5,3.3-3.7c6.6-2.5,10.8-3.8,14.8-5 c4.2-1.3,8.1-2.5,14.1-4.9c7.8-3.2,12.6-3.9,14.3-2.1c0.9,0.9,0.9,2.3,0.1,4.2c-2.5,5.9-8.5,13.5-15.6,16.3l-0.1,0 c0,0-5,0.7-15.4,1C475.6,277.6,475.3,277.6,475.1,277.6z M503.7,256.1c-1.9,0-5.2,0.6-10.9,3c-6,2.4-10,3.6-14.2,4.9 c-4,1.2-8.2,2.5-14.7,5c-1.4,0.5-2.9,1.4-2.7,2.6c0.5,2.4,7.3,5.3,14.5,5.1c9.7-0.2,14.6-0.9,15.2-0.9c7.2-2.9,12.9-11,15-15.8 c0.4-1,0.8-2.4,0.1-3.1C505.8,256.5,505.1,256.1,503.7,256.1z M491.1,276.2L491.1,276.2L491.1,276.2z" class="st3"/></g><g><path d="M422.1,862.4c-7.1,0-13.9-0.9-20.2-2.7c-19.3-5.6-42.6-22.6-43.5-71.4c-0.9-48.4,24.4-60.6,51.2-73.6 c23.4-11.4,47.7-23.1,56.4-60.1c6.2-26.3,1.9-49.6-12.7-69.5c-8.8-11.9-21.2-22.4-36.9-31c-15.1-8.3-29.6-4.2-45.1,0.2 c-12.6,3.6-25.7,7.3-39.3,3.8c-41.8-10.8-49.3-21.8-61.7-40.1c-11-16.2-14.3-34.8-17.2-51.2c-1.5-8.6-3-16.7-5.3-23.8 c-6-17.8-17.3-29.7-30.9-32.7c-14.8-3.2-31.1,4-47.2,21c-30.3,32-70.4,43.7-122.5,35.6c-40.8-6.3-65.5,17.3-72,43.5 c-0.1,0.3-0.3,0.4-0.6,0.4c-0.3-0.1-0.4-0.3-0.4-0.6c6.6-26.6,31.7-50.7,73.1-44.3c51.8,8,91.6-3.5,121.7-35.3 c20.6-21.8,37.6-23.6,48.2-21.3c14,3.1,25.5,15.2,31.6,33.4c2.4,7.1,3.9,15.3,5.4,23.9c2.9,16.3,6.1,34.8,17.1,50.8 c12.3,18.1,19.7,29,61.1,39.7c13.3,3.4,26.3-0.2,38.8-3.8c15.6-4.4,30.4-8.7,45.8-0.1c15.8,8.7,28.4,19.3,37.3,31.3 c14.8,20.1,19.2,43.8,12.9,70.3c-8.8,37.4-33.3,49.3-57,60.8c-26.5,12.8-51.5,25-50.7,72.7c0.5,26.6,8.3,60.4,42.7,70.4 c34.4,10,80.7-10,96-33.2c15.8-23.9,39.2-46.6,102.5-51c49.2-3.4,66.4,15.9,81.5,33c10.8,12.2,20.1,22.8,39.2,23.7 c1,0,1.9,0.1,2.9,0.1c43.8,0,71.2-46.5,86.6-86c8.6-22,7.5-50.2-2.9-73.8c-7.4-16.9-18.8-29-31.9-34.1 c-30.6-11.9-42.9-24.2-53.7-35.1c-7.8-7.8-15.1-15.2-28.1-21.5c-15.4-7.5-23.6-0.7-33.2,7.1c-10.1,8.2-21.5,17.5-43.7,14.3 c-30.2-4.4-35.7-14.9-45.7-33.8c-2.5-4.8-5.4-10.3-9.1-16.3c-15.6-25.8-22.2-24.3-35.4-21.3c-1.8,0.4-3.6,0.8-5.7,1.2 c-18.2,3.5-65.3,5.3-97-6.2c-13.2-4.8-23.4,1.1-35.2,7.9c-16.8,9.6-37.6,21.6-75.7,7.7c-36.8-13.4-44.7-47.8-52.3-81 c-4.1-17.9-8-34.8-16.2-47.8c-10.1-15.9-21.3-25.3-33.3-27.8c-12.2-2.6-22.9,2.4-29.7,7c-5.9,4-12.7,11.2-19.8,18.8 c-11.1,11.9-23.8,25.4-38.2,32.5c-26.8,13-60.2,16.1-80.7,14.7c-10.7-0.7-23.9-11.4-32.8-26.5c-8.4-14.2-10.6-28.5-6-38.3 c6-12.8,20.5-15.8,31.6-16.1c14.5-0.3,29.1,3.7,37.9,7.6c9.6,4.3,15.9,2.3,23.8-0.1c7.8-2.4,16.5-5.1,31-2.8 c34.1,5.4,40.6-8.7,50-36.3c2.8-8.3,4.6-15.9,6.2-23.2c3.8-16.4,7-30.6,20.9-47.2c13.7-16.4,29.3-25.4,46.3-26.8 c21.3-1.7,45,8.6,70.3,30.7c13.3,11.5,35.5,13.4,66.1,5.6c24.8-6.3,48-17.1,59.1-22.3l1.3-0.6c2.6-1.2,5.9-2.6,9.3-4 c19.3-8.1,48.4-20.4,48.1-40.5c-0.1-9.2-2.7-16-7.9-20.7c-7-6.4-18.9-8.8-36.1-7.4c-15.3,1.2-31.8,0.3-46.5-2.7 c-18.4-3.7-33.2-10.3-44.2-19.6C344,143,298.1,122,262.4,130.9c-19.1,4.7-32.8,17.3-40.9,37.4c-9.2,23.1-13.5,44.4-17.3,63.2 c-6.9,34.2-11.8,59-41.8,67.2c-18.8,5.2-39.6-2.1-62-21.6c-18.7-16.3-34.8-37.9-45.5-52.1c-1.4-1.9-2.8-3.7-4-5.4 C40.6,206,22.5,195.8,2.6,192.3c-22.7-4-46,1-65.5,13.9c-0.2,0.2-0.5,0.1-0.7-0.1c-0.2-0.2-0.1-0.5,0.1-0.7 c19.7-13,43.2-18,66.2-14c20.2,3.5,38.5,13.8,49,27.6c1.3,1.7,2.6,3.5,4,5.4c10.6,14.2,26.7,35.7,45.3,52 c22.1,19.3,42.6,26.5,61.1,21.4c29.4-8.1,34.3-32.6,41.1-66.4c3.8-18.8,8.1-40.2,17.3-63.4c8.2-20.4,22.2-33.2,41.6-38 c36.1-9,82.3,12.1,110,35.6c15.3,13,47,25.6,89.9,22.1c17.6-1.4,29.7,1.1,36.9,7.7c5.3,4.8,8.1,12,8.3,21.4 c0.3,20.7-29.2,33.2-48.7,41.5c-3.4,1.4-6.6,2.8-9.3,4l-1.3,0.6c-11.2,5.2-34.5,16.1-59.3,22.4c-31,7.9-53.5,5.9-67-5.8 c-25.2-21.9-48.6-32.1-69.6-30.4c-16.7,1.3-32.1,10.2-45.6,26.4c-13.8,16.5-17,30.5-20.7,46.8c-1.7,7.3-3.4,14.9-6.3,23.3 c-9.3,27.4-16.3,42.6-51.1,37c-14.2-2.3-22.9,0.4-30.5,2.8c-7.8,2.4-14.5,4.5-24.5,0.1c-8.7-3.8-23.1-7.8-37.5-7.5 C25.1,378,11,380.9,5.2,393.2c-4.5,9.5-2.2,23.4,6,37.3c8.8,14.9,21.6,25.3,32,26c20.4,1.4,53.6-1.6,80.2-14.6 c14.3-6.9,26.8-20.4,37.9-32.2c7.2-7.7,13.9-14.9,20-19c7-4.7,17.9-9.7,30.4-7.1c12.3,2.6,23.8,12.1,34,28.2 C254,425.1,257.9,442,262,460c7.6,33,15.4,67.1,51.7,80.3c37.6,13.7,58.3,1.9,74.8-7.6c12-6.9,22.4-12.9,36.1-7.9 c31.5,11.4,78.4,9.6,96.5,6.1c2-0.4,3.8-0.8,5.6-1.2c13.2-3,20.5-4.7,36.5,21.8c3.7,6.1,6.6,11.6,9.1,16.4 c9.9,18.7,15.3,29,45,33.3c21.8,3.2,33-6,42.9-14.1c9.8-8,18.4-15,34.3-7.2c13.2,6.4,20.6,13.9,28.4,21.7 c10.8,10.8,23,23.1,53.4,34.9c13.4,5.2,25,17.5,32.5,34.6c10.5,23.8,11.6,52.3,2.9,74.5c-15.5,39.8-43.2,86.6-87.6,86.6 c-1,0-1.9,0-2.9-0.1c-19.5-0.9-29.4-12.1-39.9-24c-14.9-16.9-31.9-36.1-80.6-32.7c-62.9,4.4-86,26.9-101.7,50.6 c-7.7,11.6-23.1,22.6-41.1,29.5C445.7,860.1,433.5,862.4,422.1,862.4z" class="st3"/></g><g><path d="M359,280.3c-22.9,0-34.5-8.4-45.8-16.5c-2.5-1.8-5.1-3.7-7.8-5.4c-3.1-2-5.5-3.7-7.6-5 c-8.8-5.9-10.2-6.9-21.7-9.7c-10.7-2.6-32.9-8.1-51.2,6.1c-8.8,6.8-14.8,9.3-18,7.2c-2.6-1.7-3-6.1-1.3-13.2 c0.2-1,0.6-2.4,1-4.1c2.3-10.4,7.8-34.9,17.8-56.3c12.4-26.7,27.6-40.4,45.3-40.5c0.6,0,1.2,0,1.8,0c42.2,0,66.8,16.7,86.6,30.1 c8.8,6,16.4,11.1,23.9,13.6c27.6,8.9,39.1,27.5,35.9,40.5c-3,12.2-12.1,49.3-48.3,52.8C365.7,280.2,362.3,280.3,359,280.3z M276.4,242.7c11.6,2.9,13.2,3.9,22,9.8c2.1,1.4,4.5,3,7.6,5c2.7,1.8,5.3,3.6,7.8,5.5c12.7,9.2,25.9,18.7,55.6,15.8 c35.5-3.4,44.5-40.1,47.4-52.1c2.5-10-4.9-29.5-35.2-39.3c-7.7-2.5-15.3-7.7-24.2-13.7c-19.9-13.5-44.8-30.4-87.7-29.9 c-17.2,0.2-32.1,13.6-44.4,40c-9.9,21.3-15.4,45.7-17.7,56.1c-0.4,1.8-0.7,3.2-1,4.2c-1.6,6.5-1.3,10.7,0.9,12.1 c1.9,1.2,6.4,1,16.8-7.2C243,234.5,265.6,240,276.4,242.7z" class="st3"/></g><g><path d="M358.5,260.5c-8.5,0-17.5-2.5-23.5-4.7c-14.7-5.2-30.6-14.1-40.4-22.8c-11-9.7-18.1-34-14.5-48.9 c1.8-7.1,5.8-11.6,11.8-13.1c19.4-4.8,49.6,11.1,76.2,25.1c2.6,1.4,5.2,2.7,7.7,4c10,5.2,15.5,12.1,16.6,20.6 c1.6,12.9-8.1,26.4-17.6,34.8C370.5,259.2,364.6,260.5,358.5,260.5z M295.3,232.3c17.8,15.8,62.4,36.8,78.9,22.4 c9.3-8.2,18.8-21.4,17.3-33.9c-1-8.1-6.4-14.8-16-19.8c-2.5-1.3-5.1-2.6-7.7-4c-26.5-13.9-56.5-29.7-75.5-25 c-5.6,1.4-9.4,5.6-11,12.4C277.6,198.7,284.7,222.9,295.3,232.3z" class="st3"/></g><g><path d="M321.7,214c-2.5,0-5.1-0.5-7.7-1.7l0,0c-2.6-1.1-4.8-2.1-6.8-2.9c-9-3.7-11.7-4.8-12.5-12.6 c-0.3-2.3,0.5-4.1,2.3-5.3c6.2-4.1,23,0.5,32.3,5.6c5.6,3.1,6,7.5,4.5,10.5C332,211.3,327.3,214,321.7,214z M304,191 c-2.7,0-5,0.4-6.4,1.4c-1.5,1-2.1,2.4-1.9,4.3c0.8,7.2,3.1,8.2,11.9,11.8c2,0.8,4.2,1.7,6.8,2.9l0,0c8.8,3.9,16.4,0,18.5-4.2 c1.7-3.4,0.1-6.8-4.1-9.2C321.5,194,311.2,191,304,191z" class="st3"/></g><g><path d="M152,278.1c-5.9,0-12.9-2.3-21.6-7c-34.5-18.7-73.1-69.5-98.6-103.2c-5.6-7.4-10.4-13.7-14.7-19.1 c-35.8-45-49.7-92.5-37.1-127C-11.2-2.5,9.7-18.7,40.4-25c34.2-7,65,11.9,94.7,30.3c38.7,23.9,78.8,48.5,128.1,18.8 c31.4-18.9,46-33.2,46-45c-0.1-11.2-13.8-19.3-28.3-27.8c-7.1-4.2-14.4-8.4-20.7-13.4c-0.2-0.2-0.3-0.5-0.1-0.7 c0.2-0.2,0.5-0.3,0.7-0.1c6.3,4.9,13.6,9.2,20.6,13.3c14.8,8.7,28.7,16.8,28.8,28.6c0.1,12.2-14.7,26.8-46.4,45.9 c-16.4,9.9-31.8,13.8-46.4,13.8c-29.9,0-56.6-16.5-82.8-32.6c-30.9-19.1-60.2-37.1-94-30.1c-30.3,6.2-51,22.2-59.7,46.2 c-12.4,34.2,1.4,81.3,37,126c4.2,5.3,9.1,11.7,14.7,19.1c25.5,33.6,64,84.4,98.3,102.9c12.8,6.9,21.7,8.5,28.9,5.3 c15.5-7.1,25-38.9,37.9-98.9c6.7-31.1,23.3-52.3,49.2-63.2c38.1-16,88-4.6,105.3,6.3c12.3,7.8,20.4,6.4,25,3.9 c6.3-3.4,9.6-10.9,9.6-16.5c0-4.2,2.1-8,6.2-11.4c16.1-13.2,62.8-17.1,104-8.8c5.9,1.2,9.9,0.7,12.2-1.5 c4.1-3.8,3-12.9,1.6-23.4c-2-16-4.5-35.8,8.5-50.4c12-13.5,34.9-19.8,69.9-19.4c3.3,0,12.8,1.2,25.9,2.7 c51.3,6.1,158.1,18.8,196.2,3.8c0.3-0.1,0.5,0,0.6,0.3c0.1,0.3,0,0.5-0.3,0.6c-38.4,15.1-145.3,2.4-196.7-3.7 c-13.1-1.6-22.6-2.7-25.8-2.7C554.4-7.3,531.8-1,520,12.2c-12.7,14.2-10.2,33.8-8.2,49.6c1.4,11.2,2.5,20.1-1.9,24.3 c-2.6,2.4-6.9,3-13.1,1.7c-40.9-8.2-87.2-4.4-103.1,8.6c-3.8,3.1-5.8,6.7-5.8,10.6c0,5.9-3.5,13.8-10.1,17.4 c-4.8,2.7-13.3,4.1-26-3.9c-14-8.8-63.9-23.2-104.4-6.2c-25.6,10.8-42,31.8-48.7,62.5c-7.5,34.8-13.1,55.9-18.5,70.6 c-6.1,16.5-12.3,25.4-20,28.9C157.7,277.5,155,278.1,152,278.1z" class="st3"/></g><g><path d="M726.6,849.4c-12.3,0-23.5-4.2-33.1-12.4c-3.7-3.1-7.5-8.1-11.9-13.9c-13.8-18.1-32.5-42.8-69.5-42.8 c-0.5,0-1,0-1.5,0c-46.8,0.9-77.5,18.9-95.1,34c-0.2,0.2-0.5,0.2-0.7-0.1c-0.2-0.2-0.2-0.5,0.1-0.7 c17.7-15.1,48.6-33.3,95.7-34.2c38.5-0.7,57.7,24.7,71.8,43.2c4.4,5.8,8.1,10.7,11.7,13.8c13.7,11.8,30.9,15.1,49.7,9.6 c35.4-10.4,70.6-49.8,83.8-93.7c8.9-29.6,7.7-60-3.2-85.6c-9.6-22.4-26.1-39.4-44.2-45.7c-16.5-5.7-29.2-19-41.5-32 c-12.7-13.3-24.6-25.9-39.3-28.2c-14-2.2-24.8,5.5-36.3,13.7c-12.3,8.7-24.9,17.8-42.8,16c-35.5-3.5-43.5-27.2-55.5-63 c-2.7-8.1-7.8-13.9-14.3-16.4c-7.3-2.8-16.3-1.4-26,4.1c-22.5,12.6-76.2,10.3-99-4.1c-10.1-6.4-22.9,0.8-37.7,9.1 c-17.8,10-39.9,22.4-65,14.8c-40.7-12.3-45.3-46.2-48.4-68.6c-0.4-2.9-0.8-5.7-1.2-8.1c-1.7-9.9-7.9-28-17.9-46 c-7.9-14.2-20.6-32.8-36.2-40.1c-24.1-11.3-45.6,16.8-57.2,31.9c-1.7,2.2-3.2,4.2-4.4,5.5c-3.3,3.8-17.7,14-36.4,23.1 c-16,7.8-39.5,17-60.6,16.6c-14.6-0.3-25.8-5.3-33.3-14.9c-11-14.1-14.7-25.1-11.1-32.8c3.9-8.3,16.1-12.8,36.5-13.5 c4.3-0.1,9.4,1.6,14.8,3.5c5,1.7,10.1,3.5,15,3.9c4.7,0.4,10.9-1.3,17.5-3c8.5-2.2,17.3-4.5,24.4-3.1 c18.5,3.7,33.1,1.9,43.5-5.3c15.9-11.1,19.4-32.8,21.9-48.7c0.5-3.3,1-6.3,1.6-9c7.4-36,25.3-57.9,54.8-67 c16.9-5.2,40.4,3.8,71.8,27.7c23.6,17.9,65.2,11.5,95.6,6.8l0.6-0.1c5.5-0.8,10.8-2.1,15.9-3.4c13.1-3.2,26.6-6.5,45.8-3.5 c23.1,3.5,29.6-2.3,33.3-9.1c4.1-7.6,9-14.7,14.2-22.2c4.5-6.6,9.2-13.3,13.8-21c7.8-13.2,1.8-40.5-15.4-51.3 c-14.4-9.1-33.3-7.1-47.1-5.6c-2.5,0.3-4.9,0.5-7.1,0.7c-8,0.6-24.1,1.3-41.9-1.8c-22.8-3.9-40.9-12.5-53.9-25.6 c-12.7-12.8-30.8-23.3-49.7-29c-21.1-6.4-41.7-6.5-59.6-0.5c-23.5,8-53.3,30.7-61.7,93.7c-5.6,42.6-19.5,67-41.2,72.4 c-14.4,3.6-29-2.1-38.8-7.5c-12.1-6.7-20.9-15.2-23.8-19.2c-26.4-36.5-64.3-69.6-64.6-69.9C15.6,178.9-7.1,162.5-70.3,184 c-0.3,0.1-0.5-0.1-0.6-0.3c-0.1-0.3,0.1-0.5,0.3-0.6c63.8-21.6,86.7-5,103.5,7.1c0.4,0.4,38.4,33.5,64.8,70.1 c2.9,4,11.5,12.3,23.5,18.9c9.6,5.3,24,10.9,38,7.4c21.3-5.4,34.9-29.5,40.5-71.6c8.4-63.6,38.5-86.5,62.4-94.6 c18.1-6.1,38.9-5.9,60.2,0.5c19,5.7,37.3,16.4,50.1,29.3c9.6,9.7,38.2,31.7,94.9,27.1c2.2-0.2,4.6-0.4,7.1-0.7 c13.9-1.5,33-3.6,47.8,5.7c17.6,11.1,23.7,39.1,15.7,52.7c-4.5,7.7-9.2,14.5-13.8,21.1c-5.2,7.5-10.1,14.6-14.1,22.1 c-5.2,9.7-15.1,12.5-34.3,9.6c-19-2.9-32.4,0.4-45.4,3.5c-5.1,1.2-10.5,2.5-16,3.4l-0.6,0.1c-32.3,5-72.5,11.2-96.4-7 C286,264,262.8,255,246.2,260.1c-29.1,9-46.8,30.6-54.1,66.2c-0.5,2.7-1,5.7-1.6,9c-2.6,16.1-6.1,38.1-22.3,49.4 c-10.6,7.4-25.5,9.2-44.2,5.4c-6.9-1.4-15.6,0.9-24,3.1c-6.7,1.8-13,3.4-17.8,3c-4.9-0.4-10.2-2.2-15.2-3.9 c-5.3-1.8-10.4-3.5-14.4-3.4c-19.9,0.7-31.9,5-35.6,12.9c-3.4,7.4,0.2,18.1,10.9,31.8c7.3,9.3,18.2,14.2,32.5,14.5 c37.8,0.8,89.3-31.2,96.3-39.3c1.2-1.4,2.6-3.3,4.3-5.5c10.9-14.2,33.6-43.9,58.4-32.2c27.9,13.1,50.7,64.2,54.6,86.8 c0.4,2.5,0.8,5.2,1.2,8.2c3,22.2,7.6,55.7,47.7,67.8c24.8,7.5,45.7-4.3,64.3-14.7c15.1-8.5,28.1-15.8,38.7-9 c22.6,14.3,75.8,16.5,98,4.1c10-5.6,19.3-7,26.9-4.1c6.7,2.6,12,8.6,14.8,17c13.1,38.7,21.4,59,54.7,62.4 c17.4,1.7,30-7.2,42.1-15.8c11.7-8.3,22.7-16.1,37.1-13.9c15,2.4,27.1,15.1,39.9,28.5c12.2,12.8,24.8,26.1,41.1,31.7 c18.3,6.3,35.1,23.6,44.8,46.2c11.1,25.8,12.2,56.4,3.3,86.2c-13.2,44.2-48.8,83.9-84.4,94.4 C738.1,848.5,732.2,849.4,726.6,849.4z" class="st3"/></g><g><path d="M57.8,439.4c-9.1,0-13.2-2.1-22.7-12.1c-4.8-5.1-6.4-10.5-4.5-15.2c2.5-6.2,10.9-10,22.2-10.3 c4.7-0.1,10.1,1.1,15.8,2.3c11.1,2.4,22.5,5,29.2-2.3c4.5-5,22.6-6.7,34.7-1.7c4.1,1.7,6.2,3.9,6.1,6.3 c-0.2,4.6-8,9.4-23.3,14.2c-4.8,1.5-10.4,4.1-16.2,6.8c-11.3,5.2-24,11.2-36.4,11.8l0-0.5l0,0.5C61,439.4,59.3,439.4,57.8,439.4 z M53.5,402.8c-0.2,0-0.4,0-0.6,0c-11,0.3-19,3.9-21.3,9.7c-1.8,4.4-0.3,9.4,4.3,14.1c10.9,11.4,14.3,12.2,27,11.6 c12.1-0.6,24.8-6.5,36-11.7c5.9-2.7,11.4-5.3,16.3-6.9c19.5-6.2,22.5-11,22.6-13.3c0.1-2.5-2.9-4.3-5.5-5.3 c-9.8-4.1-28.6-4.1-33.6,1.4c-7.1,7.7-18.8,5.2-30.2,2.6C63.1,404,58,402.8,53.5,402.8z" class="st3"/></g><g><path d="M63,428.7c-3.5,0-7.7-1-12.1-3.7c-6.9-4.2-6.9-6.9-6.3-8.2c1.8-3.5,10.8-3.3,19.7,0.4 c4.2,1.8,6.7,4,6.8,6.3c0.1,1.4-0.7,2.8-2.2,3.7C67.6,428.2,65.5,428.7,63,428.7z M51.5,415.3c-3.2,0-5.4,0.8-5.9,1.9 c-0.8,1.6,1.4,4.2,5.9,6.9l0,0c7.2,4.3,13.9,4.2,17.1,2.2c1.2-0.7,1.8-1.7,1.7-2.8c-0.2-1.9-2.4-3.9-6.2-5.4 C59.1,416.2,54.8,415.3,51.5,415.3z" class="st3"/></g><g><path d="M85.1,380.7c-3.2,0-6.4-0.5-9.7-1.6c-9.8-3.5-22.2-5.5-32.1-7c-5.6-0.9-10.3-1.6-13.7-2.5 C-3.5,361-9.5,343.5-8.7,330.2c1.7-28.2,34.8-59.9,53.1-62.2c28.4-3.7,60.6,21.5,69.8,29.4c19.1,16.2,50.7,11,60.9,2.9 c4.8-3.9,8.3-5.2,9.9-3.7c1.6,1.4,1,5.2-1.7,9.7c-4.5,7.7-13.6,37.1-18.5,54c-5.4,18.4-27.5,16.5-43.6,15.2 c-7-0.6-13.6,1.1-20,2.6C95.7,379.4,90.4,380.7,85.1,380.7z M50.2,268.6c-1.9,0-3.8,0.1-5.7,0.4c-8.7,1.1-21.3,9.4-32,21.1 C0.5,303.2-6.9,317.9-7.7,330.3c-1.1,18.4,11.9,31.7,37.5,38.3l0,0c3.3,0.9,8.1,1.6,13.6,2.5c10,1.6,22.4,3.5,32.3,7.1 c8.5,3.1,16.6,1.1,25.1-1c6.5-1.6,13.2-3.3,20.3-2.7c15.8,1.3,37.4,3.2,42.6-14.5c6.1-20.7,14.3-46.9,18.6-54.3 c2.6-4.4,2.9-7.6,1.9-8.5c-0.4-0.4-2.4-1.2-8.6,3.8c-10.4,8.3-42.7,13.7-62.2-2.9C105.1,290.9,76.7,268.6,50.2,268.6z" class="st3"/></g><g><path d="M103.3,359.7c-3.9,0-8.2-0.1-12.7-0.3c-8-0.3-13.9-0.2-19.1-0.1c-9.8,0.2-16.3,0.4-27-3.1 c-15.2-4.9-16.3-22-12.3-36.4c5-17.7,18.8-35.5,30.4-32.6c8.6,2.1,16.6,9.4,25,17.1c12.3,11.3,25.1,22.9,41.5,20.3 c12.4-1.9,19.2-1.3,21.4,2.1c2.4,3.7-1.4,9.5-5,15.1c-1.8,2.7-3.4,5.3-4.2,7.4C138.9,356.3,126.4,359.7,103.3,359.7z M80.5,358.2c3,0,6.4,0.1,10.2,0.2c30.3,1.3,47-1.9,49.8-9.5c0.8-2.2,2.5-4.8,4.3-7.6c3.3-5.1,7-10.9,5-14 c-1.9-2.9-8.7-3.4-20.4-1.6c-16.9,2.7-29.8-9.2-42.3-20.6c-8.3-7.6-16.2-14.8-24.6-16.9c-11.1-2.7-24.3,14.6-29.2,31.9 c-7.6,26.8,7,33.7,11.6,35.2c10.6,3.4,17,3.2,26.7,3C74.3,358.3,77.2,358.2,80.5,358.2z" class="st3"/></g><g><path d="M230.4,876.7c-38.1,0-83-10-129.1-29.2C37.5,820.9-18.2,780.8-47.8,740.1c-57.4-79-9.7-156.9,13.2-194.3 c4-6.6,7.2-11.8,9.1-15.7c5.5-11.7,15.4-28.2,31-40.2c17.2-13.1,37.3-17.8,59.8-13.8c23.6,4.2,42.9-1.7,63.4-7.8 c22.8-6.9,46.3-13.9,77.2-7.1c30.5,6.8,38,22.7,46.7,41.3c8.1,17.1,17.2,36.5,47.1,52.4c39.7,21,63.4,16.4,82.4,12.7 c11.1-2.2,20.7-4,31.5-1c18.2,5,30.7,15.7,37.3,31.7c5.8,14,7,32.1,3.7,53.9c-4.2,27.6-42.4,46.7-70.4,60.7 c-12,6-22.4,11.2-27.7,15.8c-13.2,11.5-12.1,28.4-11.2,42c0.3,4.5,0.6,8.7,0.3,12.2l0,0c-1.8,23.9-9.1,43.6-21.8,58.7 c-11.6,13.9-27.8,23.9-48,29.6C262.3,874.8,247,876.7,230.4,876.7z M50.1,475.7c-16.2,0-31,5-44,15 c-15.5,11.9-25.3,28.2-30.7,39.8c-1.8,3.9-5,9.1-9.1,15.8C-56.6,583.5-104.1,661-47,739.5c29.5,40.6,85.1,80.6,148.7,107.1 c66,27.5,129.4,36,173.9,23.4c20-5.7,36-15.5,47.5-29.3c12.5-14.9,19.7-34.5,21.5-58.1l0.5,0l-0.5,0c0.3-3.5,0-7.6-0.3-12.1 c-0.9-13.8-2.1-31,11.6-42.8c5.4-4.7,15.8-9.9,27.9-15.9c27.7-13.8,65.7-32.8,69.8-59.9c3.3-21.6,2-39.5-3.7-53.4 c-6.5-15.7-18.8-26.2-36.7-31.1c-10.5-2.9-20-1.1-31,1.1c-9.6,1.9-20.6,4-33.9,3c-15.3-1.2-31.4-6.3-49.2-15.7 c-30.2-16-39.4-35.6-47.6-52.8c-8.6-18.3-16-34-46-40.7c-30.6-6.8-54,0.3-76.6,7.1c-20.6,6.2-40,12.1-63.8,7.8 C60,476.1,55,475.7,50.1,475.7z" class="st3"/></g><g><path d="M225.9,862.7c-19.5,0-41.3-2.9-64.9-8.7C80.5,834.2-1.9,784.3-39.4,732.7c-51.1-70.3-8.8-139.2,13.9-176.3 c4.3-7,7.7-12.6,9.9-17.3c4.7-10.1,13.1-24.2,26.2-34.2c13.6-10.4,29-13.9,47.2-10.7c15.8,2.8,30.4,0,44.5-2.7 c10.5-2,20.4-3.9,30.5-3.6l0,0c65.9,1.8,94,28.7,121.2,54.9c10.3,9.9,20.9,20.1,33.4,28.6c12.4,8.5,25.8,11.8,36.6,14.4 c24.4,6,42.2,2.6,56.4-0.2c9.6-1.9,16.5-3.2,23.3-1.5c0.2,0.1,0.5,0.1,0.7,0.2c14.8,4.1,27,13.4,31.8,24.2 c8,17.8,7.7,33.2-0.8,46.9c-12.3,19.8-31.2,34.1-61.4,46.3c-14.3,5.8-25.6,10.3-33,16.8c-19.3,16.8-17.8,40-16.8,55.3 c0.3,3.9,0.5,7.5,0.3,9.9c-2.1,27.4-12.3,47.9-30.3,60.9C277.7,856.6,254.3,862.7,225.9,862.7z M45.3,494.1 c-12.7,0-23.9,3.9-34.1,11.6c-12.9,9.9-21.2,23.8-25.9,33.8c-2.2,4.7-5.6,10.3-10,17.4c-22.6,36.9-64.6,105.5-14,175.2 c37.4,51.5,119.6,101.2,199.9,121c57.6,14.2,104.7,10.8,132.6-9.4c17.8-12.9,27.8-33.1,29.9-60.2c0.2-2.3-0.1-5.9-0.3-9.8 c-1-15.5-2.6-39,17.1-56.1c7.6-6.6,18.9-11.1,33.3-16.9c29.9-12.1,48.7-26.2,60.9-45.9c8.3-13.4,8.5-28.5,0.7-46 c-4.7-10.6-16.7-19.6-31.2-23.6c-0.2-0.1-0.5-0.1-0.7-0.2c-6.6-1.6-13.5-0.3-22.9,1.5c-14.4,2.8-32.2,6.2-56.8,0.2 c-10.8-2.7-24.4-6-36.9-14.6c-12.5-8.5-23.2-18.8-33.5-28.7c-27.1-26-55.1-52.8-120.5-54.6c-10.1-0.3-19.9,1.6-30.3,3.6 c-14.2,2.7-28.9,5.5-44.9,2.7C53.4,494.4,49.3,494.1,45.3,494.1z" class="st3"/></g><g><path d="M283.6,810.7c-10.8,0-24.3-4.3-38.7-12.5c-14.6-8.4-28.3-19.8-38.4-32c-11.2-13.5-17-26.7-16.8-38.1 c0.4-22.1-9.1-35.9-29.8-43.7c-18.8-7.1-45.4-8.4-73.5-9.9c-3-0.2-6-0.3-9-0.5c-56.6-3.1-75-17.6-84.6-29.8 c-12.3-15.6-15.6-37.7-10.1-67.6c13-70.3,54.9-70.4,107.9-70.6c15-0.1,30.6-0.1,47-1.7c39.7-3.8,66.9,19.2,101.3,48.4 c6.9,5.9,14.1,12,21.8,18.2c22.1,17.8,31.9,20.6,55.7,27.3c7.9,2.2,17.7,5,29.9,8.9c51.5,16.5,56.2,40.5,55.9,50.1 c-0.7,17.8-18.2,33.4-44.6,39.7c-16.9,4.1-30.4,15.7-38.9,33.5c-6.7,14-10.1,31.5-9.4,47.9c0.6,14.2-3.2,24-11.3,28.9 C294.1,809.6,289.2,810.7,283.6,810.7z M146.1,505c-2.7,0-5.5,0.1-8.3,0.4c-16.4,1.6-32,1.6-47.1,1.7 c-26.9,0.1-50.2,0.2-68.6,8.9c-20.2,9.6-32.3,28.9-38.3,60.8c-5.5,29.5-2.3,51.4,9.9,66.8c18.1,23,54.3,27.8,83.9,29.4 c3,0.2,6.1,0.3,9,0.5c28.2,1.5,54.8,2.9,73.8,10c21.2,7.9,30.8,22.1,30.4,44.7c-0.3,18.6,18.3,48.3,54.7,69.2 c21.5,12.4,41,15.7,52,9c7.8-4.7,11.4-14.1,10.8-28c-0.7-16.6,2.8-34.2,9.5-48.4c8.6-18.2,22.3-29.9,39.6-34.1 c26-6.2,43.2-21.4,43.8-38.8c0.3-9.3-4.3-32.8-55.2-49.1c-12.2-3.9-22-6.7-29.8-8.9c-23.9-6.8-33.8-9.6-56.1-27.5 c-7.7-6.2-14.9-12.3-21.8-18.2C206.5,526.6,181,505,146.1,505z" class="st3"/></g><g><path d="M205.8,693.3c-0.2,0-0.3,0-0.5,0c-3.8-0.2-7.4-2.5-11-7c-19.2-24.5-61.2-30.1-103.8-32.4 C57,652,33.1,640.3,23.5,620.8c-3.7-7.5-4.5-14.8-5.2-21.8c-1-9.4-1.9-18.2-9.5-27.3c-3.7-4.5-4.9-9.6-3.4-15.2 c3.4-13.4,20.8-26.5,36.2-32.5c20.7-8.1,80.4-11.9,134.1,2.5c11.6,3.1,27.1,18.1,42.1,32.7c13.7,13.3,27.9,27,39.1,31.7 c35.2,14.8,41.7,27.6,41,35.8c-0.8,8.9-11,16.6-26.6,20.2c-17.8,4-31.1,18.1-41.8,29.3C220.8,685.4,213.3,693.3,205.8,693.3z M98.3,517.8c-25,0-45.7,3-56.3,7.1c-15.2,5.9-32.3,18.8-35.6,31.8c-1.4,5.3-0.3,10.1,3.2,14.3c7.8,9.3,8.7,18.3,9.7,27.8 c0.7,6.9,1.5,14.1,5.1,21.5c9.5,19.1,33,30.6,66.3,32.5c42.8,2.4,85,8,104.5,32.8c3.4,4.3,6.7,6.4,10.2,6.6 c7.1,0.3,14.6-7.6,23.3-16.8c10.8-11.4,24.2-25.5,42.3-29.6c15.2-3.4,25.1-10.8,25.8-19.3c1-11.1-13.4-23.4-40.4-34.8 c-11.3-4.8-25.6-18.6-39.4-31.9c-14.9-14.4-30.4-29.4-41.7-32.4C149.4,520.5,121.9,517.8,98.3,517.8z" class="st3"/></g><g><path d="M208.8,666.7c-3.4,0-6.7-1.1-9.5-3.5c-11.1-9.3-25.7-16.1-44.8-20.8c-20.1-4.9-42.1-6.7-61.1-7.7 c-7.9-0.4-15.2-1.5-21.7-3.1c-16-3.9-27-11.2-31.9-21c-2.4-4.9-3-9.9-3.6-16.3c-1.1-10.3-2.4-23.1-13.2-36 c0-0.1-0.1-0.1-0.1-0.2l-0.1-0.2l0-0.2c0.1-0.4,0.9-3.9,6.8-9.4c5.2-4.9,12.6-9.5,19.7-12.2c18-7,72.1-9.7,119.3,1.9l-0.1,0.5 l0.1-0.5c1.6,0.4,3.1,0.8,4.6,1.2c7.5,2,23.4,17.4,35.1,28.7c15.5,15,30.1,29.1,44.1,35c7.9,3.3,14.6,6.7,19.9,10 c2.9,1.8,4.3,5.1,3.8,8.4c-0.6,3.3-3,5.9-6.3,6.6l-0.2,0.1c-22.6,5.1-38.4,21.8-50,34l-0.1,0.1 C216.6,665.2,212.7,666.7,208.8,666.7z M24,557.7c10.9,13.1,12.3,26.1,13.4,36.5c0.6,6.2,1.2,11.2,3.5,15.9 c4.7,9.5,15.5,16.6,31.2,20.5c6.4,1.6,13.6,2.6,21.5,3c19,1.1,41.2,2.8,61.3,7.8c19.2,4.7,34,11.6,45.2,21.1 c5.5,4.7,13.8,4.2,18.8-1l0.1-0.1c11.6-12.3,27.6-29.1,50.5-34.3l0.2,0c2.9-0.7,5-2.9,5.5-5.8c0.5-3-0.8-5.8-3.3-7.4 c-5.2-3.3-11.8-6.6-19.7-9.9c-14.1-5.9-28.8-20.2-44.4-35.2c-11.5-11.2-27.3-26.5-34.6-28.4c-1.5-0.4-3.1-0.8-4.6-1.2l0,0 c-47-11.6-100.8-8.9-118.7-1.9c-7,2.7-14.2,7.2-19.3,12C25.4,553.7,24.2,556.9,24,557.7z" class="st3"/></g><g><path d="M277.9,795.1c-3.1,0-6.5-0.6-10.2-1.8c-31.5-10.2-61.6-41.2-60.3-56.2c0.9-10.2,9.5-27.9,23.4-34.8 c10.6-5.2,22.4-3.8,35,4.2c18.9,11.9,26.1,23.6,28.8,31.2c2.8,7.8,1.6,13.1,1.3,14c1.6,11.3,2.7,31.4-7.2,39.7 C285.9,793.9,282.2,795.1,277.9,795.1z M243.9,700.3c-4.4,0-8.6,1-12.6,3c-14.7,7.3-22.1,25.7-22.9,34 c-1.3,14.4,29.3,45.3,59.6,55.1c8.7,2.8,15.5,2.2,20.2-1.7c9.9-8.3,8.1-30,6.8-38.9l0-0.1l0-0.1c0.1-0.2,5.9-21.7-29.7-44.2 C257.8,702.6,250.7,700.3,243.9,700.3z" class="st3"/></g><g><path d="M273.8,783.2c-15.7,0-45.5-27.3-50-36c-3.7-6.9-2.5-17.4,2.8-24.8c5.3-7.5,13.6-10.8,23.5-9.3 c24.5,3.6,33.1,39.6,33.4,56.5c0.1,7.6-2.2,12-6.9,13.3C275.7,783.1,274.8,783.2,273.8,783.2z M245.6,713.8 c-7.6,0-14,3.2-18.2,9.2c-5.1,7.2-6.2,17.2-2.7,23.8c4.4,8.3,34.1,35.4,49.1,35.4c0.9,0,1.7-0.1,2.5-0.3 c4.2-1.1,6.2-5.2,6.1-12.3c-0.3-16.6-8.7-52-32.5-55.5C248.4,713.9,247,713.8,245.6,713.8z" class="st3"/></g><g><path d="M182.6,620.8c-6.2,0-12.9-1.4-17.8-3.1c-11.3-3.9-28.8-3.6-45.7-3.3c-9.5,0.2-19.4,0.3-28.2-0.2 c-24.5-1.6-36.7-7.2-43.9-36.7c-1.3-5.3-0.1-10,3.7-13.8c15.4-16,68.7-14.6,94.1-9.3c29.1,6.1,36.5,17.7,43.7,29 c1,1.5,2,3.1,3,4.6c8.5,12.5,10.7,21.7,6.4,27.3C194.9,619.4,189,620.8,182.6,620.8z M132.5,613.3c12.4,0,24.2,0.6,32.6,3.5 c11.7,4,27,4.6,32.1-2.1c3.9-5.2,1.7-14.2-6.5-26.1l0,0c-1-1.5-2-3.1-3-4.6c-7.1-11.1-14.4-22.6-43.1-28.6 c-28.7-6-79.3-5.4-93.2,9c-3.5,3.6-4.6,7.9-3.4,12.9c7.1,28.9,19,34.4,43,35.9c8.8,0.6,18.6,0.4,28.1,0.2 C123.6,613.4,128.1,613.3,132.5,613.3z" class="st3"/></g><g><path d="M174.7,603.3c-1.1,0-2.6-0.3-4.5-1.3c-3.9-1.9-8.6-2.5-14.1-3.1l-0.9-0.1c-11.1-1.3-23.9-1.1-36.2-0.9 c-9.2,0.2-18.7,0.3-26.9-0.2c-2.3-0.1-4.4-0.3-6.3-0.6c-9-1.1-12.2-3.1-14.1-4.9c-0.2-0.2-0.4-0.3-0.5-0.5 c-3.3-3.5-4.4-8.3-2.9-13c1.5-4.7,5.5-8.3,10.4-9.2c2.5-0.5,5.3-0.9,8.2-1.2c12.8-1.4,29.1-1.2,43.4,0.5c4.2,0.5,8,1.1,11.4,1.8 c17.5,3.6,22.8,9.8,28.3,16.4c1.5,1.7,3,3.5,4.7,5.2l0,0c3.4,3.3,4.7,7.5,3.2,9.7C177.3,602.5,176.4,603.3,174.7,603.3z M132.6,596.7c7.8,0,15.5,0.2,22.6,1.1l0.9,0.1c5.6,0.7,10.4,1.2,14.4,3.2c3,1.5,5.3,1.6,6.3,0.3c1.1-1.6,0.3-5.1-3-8.4l0,0 c-1.8-1.7-3.3-3.5-4.8-5.3c-5.4-6.4-10.6-12.5-27.8-16c-3.3-0.7-7.1-1.3-11.3-1.8c-14.2-1.7-30.3-1.9-43.1-0.5 c-2.9,0.3-5.6,0.7-8.1,1.2c-4.5,0.8-8.2,4.1-9.6,8.5c-1.4,4.3-0.4,8.8,2.7,12c0.2,0.2,0.3,0.3,0.5,0.5c1.8,1.7,4.8,3.6,13.6,4.6 c1.9,0.2,3.9,0.4,6.2,0.6c8.1,0.5,17.6,0.4,26.8,0.2C123.4,596.8,128,596.7,132.6,596.7z" class="st3"/></g><g><path d="M128.9,803.1c-2.5,0-5-0.1-7.6-0.2c-25.9-1.4-56.4-9.9-88.2-24.6c-45.9-21.2-56.7-46.8-57.7-64.5 c-1.1-19.7,9.7-35.4,20.1-41.7c5.9-3.5,11.7-4.1,15.9-1.5c17.9,10.8,71.7,12.4,107.3,13.5c7.5,0.2,14.1,0.4,19.5,0.7 c33.2,1.5,42.6,26.7,45.1,37.4c1.7,7.5,2.4,13.1,3,19c0.5,4.7,1.1,9.5,2.2,15.6c2.4,13.4-2.1,25.4-12.9,33.7 C164.9,798.7,148.5,803.1,128.9,803.1z M5.4,670c-2.9,0-6.1,1-9.4,2.9c-10.2,6.1-20.6,21.5-19.6,40.8 c1,17.5,11.6,42.7,57.1,63.7c31.6,14.6,62,23.1,87.8,24.5c22.8,1.3,41.8-3.1,53.6-12.3c10.4-8.1,14.9-19.7,12.5-32.7 c-1.1-6.1-1.7-11-2.2-15.7c-0.7-5.9-1.3-11.5-3-18.9c-3-13-12.8-35.1-44.2-36.6c-5.4-0.3-11.9-0.4-19.4-0.7 c-35.7-1-89.6-2.6-107.8-13.6C9.3,670.5,7.4,670,5.4,670z" class="st3"/></g><g><path d="M130.3,793.2c-5.3,0-11.2-0.3-17.6-1.1c-22.8-2.8-48.1-10.5-75-22.9C-16,744.4-14.6,715.1-13.9,701 c0-0.9,0.1-1.7,0.1-2.4l0,0c0.3-9.6,14.6-13.1,24-15.4c7.3-1.8,19.4,0.3,29.1,2c3.4,0.6,6.5,1.1,9.2,1.5 c21.5,2.7,47,3.5,67.4,4.1l3.5,0.1c7.5,0.2,13.9,0.4,19.3,0.7c1.4,0.1,2.8,0.2,4.1,0.3c22.2,2.7,30.4,18.1,33.3,30.6 c1.6,7,2.2,12.1,2.8,18c0.5,4.8,1.1,9.8,2.2,16.2c1.6,8.8-0.5,16.3-6.2,22.4C170.7,783.7,158.3,793.2,130.3,793.2z M-12.8,698.6 c0,0.8-0.1,1.6-0.1,2.4c-0.7,13.9-2.1,42.8,50.9,67.3c26.9,12.4,52,20.1,74.7,22.8c40.1,4.9,56.4-7.3,61.6-12.8 c5.5-5.8,7.5-13.1,6-21.5c-1.2-6.4-1.7-11.4-2.3-16.2c-0.7-5.9-1.2-11-2.8-17.9c-2.8-12.2-10.7-27.2-32.4-29.9 c-1.3-0.2-2.7-0.3-4.1-0.3c-5.4-0.2-11.8-0.4-19.3-0.7l-3.5-0.1c-20.5-0.6-45.9-1.3-67.5-4.1c-2.7-0.3-5.8-0.9-9.2-1.5 c-9.6-1.7-21.6-3.8-28.7-2C1.4,686.4-12.5,689.7-12.8,698.6L-12.8,698.6z" class="st3"/></g><g><path d="M141.6,770.9c-37.7,0-102.8-30.3-117.2-40.6c-8.2-5.9-10.8-13.3-7-19.9c2.4-4.2,7-7.4,12.7-8.9 c6.2-1.6,12.9-1,19.1,1.6c15.6,6.8,44.6,8.3,68,9.5c9.7,0.5,18.1,0.9,24.1,1.6c20.4,2.5,28.6,26.3,27.4,38.9 c-0.7,7-4.2,12-10.5,14.9C153.7,770,148,770.9,141.6,770.9z M37.2,701.5c-8.5,0-15.8,3.9-18.9,9.3c-1.7,2.9-4.4,10.6,6.7,18.6 c16.7,12,102.5,51.3,132.7,37.6c6-2.7,9.3-7.4,9.9-14.1l0.5,0l-0.5,0c1.2-12.3-6.7-35.4-26.5-37.8c-6-0.7-14.4-1.2-24.1-1.6 c-23.4-1.2-52.5-2.7-68.3-9.6C44.9,702.3,40.9,701.5,37.2,701.5z" class="st3"/></g><g><path d="M677.6,825.8c-0.1,0-0.3-0.1-0.4-0.2c-0.9-1-1.7-2.1-2.6-3.1c-13.5-16.1-26.2-31.2-49.8-34.7 c-35.1-5.2-58.1,4.8-90.6,26.3c-0.2,0.2-0.5,0.1-0.7-0.1c-0.2-0.2-0.1-0.5,0.1-0.7c18.9-12.5,32.6-19.6,45.9-23.7 c14.3-4.4,28.7-5.3,45.4-2.8c23.9,3.5,36.8,18.8,50.4,35c0.9,1,1.7,2.1,2.6,3.1c0.2,0.2,0.2,0.5-0.1,0.7 C677.9,825.7,677.7,825.8,677.6,825.8z" class="st3"/></g><g><path d="M507.9,767.3c-31.1,0-46.5-18.9-51.1-25.7c-9.3-14-10.6-30.8-3.2-40.8c4.7-6.3,10.7-12.3,16.5-18.2 c15.3-15.4,29.8-30,22.1-49.2c-3.9-9.7-4.2-18.7-4.6-26.6c-0.6-14.6-1.1-26.1-21.5-36c-9.8-4.7-19.1-12.5-15.9-19.9 c3.2-7.6,18.9-11.2,41.5-2.9c18,6.6,29.1,7.5,37.1,8.1c9,0.7,14.4,1.1,21.6,8.9c7.1,7.7,10.7,13.1,13.6,17.4 c2.6,3.9,4.8,7.2,8.7,11c0.8,0.8,1.7,1.6,2.5,2.4c13.1,12.6,21,20.3,50.2,23.8c1.8,0.2,3.7,0.4,5.9,0.7 c18.3,2.1,49,5.6,74.9,16.2c31.6,13,46.7,33.1,45,59.6c-4.3,64.4-38.1,68.4-69.4,67c-21.4-0.9-45.2-13.5-52.1-27.3 c-2.6-5.3-2.4-10.4,0.6-14.7c5.3-7.5,12-11.3,17.9-14.6c6.8-3.8,12.2-6.9,12.5-14.2c0.2-4.3-3.5-9.2-10-13.7 c-13.3-9-35.9-14.2-53.5-6.5c-10.8,4.7-14.9,18.4-19.5,34.1c-7,23.6-15,50.3-47.9,58.4C521.6,766.5,514.4,767.3,507.9,767.3z M468.1,544.3c-9,0-15.2,2.7-17,7c-1.9,4.5,1.2,11.7,15.4,18.6c20.9,10.2,21.4,22.5,22,36.9c0.3,7.8,0.7,16.7,4.5,26.2 c7.9,19.8-7.5,35.3-22.3,50.3c-5.8,5.8-11.7,11.8-16.4,18.1c-7.2,9.7-5.9,25.9,3.2,39.6c5.4,8.1,26.4,33.6,71.7,22.5 c32.4-7.9,40.2-34.4,47.2-57.7c4.8-16,8.9-29.8,20.1-34.7c17.9-7.8,40.9-2.6,54.4,6.6c6.8,4.6,10.6,9.9,10.5,14.6 c-0.3,7.9-6.2,11.2-13,15c-5.8,3.3-12.4,7-17.5,14.3c-2.8,4-2.9,8.7-0.5,13.7c6.7,13.6,30.2,25.9,51.2,26.8 c15.4,0.7,31.3,0.1,43.9-8.3c14.5-9.8,22.6-28.7,24.5-57.8c1.7-26.1-13.2-45.8-44.3-58.6c-25.8-10.6-56.4-14.1-74.6-16.2 c-2.2-0.2-4.1-0.5-5.9-0.7c-29.5-3.6-37.5-11.3-50.8-24.1c-0.8-0.8-1.6-1.6-2.4-2.4c-4-3.8-6.2-7.2-8.8-11.1 c-3-4.5-6.4-9.7-13.5-17.3c-6.9-7.5-11.9-7.8-20.9-8.5c-8.1-0.6-19.2-1.5-37.4-8.1C482.5,545.7,474.6,544.3,468.1,544.3z" class="st3"/></g><g><path d="M503.2,748.9c-11.1,0-22.4-4.7-28.6-12.2c-4.6-5.5-6.1-11.9-4.4-18.5c2.6-10.2,13.7-12.8,24.4-15.4 c8.7-2.1,16.9-4,19.6-9.8c3.6-7.6,2.1-14.6,0.6-21.3c-1.1-4.8-2.1-9.4-1-13.7c1.2-5.2,5.5-8.8,10.1-8.6 c5.3,0.2,9.1,5.2,10.2,13.3c1.3,9.4,7.7,15.1,13.3,20.1c4.8,4.3,9,8,8.4,13.1c-1.2,10-6.6,18.6-7,19.2 c-8.9,19.6-25.4,32.5-43.1,33.7C504.8,748.8,504,748.9,503.2,748.9z M523.4,650.4c-4,0-7.6,3.2-8.7,7.8c-1,4.1,0,8.6,1,13.3 c1.5,6.6,3.1,14-0.7,22c-3,6.2-11.4,8.2-20.3,10.3c-10.4,2.5-21.2,5-23.6,14.7c-1.6,6.3-0.1,12.4,4.2,17.6 c6.5,7.8,18.6,12.5,30.2,11.7c17.3-1.1,33.5-13.8,42.2-33.1l0-0.1c0.1-0.1,5.7-8.7,6.9-18.8c0.5-4.5-3.5-8.1-8.1-12.2 c-5.5-4.9-12.3-10.9-13.6-20.7c-1.1-7.6-4.5-12.2-9.3-12.4C523.6,650.4,523.5,650.4,523.4,650.4z" class="st3"/></g><g><path d="M499.1,738.4c-0.5,0-0.9,0-1.4,0c-8.2-0.4-11.6-3.8-13-6.6c-2-4-1.1-9.3,2.3-14.1 c4.1-5.8,12.6-11.5,24.1-10.1c9.1,1.1,14.2,5.7,13.7,12.3c-0.4,4.5-3.4,9.3-8.2,12.8C511.7,736.4,505.5,738.4,499.1,738.4z M497.7,737.3c11.6,0.5,25.2-6.9,26.1-17.5c0.2-2.9-0.5-9.7-12.8-11.2c-11.1-1.3-19.2,4.1-23.2,9.7c-3.2,4.5-4,9.4-2.3,13 C487.4,735,491.6,737.1,497.7,737.3L497.7,737.3z" class="st3"/></g><g><path d="M688.9,754.8c-18.7,0-38.2-6.3-44-19.8c-4-9.4,0.3-13.6,7.6-20.8c4.6-4.5,10.3-10.1,15.9-19 c3.2-5,3.7-9.8,1.5-14.2c-6.8-13.3-36-19.3-48.3-20c-3.4-0.2-6.8-0.2-10.4-0.2c-15.9,0-32.3,0-53.3-16.9 c-11.4-9.2-11.6-18.6-10.7-23.5c1.3-6.8,6.1-12.5,12.3-14.5c5.6-1.8,11.3-0.3,15.9,4.1c11.1,10.7,39.7,16.2,56.7,19.5l2.6,0.5 c2.5,0.5,6.3,0.9,11.2,1.4c25.1,2.5,77.4,7.8,87.8,44.9c7.8,27.6-2.2,47.9-8.8,57.6c-7.8,11.4-19,19.7-28,20.6l0,0 C694.2,754.6,691.6,754.8,688.9,754.8z M564.1,606.2c-1.4,0-2.9,0.2-4.4,0.7c-5.8,1.9-10.4,7.3-11.6,13.7 c-0.9,4.6-0.7,13.7,10.3,22.5c20.7,16.7,37,16.7,52.7,16.7c3.6,0,7,0,10.5,0.2c6.5,0.4,17,2.1,27.3,5.6 c7.9,2.8,18.1,7.6,21.9,14.9c2.4,4.7,1.9,9.8-1.5,15.2c-5.7,8.9-11.4,14.6-16.1,19.2c-7.2,7-11.1,10.9-7.4,19.6 c4.9,11.4,24,21.5,51,18.8l0,0c8.6-0.9,19.6-8.9,27.2-20.1c6.5-9.5,16.3-29.5,8.6-56.7c-10.2-36.4-62-41.6-86.9-44.1 c-4.9-0.5-8.7-0.9-11.3-1.4l-2.6-0.5c-17.2-3.3-45.9-8.8-57.2-19.7C571.5,607.8,567.8,606.2,564.1,606.2z" class="st3"/></g><g><path d="M686.3,749.2c-3,0-6.1-0.2-9-0.5c-14.5-1.8-25.6-7.6-28.9-15.2c-2.1-4.9-1.3-6.1,6.1-13.4 c4.6-4.5,10.9-10.7,16.9-20.2c5.5-8.7,4.1-15.8,2-20.2c-8.7-18.4-44.9-23.2-49-23.7c-1.8-0.2-3.6-0.4-5.2-0.5 c-3.6-0.2-7.3-0.2-10.8-0.2c-5.2,0-10.5,0-15.9-0.7c-12.1-1.5-22.4-6-33.3-14.8c-7.5-6.1-10.2-13.2-7.5-19.7 c1.9-4.6,6.4-7.6,10.6-7.1c2,0.2,3.9,1.2,5.7,3c0.1,0,9,7,27.9,12c33.6,9,40.5,10.2,57.1,13.1c3.9,0.7,8.4,1.5,13.8,2.5 c30.2,5.5,52.3,19.1,57.7,35.5l0,0c7.4,22.6-0.1,40.8-7.8,52c-7.8,11.4-17.4,17.2-23.1,17.7 C691.2,749.1,688.7,749.2,686.3,749.2z M561.5,614c-3.5,0-7.1,2.6-8.7,6.5c-2.5,6,0.1,12.8,7.2,18.6 c10.7,8.7,20.8,13.2,32.8,14.6c5.3,0.6,10.6,0.6,15.8,0.7c3.5,0,7.2,0,10.9,0.2c1.6,0.1,3.4,0.3,5.2,0.5 c4.1,0.5,40.8,5.5,49.7,24.3c2.2,4.7,3.6,12.1-2.1,21.2c-6.1,9.6-12.4,15.8-17,20.3c-7.6,7.5-7.7,8.2-5.9,12.3 c3.2,7.3,13.9,12.9,28.1,14.7c5.3,0.6,10.9,0.7,16.2,0.2c5.5-0.5,14.8-6.2,22.4-17.3c7.6-11.1,15-28.9,7.7-51.1l0,0 c-5.3-16-27.1-29.4-56.9-34.9c-5.5-1-9.9-1.8-13.8-2.5c-16.6-2.9-23.5-4.1-57.2-13.2c-19.1-5.1-28.2-12.2-28.3-12.2 c-1.7-1.6-3.4-2.5-5.2-2.7C562,614,561.8,614,561.5,614z" class="st3"/></g><g><path d="M684.8,745.1c-2.7,0-5.4-0.2-7.8-0.5c-11.5-1.6-18.3-7.6-19.8-12.4c-0.6-2-0.3-3.8,1-4.9 c6.8-6.1,12.6-13.1,17.8-21.3c5.5-8.8,6.4-18.2,2.4-26.6c-10-21.1-46.9-26.6-54.2-27.5c-1.9-0.2-3.8-0.4-5.6-0.5 c-3.8-0.2-7.6-0.2-11.2-0.2l-2,0c-4.4,0-9.3,0-13.6,0c-7.3-0.1-16.1-6.2-19-9.3c-1.8-1.9-4.3-3.8-6.8-5.6 c-4.8-3.5-9.4-6.8-9.2-10.9c0.1-2.6,0.6-4.1,1.8-4.7c2.7-1.3,8,2.5,19.5,10.7l0.9,0.6c12,8.6,42.4,10.8,60.6,12 c6,0.4,10.7,0.8,13,1.2c6.4,1.2,14.7,4.3,23.5,7.6c3.5,1.3,7,2.6,10.5,3.8c17.1,6,27.1,14.7,30.4,26.7 c6.3,22.4-1.6,38.7-6.9,46.5c-7.2,10.6-15.4,14.6-18.3,14.8C689.4,745,687,745.1,684.8,745.1z M559.8,621.5 c-0.3,0-0.5,0.1-0.8,0.2c-0.8,0.4-1.2,1.6-1.2,3.8c-0.1,3.6,4.4,6.9,8.8,10.1c2.5,1.8,5.1,3.7,6.9,5.7c2.8,3,11.3,8.9,18.2,9 c4.3,0,9.2,0,13.6,0l2,0c3.6,0,7.4,0,11.2,0.2c1.8,0.1,3.7,0.3,5.6,0.5c7.4,0.9,44.7,6.4,54.9,28c4.1,8.7,3.3,18.5-2.5,27.6 c-5.3,8.3-11.2,15.4-18,21.5c-0.9,0.9-1.2,2.2-0.7,3.9c1.4,4.5,7.9,10.1,19,11.7c4.4,0.6,9.4,0.7,14.7,0.2 c2.7-0.3,10.6-4.1,17.6-14.4c5.2-7.6,13-23.6,6.8-45.6c-3.3-11.6-13-20.1-29.8-26c-3.5-1.2-7.1-2.6-10.6-3.8 c-8.7-3.2-17-6.3-23.3-7.5c-2.3-0.4-7-0.8-12.9-1.2c-18.3-1.3-48.9-3.4-61.1-12.2l-0.9-0.6C568.4,625.7,562.5,621.5,559.8,621.5 z M557.3,625.4L557.3,625.4L557.3,625.4z" class="st3"/></g><g><path d="M685.8,737.2c-0.1,0-0.2,0-0.3,0l0,0c-6.1-0.2-9.7-1.6-11.4-4.4c-1.9-3.2-1-8.1,2.7-14.9 c5.4-10.1,14.5-14.5,20.4-13.5c3.3,0.6,5.5,2.8,6,6.2c1,6.6-2,15.8-6.9,21.3C693.1,735.4,689.5,737.2,685.8,737.2z M685.4,736.2 c4.5,0.1,7.9-2.6,10-5c4.7-5.3,7.6-14.1,6.7-20.5c-0.4-2.9-2.3-4.8-5.2-5.3c-5.5-1-14.2,3.2-19.3,12.9 c-3.4,6.4-4.3,11.1-2.7,13.9C676.4,734.8,679.8,736,685.4,736.2L685.4,736.2z" class="st3"/></g><g><path d="M581.9,186.1c-9.9,0-21.7-5.8-31.9-19.3c-19-25.2-50.4-22.2-75.6-19.8c-9.3,0.9-17.3,1.7-23.5,0.9 c-16.9-2-24.9-5-26.9-10.1c-1.4-3.4,0.2-7.8,4.7-13.3c13.2-15.9,75.1-14.7,97.9-12.9c16.3,1.3,31.2,9.7,40.7,16.6 c11.9,8.5,22.8,19.7,30,30.8c4.7,7.3,5.6,17.4-3.1,23.5C590.8,184.8,586.6,186.1,581.9,186.1z M499.2,144.4 c19,0,38.2,4,51.6,21.7c14.7,19.5,32.7,22.5,42.9,15.4c7.2-5,8.3-13.7,2.8-22.1l0,0c-18.5-28.6-49.2-45.3-70-46.9 c-13.6-1.1-35-1.6-54.5,0c-22.6,1.9-37.3,6.2-42.6,12.6c-4.3,5.2-5.8,9.2-4.6,12.3c1.8,4.6,9.6,7.4,26.1,9.4 c6.1,0.7,14.1,0,23.3-0.9C482.1,145.2,490.6,144.4,499.2,144.4z" class="st3"/></g><g><path d="M494.1,137.6c-8.2,0-18.2-0.6-28.7-1.3c-2.7-0.2-5.1-0.3-7.2-0.5c-10.4-0.6-17.8-3.4-18-6.8 c-0.2-3.1,5.4-5.6,16-7.3c25.8-4.1,39.7-4.1,53.4,6.5c2.8,2.1,3.8,3.9,3.2,5.5C511.7,136.7,504.4,137.6,494.1,137.6z M481.5,120.2c-7,0-15.1,1-25.2,2.6c-14.3,2.3-15.2,5.4-15.2,6.3c0.1,2.4,6.5,5.2,17.1,5.8c2.1,0.1,4.5,0.3,7.2,0.5 c15.6,1.1,44.6,3,46.5-1.9c0.4-1-0.6-2.5-2.9-4.3l0,0C500.7,122.6,492.6,120.2,481.5,120.2z" class="st3"/></g><g><path d="M560.6,290.3c-9.3,0-16.7-1.2-21.2-3.6c-2.5-1.3-4.1-3-4.7-5c-1.4-4.5,3.5-10.4,9.7-17.8 c9.5-11.4,22.6-26.9,21.5-47.5c-0.4-7.6,2-13.1,7-16.6c10.8-7.4,33.4-4.1,63.6,9.3c7.7,3.4,15.7,6.4,23.5,9.3 c20.2,7.5,37.7,14,42.3,25.2c1.8,4.5,1.4,9.4-1.2,14.9c-15.1,31.8-53,25.5-68.6,21.3c-21.9-5.9-26.2-2.9-32.2,1.1 c-2.6,1.8-5.6,3.8-10.5,5.4c-6.6,2.1-16.6,3.6-26,3.9C562.8,290.2,561.7,290.3,560.6,290.3z M588.5,196.9 c-6.3,0-11.3,1.2-14.9,3.7c-4.7,3.2-6.9,8.5-6.5,15.7c1.1,21-12.1,36.7-21.8,48.2c-6,7.2-10.8,12.9-9.5,16.9 c0.5,1.7,2,3.2,4.2,4.4c10.7,5.6,37,3.6,49.6-0.5c4.7-1.5,7.6-3.5,10.2-5.3c6.2-4.2,10.7-7.3,33-1.3 c15.4,4.1,52.7,10.4,67.5-20.7c2.5-5.3,2.9-9.9,1.2-14.1c-4.4-10.8-22.5-17.5-41.7-24.6c-7.8-2.9-15.8-5.9-23.5-9.3 C616.6,201.3,600.3,196.9,588.5,196.9z" class="st3"/></g><g><path d="M654.4,272.8c-10.7,0-22.2-2-31.1-4.6l0,0c-4.1-1.2-6.7-0.9-13.6-0.1c-4.5,0.5-10.7,1.2-20.3,1.9 c-13.9,0.9-19.4-3.4-21.6-7.2c-2.6-4.5-1.4-9.3-0.1-11.4c3.5-5.3,13.1-13.9,26.5-12.3c5.5,0.7,9.3-2.8,13.6-6.8 c6.1-5.7,13.8-12.8,29.4-10.2c23.4,3.9,39.6,11.5,45.7,21.4c2.9,4.7,3.5,9.9,1.8,15.4C681.4,269.2,668.6,272.8,654.4,272.8z M623.6,267.2c11.7,3.4,25,5.1,35.6,4.4c9.5-0.6,21.5-3.3,24.5-13.1c1.6-5.2,1.1-10.1-1.7-14.5c-5.9-9.7-21.9-17.1-45-20.9 c-15.2-2.5-22.3,4.1-28.6,9.9c-4.5,4.2-8.4,7.8-14.4,7.1c-16.2-2-25.2,11.3-25.5,11.8c-1.3,2-2.1,6.5,0.1,10.3 c2.1,3.5,7.3,7.6,20.7,6.7c9.6-0.6,15.8-1.3,20.3-1.9C616.7,266.3,619.4,266,623.6,267.2L623.6,267.2z" class="st3"/></g><g><path d="M658.9,264.3c-9,0-26.7-4.2-37.3-6.7l-1.6-0.4c-4-0.9-6.4-3.5-6.3-6.7c0.1-4.7,5.3-10.5,16.8-12.9 c15.1-3.1,33.7-4.2,43.2,14.8c1.2,2.5,1.3,4.7,0.1,6.6c-2.4,3.9-9.2,5.3-14.8,5.3C659,264.3,659,264.3,658.9,264.3z M645.4,236.9c-4.4,0-9.3,0.6-14.7,1.7c-10.9,2.2-15.9,7.7-16,11.9c0,2.8,2,4.9,5.6,5.7l1.6,0.4c10.6,2.5,28.2,6.7,37.1,6.7 c0,0,0.1,0,0.1,0c6.8,0,12.1-1.9,13.9-4.8c1-1.6,0.9-3.5-0.2-5.6C667.4,242.1,658.7,236.9,645.4,236.9z" class="st3"/></g><g><path d="M653.9,257.8c-7.1,0-15.9-2.8-17.2-6.6c-0.4-1-0.3-2.6,1.8-4.3c6.2-4.8,16.3-3.2,25.8,4.2l0,0 c1.8,1.4,2.5,2.6,2.1,3.7c-0.7,2-4.9,3-12.5,3C653.9,257.8,653.9,257.8,653.9,257.8z M647,245.2c-3,0-5.7,0.8-7.9,2.5 c-1.4,1.1-1.9,2.1-1.5,3.2c1.1,3.1,9,6,16.3,5.9c10,0,11.3-1.8,11.5-2.3c0.2-0.6-0.4-1.5-1.8-2.6l0,0 C658,247.5,652.1,245.2,647,245.2z" class="st3"/></g><g><path d="M797,474.2c-6.3,0-12.7-0.4-19.3-1.3c-80.1-10.9-92.7-59.6-94.7-100.8c-1.2-23.9-19.8-33.1-36.3-41.2 c-11.6-5.7-21.6-10.7-23-19.8c-0.6-4.1,0.1-7.4,2.2-9.7c5.2-5.8,18.3-5.1,30.9-4.5c6.7,0.3,13.6,0.7,19.3,0.1 c19.1-2.1,46.6-20.3,46.3-47.6c-0.3-27.5-20.6-42-39.6-46.5c-22.2-5.2-47.1-28.5-63.4-59.4c-6.1-11.6-5.7-24.1,1.4-35 c12.2-18.9,40.9-30,73.3-28.1c41,2.3,75.6,23.3,82.2,41.4c2.1,5.7,1.1,10.6-2.8,14.4c-11.3,10.6-24.2,27.9-21.4,49.9 c2.9,23.2,7.2,38.8,42.6,61c5.1,3.2,12.7,6.4,21.6,10.2c34.8,14.8,87.4,37.1,88.7,96c0.8,39.4-12.3,73.4-37.1,95.5 C848.9,465.5,824.7,474.2,797,474.2z M644.8,297.5c-8,0-14.9,0.9-18.3,4.6c-1.9,2.1-2.6,5-2,8.9c1.3,8.6,11.1,13.4,22.5,19 c15.9,7.8,35.6,17.5,36.8,42c2,40.8,14.5,89.1,93.9,99.9c35.5,4.8,66.4-3.5,89.4-24c24.6-21.9,37.6-55.6,36.8-94.7 c-1.2-58.3-53.5-80.4-88.1-95.1c-8.9-3.8-16.6-7-21.7-10.2c-35.8-22.4-40.2-38.2-43.1-61.7c-2.2-17.7,5.3-35.3,21.7-50.7 l0.3,0.4l-0.3-0.4c3.6-3.4,4.5-8,2.6-13.3c-7.9-21.7-49.2-38.9-81.3-40.8c-32-1.8-60.5,9-72.4,27.7c-6.8,10.6-7.3,22.7-1.3,34 c16.1,30.6,40.7,53.7,62.7,58.9c19.3,4.5,40.1,19.4,40.3,47.4c0.3,27.9-27.8,46.5-47.2,48.7c-5.7,0.6-12.7,0.3-19.4-0.1 C652.7,297.7,648.6,297.5,644.8,297.5z" class="st3"/></g><g><path d="M801,464.7c-5.2,0-10.4-0.3-15.8-1c-0.7-0.1-1.4-0.2-2.1-0.3c-67.6-9.2-76.1-47-84.3-83.5 c-0.6-2.6-1.2-5.2-1.8-7.8l0,0c-5.2-22.2-17.5-32.4-26.5-39.9c-3-2.5-5.5-4.6-7.5-6.8c-3.7-4.2-3.5-7.4-2.7-9.4 c2-4.8,9.8-8.1,21-8.7c11.7-0.7,25.3-7.1,36.3-17.2c12.3-11.2,19-25.5,18.8-40.4c-0.3-33.2-24.6-50.8-47.2-56.1 c-8.7-2-18.8-8.1-28.6-16.9c-10.8-9.9-20.6-22.8-28.3-37.4c-4.5-8.6-4.2-17,0.9-25c4.6-7.1,12.9-13.4,23.3-17.6 c11.9-4.8,26.1-6.8,41-6c2.7,0.2,5.4,0.4,8,0.7c31.6,3.8,52.6,19,58.7,31.4c1.5,3,2.8,7.2,0.7,10.6c-1.8,3.1-4,5.9-6.2,8.9 c-7.5,10-15.2,22.7-12.4,46.2c3.4,29.5,12,49,47.3,67.4c5.7,3,13.1,6.4,21.4,9.8C832,273,853,281.8,870,295.8 c19.1,15.8,28.6,34.8,29.1,58.1c0.8,36.2-11.1,67.2-33.3,87.4C848.7,456.8,826.5,464.7,801,464.7z M691.1,91.6 c-12.4,0-24.1,2.1-34.1,6.1c-10.3,4.1-18.4,10.2-22.9,17.2c-4.9,7.7-5.2,15.7-0.9,23.9c7.6,14.4,17.3,27.2,28.1,37.1 c9.6,8.8,19.6,14.7,28.1,16.7c23,5.4,47.7,23.2,48,57c0.1,15.2-6.7,29.8-19.2,41.2c-11.2,10.2-25.1,16.8-37,17.5 c-10.8,0.6-18.3,3.7-20.1,8.1c-1,2.5-0.2,5.3,2.5,8.4c2,2.2,4.5,4.3,7.4,6.7c9.1,7.5,21.5,17.9,26.9,40.4 c0.6,2.6,1.2,5.2,1.8,7.8c8.2,36.2,16.6,73.7,83.5,82.8c0.7,0.1,1.4,0.2,2.1,0.3c31.9,3.9,59.5-3.8,79.8-22.2 c22-20,33.8-50.7,33-86.6c-0.5-23-9.9-41.8-28.8-57.4c-16.8-13.9-37.8-22.6-54.6-29.7c-8.3-3.5-15.7-6.9-21.5-9.9 c-35.7-18.7-44.4-38.4-47.8-68.2c-2.8-23.8,5.1-36.7,12.6-46.9c2.2-3,4.3-5.8,6.1-8.9c1.8-3,0.6-7-0.7-9.7 c-6-12.2-26.7-27-57.9-30.8c-2.6-0.3-5.3-0.6-7.9-0.7C695.4,91.7,693.2,91.6,691.1,91.6z" class="st3"/></g><g><path d="M733.2,207.5c-4.9,0-13.1-4.9-21.3-15.4c-4.9-6.3-13.7-10.3-23.1-14.7c-13.5-6.2-28.9-13.3-36-28.8 c-4.5-9.6-2.8-20,4.7-29.1c11.3-13.8,32-20.7,49.3-16.6c29.1,7,29.4,11.7,30.5,29.4l0.1,1.6c0.5,8.3-0.3,15.1-1.2,21.7 c-1.3,10.4-2.6,20.3,1.2,35.6c2.2,8.8,1.6,14.2-1.9,15.9C734.8,207.4,734,207.5,733.2,207.5z M696.3,102.8 c-14.3,0-29.2,6.5-38.1,17.4c-7.2,8.8-8.9,18.8-4.6,28.1c7,15.2,22.2,22.2,35.6,28.4c9.5,4.4,18.4,8.5,23.5,15 c8,10.2,18,16.8,22.4,14.6c2.9-1.4,3.4-6.5,1.3-14.7c-3.8-15.5-2.5-25.9-1.2-35.9c0.8-6.5,1.7-13.3,1.2-21.5l-0.1-1.6 c-1.1-17.6-1.4-21.7-29.7-28.5C703.1,103.1,699.7,102.8,696.3,102.8z" class="st3"/></g><g><path d="M716.7,189.3c-1,0-1.9-0.4-2.6-1.3l-0.1-0.1c-6.4-8.2-16.3-12.7-26.8-17.6c-12.6-5.8-25.5-11.8-31.2-24 c-2.6-5.7-1.8-11.5,2.4-17.4c7.4-10.2,23.1-16.7,36.5-15.1c1.4,0.2,2.7,0.4,3.7,0.7l0,0c19.5,4.3,20.1,7.3,22.2,17 c0.2,1,0.4,2.1,0.7,3.3l0.1,1.7c0.5,7.3-0.3,13.4-1.1,19.8c-1,8.1-2.2,17.3-0.5,29.1c0.2,1.6-0.6,3-2,3.6 C717.6,189.2,717.2,189.3,716.7,189.3z M715,187.4c0.8,1,2,1,2.7,0.7c0.8-0.3,1.6-1.2,1.4-2.5c-1.7-12-0.5-21.2,0.5-29.4 c0.8-6.4,1.6-12.4,1.1-19.6l-0.1-1.6c-0.3-1.1-0.5-2.2-0.7-3.2c-2-9.5-2.6-12.1-21.4-16.3l0,0c-1-0.2-2.3-0.5-3.6-0.6 c-13-1.6-28.3,4.8-35.6,14.7c-4,5.5-4.8,11-2.3,16.4c5.5,11.9,18.3,17.8,30.7,23.5C698.3,174.3,708.3,178.9,715,187.4l-0.4,0.3 L715,187.4z" class="st3"/></g><g><path d="M698.4,165c-5.1,0-13.4-3.9-21.4-7.6c-2.1-1-4.1-1.9-6.1-2.8c-6.9-3.1-10.8-8.3-10.3-13.6 c0.6-5.1,5.2-9.2,12-10.6c13.6-2.8,25.5,7.5,30.2,26.2l0,0c0.9,3.6,0.6,6.1-1,7.4C701.1,164.7,699.9,165,698.4,165z M677,131 c-1.4,0-2.7,0.1-4.2,0.4c-6.4,1.3-10.7,5-11.2,9.7c-0.5,4.9,3.2,9.7,9.7,12.6c1.9,0.9,4,1.8,6.1,2.8c9.6,4.5,20.4,9.6,23.9,6.7 c1.2-1,1.5-3.2,0.7-6.3l0,0C697.9,140.7,688.3,131,677,131z" class="st3"/></g><g><path d="M771.1,452.1c-0.7,0-1.3,0-2-0.1c-11.2-0.6-21.9-6.6-32.7-18.3c-21.4-23.1-29.4-60.2-30.7-76.5 c-0.7-8.8-4.4-14.1-7.7-18.8c-3.2-4.6-6-8.6-4.7-14.4c1.3-5.9,8.2-9,15.5-12.2c7.3-3.2,14.9-6.6,18-13.1 c2.2-4.6,6.2-8.5,10.4-12.6c7.8-7.6,15.9-15.5,12.2-28.7c-1.9-6.8-1.4-11.1,1.5-12.8c4.1-2.4,14.3,1.4,26.1,13.2 c14.4,14.4,53.1,29.6,53.5,29.8l0,0c44.8,22.7,67.9,45.3,53.3,93.6c-8.6,28.5-26.7,34-45.9,39.9c-11.1,3.4-22.6,6.9-32.3,15.3 C793.5,447,782.1,452.1,771.1,452.1z M754,244.9c-1,0-1.8,0.2-2.5,0.6c-2.4,1.4-2.8,5.5-1.1,11.7c3.8,13.8-4.5,21.9-12.5,29.7 c-4.1,4-8,7.9-10.2,12.3c-3.2,6.8-11,10.3-18.5,13.6c-7.1,3.1-13.7,6.1-14.9,11.5c-1.2,5.4,1.3,9,4.5,13.6 c3.4,4.8,7.2,10.2,7.9,19.3c1.2,16.2,9.2,53,30.4,75.9c21.5,23.2,43.1,24,68,2.4c9.8-8.5,21.4-12,32.6-15.5 c18.9-5.8,36.7-11.2,45.2-39.2c12.7-42-1.1-66.2-52.8-92.4c-1.1-0.4-39.5-15.6-53.9-30C768,250.2,759.1,244.9,754,244.9z" class="st3"/></g><g><path d="M766.9,434.5c-0.7,0-1.5,0-2.2-0.1c-8.1-0.6-15.1-4.5-20-11.3c-9.3-12.8-10.3-27.1-11.2-40.9 c-0.5-7.2-0.9-14-2.5-20.6c-3.5-14.2,2.8-31.2,19.2-51.9c8.1-10.2,9.5-20.3,10.5-27.7c0.9-6.6,1.6-11.4,6.4-12.5 c7.2-1.8,13.8,2.8,22.9,9.2c3.4,2.4,7.3,5.1,11.7,7.9c3.4,2.1,7.4,4.3,11.7,6.6c24,13,56.8,30.8,52.6,74.2 c-3.5,35.2-27.5,40.7-46.9,45.1c-8.8,2-16.4,3.7-20.5,7.9C789.8,429.1,777.6,434.5,766.9,434.5z M750.5,310l0.4,0.3 c-16.2,20.5-22.4,37.2-19,51.1c1.6,6.6,2.1,13.5,2.5,20.7c0.9,13.7,1.8,27.8,11,40.4c4.9,6.7,11.4,10.3,19.3,10.9 c10.9,0.8,23.9-4.7,32.9-13.9c4.3-4.4,12-6.2,21-8.2c19-4.3,42.7-9.7,46.1-44.2c4.2-42.7-28.3-60.3-52-73.2 c-4.3-2.3-8.3-4.5-11.7-6.6c-4.5-2.8-8.3-5.5-11.7-7.9c-9.2-6.4-15.3-10.7-22.1-9.1c-4.1,1-4.7,5.3-5.6,11.7 c-1,7.5-2.4,17.8-10.7,28.2L750.5,310z" class="st3"/></g><g><path d="M777.7,327.5c-2.4,0-4.4-0.6-6-1.9c-3-2.4-4.3-7.1-4.2-14.6c0.1-14.4,2.3-22.7,6.6-24.9 c2.1-1.1,4.6-0.6,7.5,1.5l0,0c8.8,6.3,10.8,18.6,9,27.4c-1.4,6.7-4.8,11.2-9.2,12.1C780.1,327.3,778.8,327.5,777.7,327.5z M776.3,286.5c-0.7,0-1.3,0.1-1.8,0.4c-3.8,1.9-5.9,10.2-6,24c-0.1,7.2,1.2,11.6,3.9,13.8c2,1.7,4.9,2.1,8.8,1.3 c3.9-0.8,7-5,8.4-11.3c1.8-8.5-0.1-20.4-8.6-26.4l0,0C779.3,287.1,777.7,286.5,776.3,286.5z" class="st3"/></g><g><path d="M764.8,423.6c-2,0-3.9-0.3-5.8-1c-14.4-5.2-14.7-16.6-15-32.3l0-1.6c-0.2-11.1,3.7-22.3,9.9-27.9 c2.7-2.4,5.6-3.5,8.4-3.2c3.7,0.4,7.6,4.1,12.2,8.4c7.2,6.8,15.5,14.4,25,11.4c1.4-0.5,2.9-0.9,4.3-1.3 c13.9-4.4,24-7.5,24.9-19.2c0.7-10,5.5-13.7,8.3-15c4-1.9,8.7-1.4,12.4,1.3c3.8,2.7,5.6,7.1,5,12.1c-0.2,1.8-0.4,3.8-0.6,5.8 c-1.4,13-3.1,29.1-10.3,34.8c-2.2,1.7-4.7,2.4-7.6,2.1c-1.5-0.2-2.8-0.4-4-0.5c-11.4-1.5-13.4-1.7-27.9,5.9l0,0 c-3.3,1.7-7,4.3-10.9,7.1C784,416.7,774.1,423.6,764.8,423.6z M761.3,358.6c-2.3,0-4.6,1-6.8,3c-5.9,5.4-9.8,16.3-9.5,27.2 l0,1.6c0.3,15.3,0.5,26.3,14.3,31.3c10.4,3.8,22.4-4.6,33-12c3.9-2.8,7.7-5.4,11-7.1l0,0c14.8-7.8,17.1-7.5,28.5-6 c1.2,0.2,2.6,0.3,4,0.5c2.6,0.3,4.9-0.3,6.8-1.9c6.9-5.5,8.6-21.4,9.9-34.2c0.2-2.1,0.4-4,0.6-5.8c0.6-4.6-1.1-8.6-4.6-11.2 c-3.4-2.5-7.7-2.9-11.4-1.2c-4.5,2.1-7.3,7.1-7.8,14.2c-0.9,12.3-11.8,15.8-25.5,20.1c-1.4,0.4-2.8,0.9-4.2,1.3 c-10.1,3.2-18.9-5-26-11.6c-4.3-4-8.3-7.7-11.6-8.1C761.9,358.7,761.6,358.6,761.3,358.6z M803.6,403L803.6,403L803.6,403z" class="st3"/></g><g><path d="M761.7,413.9c-1.5,0-2.9-0.4-4.2-1.3c-5.6-3.6-7.7-13.9-7-19.6c0.6-5.2,4.1-16.6,10.8-19 c3.3-1.2,6.9,0,10.6,3.6l0,0c3.7,3.5,5.8,11.3,5,18.5c-0.7,6.9-4,12.5-9.1,15.7C765.6,413.2,763.6,413.9,761.7,413.9z M763.8,374.6c-0.7,0-1.5,0.1-2.2,0.4c-5.6,2-9.4,12-10.1,18.1c-0.7,5.6,1.5,15.4,6.5,18.6c2.6,1.7,5.7,1.4,9.2-0.8 c4.9-3,8-8.3,8.7-15c0.7-6.8-1.3-14.4-4.7-17.7l0,0C768.6,375.9,766.1,374.6,763.8,374.6z" class="st3"/></g><g><path d="M949.7,353.9c-22.7,0-35.2-28.5-44-48.2c-2-4.5-3.9-8.7-5.6-12.1c-14.7-28.4-53.1-48-81.5-56.2 c-18.6-5.3-31.4-16.5-36.1-31.4c-4.7-15.2-0.6-32.8,11-46.9c10-12.1,27.9-16.3,51.8-12.1c20,3.6,43.6,13,64.7,26 c16.3,10,41.6,12.7,60.1,14.6c8.7,0.9,16.2,1.7,21,3c44.7,12.2,42.8,34.9,39.8,72.5c-0.5,6.5-1.1,13.1-1.4,20.4 c-2.3,45.5-28.9,54.6-59.6,65.2c-3.1,1.1-6.3,2.2-9.5,3.3C956.6,353.3,953,353.9,949.7,353.9z M828.3,146.4 c-12.6,0-25.6,3.1-34,13.3c-11.4,13.9-15.5,31.1-10.8,46c4.6,14.6,17.1,25.5,35.4,30.8c19.8,5.7,38.1,14.4,52.9,25.1 c13.2,9.6,23.6,20.8,29.1,31.5c1.8,3.4,3.6,7.7,5.6,12.2c9.1,20.5,21.1,47.6,42.9,47.6c3.3,0,6.8-0.6,10.5-1.9 c3.2-1.1,6.4-2.2,9.5-3.3c30.4-10.4,56.7-19.4,59-64.3c0.4-7.2,0.9-13.9,1.4-20.4c3-37.1,4.8-59.4-39-71.4 c-4.7-1.3-12.2-2.1-20.8-3c-18.6-2-44-4.7-60.5-14.8c-21-12.9-44.5-22.3-64.4-25.8C840,147,834.2,146.4,828.3,146.4z" class="st3"/></g><g><path d="M944.2,168.5c-7.2,0-14.4-1.4-21.2-4.3l-0.8-0.3c-13.2-5.6-24.2-13.1-33.9-19.7c-9.5-6.4-17.6-12-25.9-14.7 c-27-8.8-39.2-7.4-48.1-6.4c-1.5,0.2-2.9,0.3-4.3,0.4c-1.6,0.1-3.2,0.4-4.8,0.7c-8.8,1.4-18.7,3.1-28.2-15.7 c-10.9-21.6-70.3-38.8-95.4-34.9l-0.9,0.1c-25.8,4-64.8,9.9-69.1,45.9c-1.1,9.4-2.5,13.4-4.7,14.1c-2.4,0.8-5.4-2.3-10.2-7.6 c-8.1-8.7-21.8-23.4-44.7-30c-24.6-7-34.3-33.7-29.5-55.5c5-22.8,26.4-44.7,71.3-37.7c165.6,26,203.2,13,243-0.8l0.5-0.2 C866.7-8,946.5,10.1,984.5,41.9c15.7,13.1,22.5,26.9,20.3,41c-2,12.8-4,25.6-5.8,38.1l0,0c-2.5,17.1-12.6,31.8-27.6,40.3 C963,166.1,953.6,168.5,944.2,168.5z M825.3,121.4c8.3,0,19.7,1.4,37.4,7.2c8.4,2.7,16.7,8.3,26.2,14.8 c9.7,6.6,20.6,14,33.7,19.6l0.8,0.3c15.6,6.5,32.9,5.4,47.6-2.9c14.8-8.4,24.6-22.8,27.1-39.6l0.5,0.1l-0.5-0.1 c1.8-12.4,3.8-25.2,5.8-38.1c2.1-13.7-4.6-27.2-19.9-40C946.1,11,866.8-7,837.4,3.1l-0.5,0.2C797,17.1,759.3,30.2,593.5,4.1 c-44.2-6.9-65.2,14.5-70.2,36.9c-4.7,21.3,4.8,47.4,28.8,54.3c23.2,6.7,37,21.4,45.2,30.2c4.3,4.6,7.3,7.9,9.2,7.3 c1.7-0.6,2.9-4.6,4-13.3c4.4-36.7,45.4-43,69.9-46.8l0.9-0.1c25.3-3.9,85.4,13.5,96.4,35.5c9.1,18.1,18.3,16.6,27.2,15.1 c1.7-0.3,3.3-0.5,4.9-0.7c1.4-0.1,2.8-0.3,4.3-0.4C817.3,121.8,820.9,121.4,825.3,121.4z" class="st3"/></g><g><path d="M934,294c-9.8,0-18.6-3.4-22.2-9.5c-1.2-2-2.4-4.1-3.5-6.1c-16.9-30.3-37.4-35.5-57.2-40.5 c-27.4-7-43-15.6-49.1-27.2c-3.9-7.4-3.9-16.2-0.1-26.8c3.1-8.5,9.1-14.6,18-18.1c14.1-5.7,34.1-4,51.1,4.2 c19.4,9.4,33.3,13.3,50.8,18.1c4.2,1.1,8.5,2.3,13.2,3.7c23.4,6.7,32.8,19.7,37.2,51.4c4.7,34.5-15.3,45.4-24.1,48.5 C943.4,293.2,938.6,294,934,294z M838.8,163.4c-6.7,0-13.1,1.1-18.6,3.3c-8.5,3.5-14.4,9.4-17.4,17.6c-3.8,10.3-3.8,18.8,0,26 c6,11.3,21.4,19.8,48.5,26.7c40.7,10.4,49.4,26,57.8,41c1.1,2,2.3,4.1,3.5,6.1c5,8.4,21.4,11.5,35,6.7 c8.6-3,28.1-13.7,23.5-47.4c-4.8-35.1-16.5-44.8-36.5-50.5c-4.7-1.3-9-2.5-13.1-3.7c-17.6-4.8-31.5-8.7-51-18.2 C860.4,165.9,849.1,163.4,838.8,163.4z" class="st3"/></g><g><path d="M937.3,281.6c-2.1,0-4.2-0.4-6.3-1.3c-7.2-3-13.6-11.4-11.6-23.2c0.7-4-0.4-7.8-3.1-11.3 c-9.2-11.8-36.7-19.2-60-21.2c-25.9-2.3-32.1-13.1-33.7-29.9c-0.4-4.2,1-7.5,4-9.3c7.2-4.4,23.2-0.8,38,8.6 c9.7,6.2,19.1,7.1,30.1,8.2c12,1.2,25.6,2.6,43,11.1c10.8,5.3,17.5,13.1,20,23.1c4.1,16.9-5,34.2-8.9,39.5 C946,279.5,941.8,281.6,937.3,281.6z M834.8,184.2c-3.1,0-5.7,0.6-7.7,1.8c-2.8,1.7-4,4.5-3.6,8.4c1.6,16.3,7.7,26.8,32.8,29 c23.4,2,51.3,9.5,60.7,21.6c2.9,3.8,4,7.8,3.3,12.1c-1.9,11.3,4.2,19.3,11,22.2c6.3,2.6,12.8,1,16.5-4.2l0,0 c3.8-5.2,12.7-22.2,8.7-38.7c-2.4-9.7-8.9-17.3-19.4-22.5c-17.2-8.5-30.7-9.8-42.6-11c-11.1-1.1-20.7-2.1-30.5-8.4 C853.6,188,842.7,184.2,834.8,184.2z" class="st3"/></g><g><path d="M864.5,216.6c-0.1,0-0.1,0-0.2,0c-8.4-0.1-23.2-1.1-27.7-6.7c-1.2-1.5-1.6-3.3-1.2-5.2 c0.4-2.1,1.5-3.6,3.2-4.5c5.6-2.9,16.9,2.1,26,6.1l1.9,0.8c3.9,1.7,5.9,3.9,5.5,6C871.4,215.3,868.5,216.6,864.5,216.6z M842.7,200.4c-1.4,0-2.7,0.2-3.7,0.8c-1.4,0.7-2.3,2-2.6,3.8c-0.3,1.7,0,3.1,1,4.4c4.5,5.5,20.3,6.3,26.9,6.3 c4.2,0,6.3-1.3,6.6-2.7c0.3-1.6-1.5-3.4-4.9-4.9l-1.9-0.8C857.3,204.2,848.5,200.4,842.7,200.4z" class="st3"/></g><g><path d="M364.5,115c-4.3,0-9.1-1.4-14.4-4.1c-14.7-7.7-20.2-13.9-24.6-18.9c-3.9-4.4-6.7-7.5-14.1-9.4 c-4.6-1.2-8.9-2.4-13-3.5c-7.4-2-13.9-3.8-18.6-4.6c-5.4-0.9-9.3-3.3-10.3-6.5c-0.6-1.8-0.2-3.6,1.1-5c2.8-3,8.7-3.6,15.9-1.8 c18.2,4.8,46.1,6.9,63.6,4.8c1.8-0.2,3.7-0.5,5.6-0.7c10.3-1.4,21-2.9,26.8,2c2.8,2.4,4.2,6,4.3,11.1c0.3,11.9-3,27.9-13,34.1 C370.9,114.2,367.8,115,364.5,115z M278.9,61.2c-3.4,0-6.1,0.8-7.6,2.5c-1.1,1.1-1.4,2.6-0.9,4c0.9,2.8,4.5,5,9.6,5.8 c4.8,0.8,11.3,2.6,18.7,4.6c4.2,1.1,8.5,2.3,13,3.5c7.7,2,10.6,5.2,14.6,9.7c4.4,4.9,9.8,11.1,24.3,18.7 c9.1,4.7,16.7,5.3,22.6,1.6c9.6-6,12.7-21.6,12.5-33.2c-0.1-4.8-1.4-8.2-4-10.4c-5.4-4.6-15.9-3.2-26-1.8 c-1.9,0.3-3.8,0.5-5.6,0.7c-17.5,2.1-45.6,0-63.9-4.8C283.5,61.5,281,61.2,278.9,61.2z" class="st3"/></g><g><path d="M363.7,108.3c-4.6,0-10.7-2.5-16.3-7.1l0,0c-4-3.3-7.6-6.5-10.7-9.3c-7.2-6.4-12.9-11.5-18.2-13.3 c-2.8-1-2.9-2.2-2.7-2.8c0.8-3.3,14.1-6,41.1-1.6c11.8,1.9,18.8,5.9,20.7,11.8c2.8,8.7-6.4,18.6-8.3,20.5 C368,107.7,366,108.3,363.7,108.3z M348.1,100.4c7.8,6.4,17,8.8,20.5,5.2c1.8-1.8,10.7-11.3,8-19.5c-1.8-5.5-8.5-9.2-19.9-11.1 c-26.7-4.3-39.4-1.5-40,0.9c-0.1,0.5,0.7,1.2,2.1,1.7c5.5,1.9,11.3,7,18.6,13.5C340.5,93.9,344.1,97.1,348.1,100.4L348.1,100.4z" class="st3"/></g><g><path d="M363.3,101.3c-0.9,0-1.8-0.3-2.9-1l0,0c-6-3.7-10.6-10.4-9.9-14.5c0.2-1.2,1-2.7,3.4-3.2 c1-0.2,1.9-0.4,2.8-0.6c5-1.2,8.3-1.9,9.8,2.7c1.1,3.4,2.1,13.3-1.2,16C364.7,101.1,364,101.3,363.3,101.3z M360.9,99.4 c1.6,1,2.8,1.1,3.7,0.4c2.7-2.1,2.2-11,0.9-14.9c-1.2-3.7-3.5-3.2-8.6-2c-0.9,0.2-1.8,0.4-2.8,0.6c-1.5,0.3-2.4,1.1-2.7,2.4 C350.8,89.6,355.3,96,360.9,99.4z" class="st3"/></g><g><path d="M223.4,234.3c-1,0-1.8-0.2-2.4-0.8c-1.6-1.5-1.4-4.9,0.9-11.4c3.6-10.6,10.2-23,16-34 c3.6-6.7,6.7-12.6,8.5-17c2.8-6.6,9.7-11.1,15.1-9.8c3.3,0.8,8.7,4.5,7.5,19.8l0,0c-1.4,17.4-5.4,36.4-24.7,45.1l-3.4,1.5 C232.6,231.7,226.8,234.3,223.4,234.3z M259.5,162.1c-4.6,0-9.9,3.9-12.2,9.4c-1.9,4.4-5,10.3-8.6,17c-5.8,11-12.4,23.4-16,33.9 c-2,5.9-2.4,9.2-1.1,10.4c2,1.8,8.7-1.2,18.8-5.8l3.4-1.5c18.8-8.5,22.8-27.2,24.1-44.3c0.8-10.7-1.6-17.5-6.7-18.8 C260.7,162.2,260.1,162.1,259.5,162.1z M268.5,181.1L268.5,181.1L268.5,181.1z" class="st3"/></g><g><path d="M94.9,107.4c-4.7,0-9.3-1.1-13.2-3.4c-3.8-2.2-9.4-6.6-15.3-11.2c-10.3-8.1-21.9-17.2-29.2-19.1 C24.2,70.4,11,64.5,18,36.6c1.8-7.1,7.9-11.6,17.8-13c24.6-3.4,70.1,14,82.8,36.4l0,0c8.9,15.6,8.7,29.8-0.4,38.2 C111.6,104.2,103,107.4,94.9,107.4z M43.3,24.1c-2.5,0-5,0.2-7.4,0.5c-9.4,1.3-15.3,5.5-16.9,12.2c-6.8,27.1,5.4,32.6,18.5,36 C44.9,74.7,56.6,84,67,92.1c5.9,4.6,11.5,9,15.2,11.2c10.3,5.9,25.1,3.5,35.3-5.8c13-11.9,3.5-31.3,0.2-37l0,0 C107.9,43.4,71.4,24.1,43.3,24.1z" class="st3"/></g><g><path d="M97.9,98.2c-3.5,0-7.3-0.9-11.2-2.8c-13.4-6.3-16.1-13.5-16.3-23.9c-0.1-7,5.8-21.2,13.8-25.6 c3.5-1.9,6.9-1.9,10.2,0.3c10.3,6.6,12.8,11.2,13,11.6c0.9,1.7,1.9,3.2,2.7,4.7c4.4,7.3,7.5,12.5,4.6,22.2 c-1.8,5.9-5.2,10.1-9.9,12.2C102.7,97.7,100.4,98.2,97.9,98.2z M89.2,45.5c-1.5,0-3,0.4-4.5,1.3c-7.5,4.2-13.4,17.9-13.3,24.7 c0.1,10.2,2.7,16.9,15.7,23c6.5,3,12.5,3.5,17.3,1.3c4.4-2,7.6-6,9.3-11.6c2.8-9.3-0.1-14.1-4.5-21.4c-0.9-1.5-1.8-3-2.8-4.7 l0,0c0,0-2.4-4.7-12.6-11.2C92.4,46,90.8,45.5,89.2,45.5z" class="st3"/></g><g><path d="M246.2,202.8c-0.8,0-1.3-0.4-1.5-0.7c-3.1-3.7,1.2-21.4,6.5-27.1c2.4-2.6,5.3-3.2,7.6-1.7 c3.2,2.2,4.7,8.4,1.5,14.9l0,0c-4.5,9.2-4.9,9.4-10.3,12.8c-0.6,0.4-1.2,0.8-1.9,1.2C247.3,202.6,246.7,202.8,246.2,202.8z M256,173.4c-1.4,0-2.8,0.7-4.1,2.2c-4.4,4.7-9.4,22.3-6.4,25.8c0.2,0.2,0.7,0.8,2.1-0.1c0.7-0.5,1.3-0.8,1.9-1.2 c5.2-3.3,5.6-3.5,9.9-12.4l0,0c2.9-5.9,1.6-11.7-1.2-13.6C257.4,173.7,256.7,173.4,256,173.4z" class="st3"/></g><g><path d="M934.5,160.9c-4.7,0-9.6-1.4-14.9-4.4l0,0c-5.8-3.2-13.4-8-21.4-13.1c-14-8.9-29.8-19.1-41.8-24 c-19.1-7.8-30.7-7-40.9-6.3c-0.8,0-1.5,0.1-2.3,0.1c-10,0.6-23.9-3.3-32.9-15.9c-1.3-1.9-2.8-3.7-4.3-5.6 c-8.5-10.8-18.1-23.1-10.2-46.7c2.4-7.1,15-19.1,72.6-20.6c34.2-0.9,72.7,2.7,89.5,8.4c16.3,5.5,32.4,23.1,41,44.8 c7.6,19.4,7.9,38.1,0.8,51.3c-9.9,18.3-19.1,28.1-28.9,31.1C938.8,160.6,936.7,160.9,934.5,160.9z M920.1,155.6 c7.5,4.1,14.2,5.2,20.5,3.4c9.6-2.8,18.6-12.5,28.3-30.6c7-13,6.7-31.4-0.8-50.5c-8.5-21.5-24.3-38.8-40.4-44.2 c-16.7-5.6-55.1-9.2-89.2-8.3c-41.7,1.1-67.8,8.3-71.7,19.9c-7.8,23.1,1.3,34.6,10,45.7c1.4,1.8,2.9,3.7,4.3,5.6 c8.8,12.3,22.3,16.1,32,15.5c0.8,0,1.5-0.1,2.3-0.1c10.4-0.7,22.1-1.4,41.4,6.4c12.1,4.9,28,15.1,42,24 C906.7,147.6,914.3,152.5,920.1,155.6L920.1,155.6z" class="st3"/></g><g><path d="M931.2,144.3c-7.8,0-18-5.3-26.2-14.2c-10.1-11-30.4-29.3-52.2-27.8c-1.2,0.1-2.4,0.2-3.7,0.3 c-22.4,1.6-59.8,4.4-68.7-23.1c-2.2-6.7-1.4-12.6,2.3-17.7c10.3-14,41.6-18.5,65.2-18.1c26,0.5,78.4,10.7,81.6,27.9 c1.4,7.6,1.1,11.7-1.1,13.9c-2.5,2.4-6.9,2.1-14.9,0.6l-1-0.2c-9.3-1.8-18.9-3.7-20.5-1.6c-0.4,0.5-0.3,1.3,0.3,2.3 c3.6,7.1,25.9,17.4,32.6,20.4c8,3.6,14.3,16.3,15.5,26c0.5,4.4-0.1,7.6-1.8,8.9l0,0C936.6,143.5,934.1,144.3,931.2,144.3z M855.3,101.2c21.2,0,40.5,17.5,50.4,28.2c10.7,11.7,25.5,17.1,32.3,11.8l0.3,0.4l-0.3-0.4c1.4-1.1,1.9-4,1.4-8 c-1.2-9.5-7.4-21.8-14.9-25.2c-6.8-3-29.4-13.5-33.1-20.9c-0.7-1.4-0.8-2.6-0.2-3.4c2-2.6,10.6-0.9,21.5,1.2l1,0.2 c7.4,1.4,11.9,1.8,14-0.3c1.9-1.9,2.1-5.9,0.8-13c-2.8-15-50.1-26.6-80.7-27.1c-12.5-0.2-25.7,1-36.4,3.4 c-13.7,3.1-23.4,8-28,14.2c-3.5,4.8-4.3,10.4-2.2,16.8c8.7,26.7,45.6,24,67.7,22.4c1.3-0.1,2.5-0.2,3.7-0.3 C853.6,101.2,854.5,101.2,855.3,101.2z" class="st3"/></g><g><path d="M888.9,103.9c-2.7,0-5.1-2-7.9-4.3c-3.1-2.6-6.7-5.6-11.5-6.1c-4.6-0.6-12.6-0.2-21.8,0.2 c-17.6,0.8-39.5,1.8-46.8-3.7c-4.5-3.4-6-10-3.6-15.9c5.3-13,25-18.8,52.8-15.4c24.5,3,37.3,7.2,37,12.1 c-0.2,3.6-7,5.8-10.6,5.8c-2.7,0-4.4,1-4.7,2.6c-0.5,2.4,1.9,6.1,7.4,8.5c7.1,3.1,13.8,9.9,13.4,13.6c-0.1,0.9-0.6,2-2.5,2.4 C889.6,103.9,889.2,103.9,888.9,103.9z M869.6,92.5c5.1,0.6,8.8,3.7,12,6.4c2.9,2.4,5.5,4.5,8.2,4c1.1-0.2,1.7-0.7,1.7-1.5 c0.3-3-5.5-9.4-12.8-12.6c-6.3-2.7-8.5-6.9-8-9.6c0.4-2.2,2.5-3.4,5.7-3.4c3.6,0,9.5-2.2,9.6-4.9c0.1-2-3.2-7.1-36.1-11.1 c-40.5-4.9-49.9,10.1-51.8,14.8c-2.2,5.5-0.9,11.6,3.3,14.7c7,5.3,28.7,4.3,46.1,3.5C856.9,92.3,864.9,91.9,869.6,92.5z" class="st3"/></g><g><path d="M586.5,100.1c-1.2,0-2.5-0.1-3.8-0.2c-12.9-1.3-32-9.3-42.9-27.8c-7.9-13.3-7.9-28.9,0-40.6 c13-19.2,44.3-26.1,88.2-19.3C717.6,26,732.8,32.9,746,45.2c5.3,5,7,10.8,4.5,15.4c-1.8,3.3-10.1,13.3-43.7,5.3l0,0 c-16.5-3.9-53.5,0.7-67.2,5.6c-15,5.4-32.6,16.1-40.1,24.4C597.1,98.6,592.4,100.1,586.5,100.1z M597.2,10.6 c-35.9,0-50.7,12.7-56.6,21.4c-7.7,11.4-7.7,26.5,0,39.5c10.8,18.2,29.5,26.1,42.2,27.4c7.4,0.7,13.3-0.6,16-3.6 c7.6-8.5,25.4-19.3,40.5-24.7C653,65.7,690.3,61,707,65c26.2,6.2,39.1,1.6,42.6-4.8c2.3-4.3,0.7-9.6-4.3-14.2 c-13-12.2-28.1-19-117.5-32.8C616.2,11.4,606,10.6,597.2,10.6z" class="st3"/></g><g><path d="M583.4,90.1c-0.2,0-0.4,0-0.5,0c-15-0.4-29.9-12.6-36.9-24.4c-6.4-10.8-6.6-23.4-0.5-32.9 c5.6-8.6,14.9-22.9,66.2-16.7c1.4,0.2,10.1,1.8,17.8,3.3c5.6,1.1,10.9,2.1,12,2.3C728.6,35.1,729.6,36,741.4,47l0.3,0.3 c2.8,2.6,4,5.4,3.2,7.1c-1.5,3.3-9.6,6-23.9,4.3c-3.8-0.5-7.9-1.2-12.3-2.3c-1.7-0.4-3.7-0.7-5.8-1C683,53,651,57.1,637.7,62.2 c-13.2,5-23.7,9.5-34,14.8c-3.7,1.9-5.8,4.3-7.9,6.7C592.9,86.9,590.1,90.1,583.4,90.1z M582.9,89.1c6.6,0.2,9.2-2.8,12.1-6.2 c2-2.3,4.3-4.9,8.2-6.9c10.4-5.2,20.9-9.8,34.1-14.8c13.4-5.1,45.7-9.3,65.7-6.8c2.2,0.3,4.1,0.6,5.9,1c4.3,1,8.4,1.8,12.2,2.2 c14.6,1.8,21.8-1.3,22.9-3.7c0.6-1.3-0.6-3.7-3-5.9l-0.3-0.3c-11.6-10.9-12.5-11.7-99.4-25.1c-1.1-0.2-6.2-1.1-12-2.3 c-7.7-1.5-16.3-3.1-17.8-3.3c-50.7-6.1-59.8,7.9-65.3,16.2c-5.9,9.1-5.8,21.3,0.5,31.8C555.9,80.5,571.8,88.8,582.9,89.1z" class="st3"/></g><g><path d="M582.6,79.7c-2.3,0-4.8-0.4-7.5-1.3C564.5,75,553.9,65.8,552,60.1c-2.9-8.4-5.5-18-0.6-25.6 c11.3-17.4,45.4-12.7,63.7-10.3c2,0.3,3.8,0.5,5.3,0.7l0.1,0c21.8,7.6,36.9,8.7,55.9,10.1c3,0.2,6.1,0.5,9.4,0.7 c18,1.5,35.2,6,49.8,13.1l1.4,0.7l-1.5,0.3c-2.5,0.4-6.9,0.8-13.6,0c-3.5-0.4-7.4-1.1-11.5-2.1c-1.8-0.4-3.9-0.8-6.6-1.1 c-15.7-2.1-25-1.1-38,0.3c-7.1,0.7-15.2,1.6-25.8,2.1c-21.1,0.9-29.4,9.3-38.2,18.2c-3.4,3.4-6.9,7-11.2,10.1 C588.5,78.9,585.8,79.7,582.6,79.7z M586.4,22.8c-14,0-27.8,2.6-34.1,12.3c-4.2,6.5-2.8,14.6,0.7,24.7 c1.9,5.4,12.1,14.3,22.5,17.6c4.2,1.3,10.2,2.3,14.7-1c4.3-3.1,7.7-6.6,11.1-10c8.9-9,17.4-17.5,38.9-18.4 c10.6-0.5,18.6-1.3,25.7-2.1c12.5-1.3,22.4-2.4,38.2-0.3c2.7,0.4,4.9,0.7,6.7,1.2c4.1,1,7.9,1.7,11.4,2.1 c5.3,0.6,9.1,0.5,11.6,0.2c-14.2-6.7-30.7-10.9-48-12.3c-3.3-0.3-6.4-0.5-9.4-0.7c-19.1-1.4-34.2-2.5-56.1-10.2 c-1.6-0.2-3.3-0.4-5.3-0.7C607.3,24.3,596.8,22.8,586.4,22.8z" class="st3"/></g><g><path d="M573.4,59.7c-5,0-9.3-3.2-10-7.5c-0.6-4.1,2.4-9.4,12.8-11.9c11-2.6,16.7-1.4,18.3,0.4 c0.5,0.5,0.6,1.2,0.4,1.8c-0.5,1.2-2.4,2.1-5.1,2.4c-4.6,0.5-6.8,4.4-8.9,8.2c-1.8,3.3-3.5,6.4-6.7,6.6l0,0 C573.9,59.7,573.6,59.7,573.4,59.7z M574.1,59.2L574.1,59.2L574.1,59.2z M587.2,39.8c-2.7,0-6.2,0.4-10.8,1.5 c-9.7,2.3-12.5,7.1-12,10.8c0.5,3.5,4.2,6.9,9.6,6.6l0,0c2.6-0.2,4.1-2.9,5.8-6.1c2.1-3.9,4.6-8.2,9.7-8.8 c2.6-0.3,4-1.1,4.3-1.8c0-0.1,0.2-0.4-0.2-0.8C593.1,40.7,591.1,39.8,587.2,39.8z" class="st3"/></g><g><path d="M805.1,615.5c-0.1,0-0.1,0-0.2,0c-24.5-8.9-65.6-27.8-66.2-54c-0.2-10.6,6.9-18.5,13.6-21.3 c17.8-7.4,29.3-19.1,36.2-36.7c5.1-13.2,15.8-13.9,28.1-14.6c5.7-0.4,11.6-0.7,17.7-2.3c0.3-0.1,0.5,0.1,0.6,0.4 c0.1,0.3-0.1,0.5-0.4,0.6c-6.1,1.6-12.1,2-17.9,2.3c-12,0.7-22.3,1.4-27.3,14c-7,17.9-18.6,29.7-36.7,37.2 c-6.4,2.7-13.2,10.2-13,20.3c0.2,11,9.1,32.5,65.5,53.1c0.3,0.1,0.4,0.4,0.3,0.6C805.5,615.4,805.3,615.5,805.1,615.5z" class="st3"/></g><g><path d="M802.1,600c0,0-0.1,0-0.1,0c-14.4-3.2-48-13.2-50.5-35c-0.8-7.3,2.6-13,6.4-14.8 c9.8-4.7,30.9-32.5,34.7-42.3c3-7.9,13.1-9,25.9-10.3c4.6-0.5,9.4-1,14.4-1.9c0.3-0.1,0.5,0.1,0.6,0.4c0,0.3-0.1,0.5-0.4,0.6 c-5,0.9-9.9,1.4-14.5,1.9c-12.4,1.3-22.3,2.3-25.1,9.7c-1.9,5.1-8,14.3-15.4,23.6c-8,10-15.4,17.2-19.8,19.3 c-3.5,1.7-6.6,7-5.9,13.8c0.8,7.1,7.2,24.5,49.7,34.1c0.3,0.1,0.4,0.3,0.4,0.6C802.6,599.9,802.4,600,802.1,600z" class="st3"/></g><g><path d="M799.5,582.4c-20,0-30.5-9.1-33.7-18.5c-2.4-7-0.4-14.1,4.8-17.2c8.2-4.9,13.5-13.9,18.1-21.9 c2.6-4.4,5-8.6,7.8-11.9c4.7-5.6,8.4-6,13.9-6.6c3.8-0.4,8.5-0.9,15.2-3.3c0.3-0.1,0.5,0,0.6,0.3c0.1,0.3,0,0.5-0.3,0.6 c-6.8,2.5-11.6,3-15.5,3.4c-5.5,0.6-8.8,0.9-13.2,6.2c-2.7,3.2-5.1,7.4-7.7,11.8c-4.7,8.1-10,17.2-18.4,22.2 c-4.8,2.9-6.6,9.4-4.4,16c3.5,10.3,16.2,20.2,41.4,17.3c0.3,0,0.5,0.2,0.6,0.4c0,0.3-0.2,0.5-0.4,0.6 C805.2,582.2,802.2,582.4,799.5,582.4z" class="st3"/></g><g><path d="M794.5,558.7c-3.6,0-7-0.4-10-1.2c-2.7-0.7-3.3-2.4-3.4-3.7c-0.5-7.1,14.6-21,23.7-25.1l0,0 c10.8-4.8,15.7-1,17.7,1.8c3.7,5.1,2.9,14-1.7,19C815.1,555.7,804.3,558.7,794.5,558.7z M805.2,529.6 c-11.2,4.9-23.5,18.8-23.1,24.1c0.1,1.4,1,2.3,2.7,2.8c13.3,3.7,29.2-1.1,35.2-7.7c4.2-4.7,5-13.1,1.7-17.8 C818.6,526.8,812.7,526.2,805.2,529.6L805.2,529.6z" class="st3"/></g><g><path d="M-10.5,297c-0.2,0-0.3-0.1-0.4-0.2c-0.2-0.2-0.1-0.5,0.1-0.7c5.7-3.9,10.5-9.2,15.2-14.2 c8.3-9,16.8-18.3,31-20.9c8.5-1.5,13.9-7.8,13.9-16c-0.1-10.5-9.3-22.6-29.9-26.1c-36.1-6-70.7,10-77.5,20.8 c-0.1,0.2-0.5,0.3-0.7,0.2c-0.2-0.1-0.3-0.5-0.2-0.7c7-10.9,42.1-27.3,78.5-21.2c21.1,3.5,30.6,16.1,30.7,27 c0.1,8.7-5.7,15.3-14.7,16.9c-13.9,2.5-22.3,11.7-30.5,20.6c-4.7,5.1-9.5,10.4-15.4,14.4C-10.3,297-10.4,297-10.5,297z" class="st3"/></g><g><path d="M-23.5,288c-0.2,0-0.3-0.1-0.4-0.2c-0.2-0.2-0.1-0.5,0.1-0.7c15.9-12,37.9-25.9,49.1-32 c4.8-2.6,8.6-9.4,6.4-14.4c-1.5-3.5-8.4-10.7-39-0.7c-48.3,15.8-65.6,38.6-65.8,38.8c-0.2,0.2-0.5,0.3-0.7,0.1 c-0.2-0.2-0.3-0.5-0.1-0.7c0.2-0.2,17.7-23.3,66.2-39.2c10.5-3.4,35.4-10.1,40.3,1.2c2.4,5.5-1.7,12.8-6.9,15.7 c-11.2,6.1-33,20-48.9,32C-23.3,288-23.4,288-23.5,288z" class="st3"/></g><g><path d="M22.1,178.2c-1.9,0-4.6-1.5-7.9-4.3C-6.1,156.5-34,155-58.5,155c-0.3,0-0.5-0.2-0.5-0.5s0.2-0.5,0.5-0.5 c24.7,0,52.7,1.5,73.3,19.1c3.6,3.1,6.5,4.5,8,3.9c0.7-0.3,1-0.9,1.2-2c1-8.9-16-38-51.8-62.1c-0.2-0.2-0.3-0.5-0.1-0.7 c0.2-0.2,0.5-0.3,0.7-0.1c36.6,24.7,53.2,53.7,52.2,63c-0.2,1.8-1.1,2.6-1.8,2.8C22.9,178.1,22.5,178.2,22.1,178.2z" class="st3"/></g><g><path d="M10.1,164.6c-1.5,0-3.5-0.9-5.9-2.7c-13.5-9.9-21.9-12.4-40.4-18c-2-0.6-4.1-1.2-6.4-1.9 c-0.3-0.1-0.4-0.4-0.3-0.6c0.1-0.3,0.4-0.4,0.6-0.3c2.3,0.7,4.4,1.3,6.4,1.9c18.6,5.6,27.2,8.2,40.7,18.1c4,3,5.7,2.5,6.1,2.3 c0.4-0.2,0.6-0.7,0.6-1.4c0-5.3-13.1-23.9-52.2-44.1c-0.2-0.1-0.3-0.4-0.2-0.7c0.1-0.2,0.4-0.3,0.7-0.2 c39.9,20.7,52.8,39.3,52.8,45c0,1.4-0.6,2-1.2,2.2C11,164.5,10.6,164.6,10.1,164.6z" class="st3"/></g><g><path d="M144.5,250c-42.7,0-64.1-54-81.3-97.3c-1.1-2.7-2.1-5.4-3.2-8c-9.4-23.4-26.6-34-41.8-43.4 C4.5,92.8-8.6,84.8-13,68.6c-5.3-19.3-3.8-35.9,4.4-49.5C3.7-1.2,26.7-7.5,33.4-9c28.2-6.1,62.3,4,101.4,30.1 c40.1,26.8,67.7,26.4,94.3,26c3.1,0,6.3-0.1,9.4-0.1c9,0,18.7,4.2,19.3,16.1c0.6,12.5-10,27.2-28.2,28.9 c-9.3,0.9-39.5,7.1-39.5,49.5c0,10.3,0,37.6-5.6,62C177.2,234.4,163.8,250,144.5,250z M50-9.7c-5.7,0-11.1,0.6-16.4,1.7 C27-6.6,4.4-0.3-7.7,19.6C-15.8,33-17.2,49.4-12,68.4c4.3,15.8,16.6,23.3,30.8,32.1c15.3,9.4,32.7,20.1,42.2,43.9 c1,2.6,2.1,5.3,3.2,8c17.1,43.1,38.3,96.7,80.4,96.7c20.3,0,44.5-18.7,44.5-107.5c0-12.2,3-23.6,8.5-32 c7-10.9,17.8-17.1,32-18.5c17.6-1.7,27.9-15.8,27.3-27.9c-0.2-3.5-2-15.1-18.3-15.1c-3.1,0-6.3,0-9.4,0.1 c-26.8,0.4-54.4,0.8-94.9-26.2C102.7,0.9,74.4-9.7,50-9.7z" class="st3"/></g><g><path d="M136.5,236c-15,0-27.8-8.6-40.3-27c-12-17.7-21.5-41.6-29.9-62.7c-1.1-2.7-2.1-5.4-3.2-8 c-10.9-27.1-30.7-39.3-46.6-49.2C2,80.1-6.4,74.5-9.4,63.5c-4.4-16-3.3-29.5,3.1-40.1C3.5,7.1,22.4,1.9,27.9,0.7 c4.4-0.9,9-1.4,13.8-1.4c22.4,0,48.7,10,78.4,29.8c33.7,22.4,62.7,31.4,91.3,28.1c9.4-1.1,16.2,4.4,17.3,10.2 c0.7,3.9-1.1,8.7-8.3,10.6c-21.7,5.8-50.5,18.5-50.5,61.5c0,9.9,0,36.2-5.3,59.3c-2.8,12.2-6.6,21.6-11.4,27.9 C148.6,233,143.2,236,136.5,236z M41.8,0.3c-4.7,0-9.3,0.5-13.6,1.4C22.7,2.9,4.1,8-5.4,23.8c-6.3,10.4-7.3,23.6-3,39.4 c2.9,10.7,11.2,16.2,25.5,25c16.1,9.9,36,22.2,47,49.6c1,2.6,2.1,5.3,3.2,8c8.3,21.1,17.8,44.9,29.8,62.6 c12.3,18.2,24.9,26.6,39.5,26.6c6.4,0,11.5-2.8,16-8.9c4.7-6.2,8.4-15.5,11.2-27.5c5.3-23,5.3-49.2,5.3-59.1 c0-43.7,29.2-56.5,51.2-62.4c5.6-1.5,8.4-5,7.6-9.5c-1-5.4-7.4-10.4-16.2-9.4l-0.1-0.5l0.1,0.5c-28.9,3.3-58.2-5.7-92-28.3 C90.1,10.3,63.9,0.3,41.8,0.3z" class="st3"/></g><g><path d="M127,213.2c-8.4,0-17.1-3.9-23.8-10.9c-14.8-15.4-23.8-41.4-28.7-60.5c-9.9-38.6-26.4-47.5-45.6-57.9 c-2.9-1.6-6-3.2-9-5C5.1,70.2,0.8,66.4-0.8,60.3c-3.5-12.7-2.9-23,1.8-30.7c7.5-12.4,23.4-16.4,26.5-17.1 c3.5-0.8,7.3-1.2,11.3-1.2c22.3,0,47.8,9.9,71.7,27.8c15.1,11.3,31.5,22,49.1,23.9c11.5,1.3,18.7,8.3,19.9,14.6 c0.7,4.1-0.9,7.5-4.6,9.3c-17.8,9.1-19.9,34.3-19.9,52.5c0,1.3,0,2.9,0.1,4.7c0.2,11.7,0.6,33.4-5.1,51.9 c-2.6,8.4-8.8,14.4-17,16.4C131,213,129,213.2,127,213.2z M38.8,12.3c-3.9,0-7.6,0.4-11.1,1.1c-3,0.7-18.6,4.6-25.9,16.6 c-4.5,7.5-5.1,17.6-1.7,30c1.6,5.8,5.8,9.5,20.2,18c3,1.8,6.1,3.4,9,5c18.6,10,36.1,19.5,46.1,58.5c4.9,19,13.8,44.8,28.5,60.1 c8.1,8.4,19.1,12.2,28.8,9.9c7.9-1.9,13.8-7.6,16.3-15.7l0.5,0.1l-0.5-0.1c5.7-18.3,5.3-40,5.1-51.6c0-1.8-0.1-3.4-0.1-4.7 c0-18.5,2.1-44.1,20.4-53.4c3.2-1.7,4.7-4.7,4.1-8.3c-1.1-5.9-8-12.6-19-13.8c-17.8-2-34.3-12.8-49.6-24.1 C86.1,22.1,60.8,12.3,38.8,12.3z" class="st3"/></g><g><path d="M126.1,196.1c-6.3,0-13.6-2.8-18-9.3c-6.8-9.9-15.1-28-11.9-37.5c0.9-2.7,2.6-4.4,5.2-5.3 c16.3-5.4,26.2-4.3,29.6,3.3c3.8,8.6,8,26.8,8,39.2c0,4.1-2.7,7.3-7.4,8.8C130,195.8,128.1,196.1,126.1,196.1z M118.3,141.6 c-4.4,0-10,1.1-16.7,3.3c-2.2,0.7-3.8,2.3-4.5,4.7c-3,9,5.3,27.1,11.8,36.6c5.6,8.1,15.7,10.2,22.4,8.1c4.2-1.3,6.7-4.2,6.7-7.8 c0-12.3-4.2-30.3-8-38.8C128.2,143.7,124.3,141.6,118.3,141.6z" class="st3"/></g><g><path d="M96.4,341.7c-4.9,0-10.9-0.2-17.9-0.7c-13.9-0.9-17.4-2.5-18.1-3c-3-0.1-6.6-2.4-9.1-6 c-3.3-4.7-4.1-10.4-2.2-15.6c1.8-4.8,5.7-7.9,10.8-8.5c6.1-0.7,12.5,2.6,16.1,8.4c3.7,5.9,12.5,8.2,21,10.5 c7,1.9,13.7,3.7,16.9,7.4c1.2,1.4,1.6,2.7,1.1,3.8C113.7,340.5,107.8,341.7,96.4,341.7z M60.8,337.1c0.2,0.1,2.6,1.9,17.7,2.9 c22.1,1.4,34,0.5,35.5-2.5c0.3-0.7,0-1.6-0.9-2.7c-3.1-3.5-9.6-5.2-16.4-7.1c-8.7-2.3-17.6-4.8-21.6-11 c-3.5-5.5-9.4-8.6-15.2-7.9c-4.7,0.5-8.3,3.4-9.9,7.8c-1.8,4.9-1,10.3,2.1,14.7c2.3,3.4,5.7,5.6,8.5,5.6h0.2L60.8,337.1z" class="st3"/></g><g><path d="M69.5,330.6c-1,0-2.2-0.1-3.3-0.4c-4.7-1-10.2-4-12.1-8.6l0,0c-0.7-1.7-0.7-3-0.1-3.9 c1.2-1.8,4.5-1.8,9.6-1.8c5.2,0,10.6,4.1,12.1,7.8c0.8,2,0.6,3.8-0.7,5.1C73.7,330,71.8,330.6,69.5,330.6z M55,321.3 c1.7,4.3,6.9,7.1,11.4,8c3.5,0.7,6.4,0.3,7.8-1.1c1.3-1.3,1-2.9,0.5-4c-1.4-3.4-6.5-7.2-11.2-7.2c-4.4,0-7.8,0-8.8,1.3 C54.3,318.9,54.4,319.9,55,321.3L55,321.3z" class="st3"/></g><g><path d="M217.2,22.3c-20.5,0-60.1-16.7-76-28.4c-8.9-6.6-12-12-9-16.1c4.9-6.8,25.8-7.9,43.8-6.6 c18.1,1.3,40.5,5.5,49.8,11.9c10.5,7.1,15.4,16.1,13.5,24.5c-1.7,7.4-8.4,12.9-17.7,14.4C220.2,22.2,218.8,22.3,217.2,22.3z M162.6-28.3c-14.4,0-26.3,2-29.6,6.7c-2.5,3.6,0.4,8.5,8.8,14.7l0,0c15.8,11.7,55.1,28.2,75.3,28.2c1.6,0,3-0.1,4.3-0.3 c8.8-1.4,15.3-6.6,16.9-13.6c1.8-8-3-16.6-13.1-23.5C214.7-23.2,185.5-28.3,162.6-28.3z" class="st3"/></g><g><path d="M346,681.1c-3.7,0-7.2-0.4-10.6-1.1c-9.2-2-15.8-8-18.7-16.8c-2.6-8-2-19.9,3.4-26c2.1-2.4,3.4-4.8,4.7-7.2 c3.5-6.7,6.3-11.9,22.8-8.9l0,0c8.1,1.5,18.4,6.8,26.8,14c9.1,7.8,14.1,16,13.6,22.5c-0.3,4.6-3.4,9.2-8.9,13.3 C370.4,677.3,357.9,681.1,346,681.1z M339.3,621.1c-8.7,0-10.8,4.1-13.6,9.3c-1.2,2.3-2.6,5-4.8,7.4c-4.1,4.6-6.4,15.2-3.2,25 c2,6,6.7,13.7,18,16.2c16.5,3.6,33.8-2.1,42.9-9c5.2-3.9,8.2-8.3,8.5-12.6c0.9-13.2-22.8-32.4-39.6-35.5 C344.2,621.4,341.5,621.1,339.3,621.1z" class="st3"/></g><g><path d="M363.7,664.4c-7,0-13.6-1.9-17.9-5.2c-2.8-2.1-4.5-4.8-4.8-7.7c-0.6-5.6,0.2-12.7,4.5-15.7 c2.8-2,6.6-1.9,11.2,0.2c11.2,5.2,20.1,15.7,19.2,22.6c-0.3,2-1.6,4.6-6.3,5.3C367.6,664.3,365.6,664.4,363.7,664.4z M350.2,635.4c-1.6,0-3,0.4-4.2,1.3c-3.9,2.8-4.6,9.7-4.1,14.8c0.3,2.6,1.8,5.1,4.4,7c5.3,4.1,14.4,5.9,23,4.5 c3.3-0.5,5.1-2,5.5-4.5c0.8-5.8-7-16.2-18.6-21.6l0,0C354,635.9,352,635.4,350.2,635.4z" class="st3"/></g><g><path d="M518.4,615.1c-2.4,0-5.1-0.7-8.1-2.2l0,0c-10.3-5.2-11.4-14.7-12.4-23.2c-0.8-6.6-1.5-12.9-6.6-15.9 c-7.9-4.6-18.8-14.4-17.2-18c0.7-1.6,3.5-1.6,8.6,0.1c9.7,3.2,19.4,4.8,27.8,6.1c7.2,1.1,13.4,2.1,18.2,3.9 c8.9,3.3,14.5,8.2,16.2,14.1c1.4,4.9,0,10.3-4,15.7c-0.8,1-1.6,2.1-2.3,3.1C532.3,607.5,526.7,615.1,518.4,615.1z M476.7,555.7 c-1.3,0-1.6,0.4-1.7,0.6c-1.1,2.5,8.1,11.7,16.8,16.7c5.6,3.3,6.3,9.7,7.1,16.6c1,8.6,2,17.4,11.9,22.4l0,0 c12.4,6.2,19.2-3,27.1-13.7c0.8-1,1.5-2.1,2.3-3.1c3.8-5.1,5.2-10.2,3.8-14.8c-1.6-5.6-7-10.2-15.6-13.4 c-4.7-1.7-10.8-2.7-18-3.9c-8.5-1.3-18.2-2.9-28-6.1C479.5,556,477.8,555.7,476.7,555.7z" class="st3"/></g><g><path d="M516,608.1c-0.8,0-1.5-0.2-2.1-0.5c-2.9-1.7-2.5-7.1-2-12.9c0.4-5.3,0.9-10.8-1.7-12.1 c-4.5-2.3-5.5-5.9-4.6-8.3c0.8-2.1,3.2-3.7,6.8-2.7l0,0c6.2,1.7,20.4,8.6,21.9,18c0.8,5.1-2.3,10-9.2,14.6 C521.1,606.9,518.1,608.1,516,608.1z M510.3,572.4c-1.8,0-3.2,0.8-3.8,2.4c-0.8,2,0.2,5.1,4.1,7.1c3.2,1.6,2.7,7.1,2.2,13 c-0.4,5.2-0.8,10.5,1.5,11.9c1.8,1,5.2-0.1,10.2-3.4c6.6-4.3,9.5-8.9,8.8-13.6c-1.3-8.4-14.5-15.3-21.2-17.2 C511.5,572.4,510.9,572.4,510.3,572.4z" class="st3"/></g><g><path d="M460.3,66.8c-15,0-35-5.7-43.2-14c-14.2-14.3-50.9-26.2-87.9-7.9c-23.3,11.6-32.4,7.2-35.7,3.6 c-4.2-4.5-3.8-12.5,0.9-20.3l1.3-2.2c9.6-16,22.7-38,48-47c31.4-11.2,103.2-5.9,117.9,0c15.6,6.3,26,19.9,30.2,39.4 c4.4,20.6-5.3,38.5-17.2,45.5C471.4,65.9,466.3,66.8,460.3,66.8z M368.5,34.6c21.8,0,40.2,8.3,49.4,17.5 c11.2,11.2,44.9,17.8,56.4,10.9c15.1-9,19.9-29.6,16.7-44.5c-4.1-19.1-14.3-32.5-29.6-38.6c-14.6-5.8-85.9-11.1-117.1,0 l-0.2-0.5l0.2,0.5c-25,8.9-38,30.6-47.5,46.5l-1.3,2.2c-4.5,7.4-4.9,14.9-1,19.1c5.4,5.8,18,4.4,34.6-3.8 C342.4,37.3,356,34.6,368.5,34.6z" class="st3"/></g><g><path d="M459.3,58.9c-18.2-1.5-23.3-9.1-28.3-16.5c-2-2.9-4-5.9-6.9-8.5c-4.3-3.9-13.3-6.6-26-7.9 c-11.6-1.1-23.4-0.8-30.7,0c-13.7,1.4-29.6,4-43.7,12l-0.2-0.4l0.2,0.4c-11.3,6.4-18.3,6.1-21,3.7c-1.6-1.4-1.9-3.7-0.8-6.2 c8.7-23.9,29.2-39.2,44.2-45c10.1-4,27.5-6,51.7-6c29.4,0,48.3,3.3,53.8,5.5c11.9,4.8,25.9,15.8,29.4,32.4 c3.4,15.8-3.9,29.7-12.5,34.9C467.4,58.1,464.3,58.9,459.3,58.9z M382.7,24.3c15.4,0,34.5,1.9,42.1,8.8c2.9,2.6,5,5.7,7,8.7 c5,7.5,9.8,14.5,27.5,16c5.1,0,7.9-0.9,8.8-1.4c8.3-4.9,15.3-18.4,12-33.8C476.7,6.4,463-4.4,451.3-9 c-5.5-2.2-24.2-5.5-53.5-5.5c-24,0-41.3,2-51.3,5.9c-14.8,5.8-35,20.9-43.6,44.4c-0.9,2.1-0.7,3.9,0.6,5.1 c2.4,2.1,9,2.4,19.9-3.8c14.3-8.1,30.3-10.7,44.1-12.1C371.4,24.6,376.8,24.3,382.7,24.3z" class="st3"/></g><g><path d="M453.1,36.8c-8.1,0-17.3-4.9-23.9-10.9c-20.9-18.9-71.7-8.5-89.5-2.9c-10.4,3.3-18,3.3-19.5,0.2 c-0.9-2,1-4.6,5.1-7.1c15-9,45.8-19.1,83.3-18.1c19.3,0.6,31.1,2,39.5,4.9c9.3,3.2,14.9,8.3,17.9,16.4 c2.3,6.1,0.9,11.6-3.8,14.8C459.5,36,456.4,36.8,453.1,36.8z M390.7,13.9c17.8,0,30.9,3.8,39.2,11.2 c12.9,11.7,25.5,12.4,31.7,8.2c4.3-2.9,5.6-8,3.4-13.6C458.9,3.3,441.9,0,408.5-1c-37.2-1.1-67.8,9-82.7,17.9 c-3.5,2.1-5.3,4.4-4.7,5.8c1,2.1,7.1,2.8,18.3-0.7c10.3-3.3,27.4-7,44.4-7.9C386.1,14,388.4,13.9,390.7,13.9z" class="st3"/></g><g><path d="M451.3,21.5c-3,0-8.5-2-16.3-5c-4.3-1.6-8.7-3.3-12.7-4.5c-7.5-2.3-12.7-6.3-12-9.3c0.5-2.5,4.8-3.3,12-2.5 c16.4,2,25,6.8,30.6,17c0.9,1.7,1.1,2.8,0.4,3.6C453,21.3,452.3,21.5,451.3,21.5z M422.6,11c4,1.2,8.4,2.9,12.7,4.6 c7.5,2.8,16,6.1,17.2,4.6c0.3-0.4,0.1-1.2-0.6-2.4c-4.6-8.3-11.4-14.2-29.9-16.5c-7.6-0.9-10.6,0.2-10.9,1.7 C410.8,5,415.3,8.8,422.6,11z" class="st3"/></g><g><path d="M461.9,72.3c-10.4,0-20.9-2.4-28.2-4.1c-2-0.5-3.8-0.9-5.3-1.2c-6.7-1.3-10.8-4.5-15.4-8.2 c-5.8-4.6-13.1-10.3-28.6-14.8c-18.9-5.4-36.2,0.6-52.9,6.4c-7.9,2.7-15.5,5.3-22.9,6.6c-10.6,1.8-17.7,1.1-21.8-2.4 C282.6,51,282,45,282,39.5c0-9.6,21.1-35.2,35.1-52.1c3.7-4.5,6.9-8.4,9.1-11.2c0.2-0.2,0.5-0.3,0.7-0.1 c0.2,0.2,0.3,0.5,0.1,0.7c-2.1,2.8-5.3,6.7-9.1,11.2C304,4.8,283,30.2,283,39.5c0,5.2,0.5,11,4.4,14.3c3.9,3.2,10.7,4,21,2.2 c7.3-1.3,14.8-3.9,22.7-6.6c16.9-5.8,34.3-11.9,53.5-6.4c15.7,4.5,23.1,10.3,29,15c4.7,3.8,8.5,6.7,15,8 c1.5,0.3,3.3,0.7,5.3,1.2c18.6,4.3,53.1,12.3,61.1-18.8c8.3-32.3,0.8-58.9-22.9-81.5c-0.2-0.2-0.2-0.5,0-0.7 c0.2-0.2,0.5-0.2,0.7,0C496.8-11,504.4,16,496,48.6C491.2,67.4,476.6,72.3,461.9,72.3z" class="st3"/></g><g><path d="M458.9,810.9c-12.6,0-25.1-2.6-37.6-7.9c-16.2-6.9-25.6-17.9-27.1-31.9c-1.9-18,9.7-37.5,22-46 c23-15.9,36.8-32.9,49.1-48c1.6-2,3.2-4,4.8-5.9c2.9-3.5,5-7.5,6.4-11.8c5-16.3,12.6-57.4-23.3-85.5 c-16.7-13.1-24.3-23.6-22-30.5c1.6-4.7,7.9-7.4,17.3-7.4c16.1,0,48.1,2.8,70.1,7c21.4,4.1,28.3,10.2,51.3,37.2 c21,24.7,31.2,25.8,80,31.3c4.2,0.5,8.8,1,13.7,1.5c34.4,3.9,80.6,15.5,105.2,48c14.9,19.7,20,44.8,15.2,74.6 c-4,24.6-14.7,41.2-32,49.5c-9.1,4.4-19.3,6.1-29.7,6.1c-28.1,0-57.3-12.6-69-19.2c-3.4-2-7.5-5.3-12.2-9.2 c-17.7-14.6-44.5-36.6-72.2-9.9c-28.2,27.2-53.6,44.3-77.8,52.5C480.1,809,469.4,810.9,458.9,810.9z M477.5,659.6 c-1.3,4.4-3.5,8.5-6.5,12.2c-1.6,1.9-3.2,3.9-4.8,5.9c-12.3,15.1-26.2,32.2-49.3,48.2c-12,8.3-23.4,27.4-21.5,45 c1.4,13.6,10.6,24.4,26.4,31.1c22.7,9.6,45.3,10.4,69,2.4c24-8.1,49.4-25.2,77.4-52.3c28.3-27.3,55.5-5,73.5,9.8 c4.7,3.8,8.7,7.2,12.1,9.1c15.9,9.1,64.4,29.1,97.8,13.1c17-8.1,27.6-24.5,31.5-48.8c4.8-29.5-0.3-54.4-15.1-73.8 c-24.4-32.2-70.3-43.7-104.5-47.6c-4.9-0.6-9.4-1.1-13.7-1.5c-49.1-5.5-59.4-6.6-80.7-31.6c-22.8-26.7-29.6-32.8-50.7-36.8 c-22-4.2-53.9-7-69.9-7c-8.9,0-14.9,2.5-16.3,6.7c-1.5,4.5,1,13.2,21.7,29.4C490.2,601.6,482.5,643.1,477.5,659.6L477.5,659.6z" class="st3"/></g></g></g></g></svg>