<svg id="Layer_1" data-name="Layer 1" xmlns="http://www.w3.org/2000/svg" viewBox="0 0 600 600"><defs><style>.cls-1{fill:#fff;}</style></defs><path class="cls-1" d="M300,428.51a5.49,5.49,0,0,1-5.49-5.49,20.12,20.12,0,0,0-20.09-20.09H115.91a5.5,5.5,0,0,1-5.5-5.5v-246a5.49,5.49,0,0,1,5.5-5.49H300a5.49,5.49,0,0,1,5.49,5.49V423A5.49,5.49,0,0,1,300,428.51ZM121.4,391.94h153a31,31,0,0,1,20.09,7.38V156.89H121.4Z"/><rect class="cls-1" x="142.12" y="179.85" width="130.45" height="10.99"/><rect class="cls-1" x="142.12" y="213.81" width="130.45" height="10.98"/><rect class="cls-1" x="142.12" y="247.76" width="130.45" height="10.99"/><rect class="cls-1" x="142.12" y="281.71" width="130.45" height="10.99"/><rect class="cls-1" x="142.12" y="315.67" width="130.45" height="10.98"/><rect class="cls-1" x="142.12" y="349.62" width="130.45" height="10.99"/><path class="cls-1" d="M300,428.51a5.49,5.49,0,0,1-5.49-5.49V151.39A5.49,5.49,0,0,1,300,145.9H484.09a5.49,5.49,0,0,1,5.49,5.49v246a5.49,5.49,0,0,1-5.49,5.5H325.58A20.12,20.12,0,0,0,305.49,423,5.49,5.49,0,0,1,300,428.51Zm5.49-271.62V399.32a31,31,0,0,1,20.09-7.38h153v-235Z"/><path class="cls-1" d="M300,454.1a31.13,31.13,0,0,1-30.59-25.59H88.8A5.49,5.49,0,0,1,83.31,423V167.48A5.49,5.49,0,0,1,88.8,162h27.11a5.49,5.49,0,0,1,5.49,5.5V391.94h153A31.07,31.07,0,0,1,300,405.39a31.05,31.05,0,0,1,25.58-13.45h153V167.48a5.49,5.49,0,0,1,5.49-5.5H511.2a5.49,5.49,0,0,1,5.49,5.5V423a5.49,5.49,0,0,1-5.49,5.49H330.59A31.13,31.13,0,0,1,300,454.1ZM94.3,417.52H274.42a5.49,5.49,0,0,1,5.49,5.5,20.09,20.09,0,1,0,40.18,0,5.49,5.49,0,0,1,5.49-5.5H505.7V173H489.58V397.43a5.49,5.49,0,0,1-5.49,5.5H325.58A20.12,20.12,0,0,0,305.49,423a5.49,5.49,0,0,1-11,0,20.12,20.12,0,0,0-20.09-20.09H115.91a5.5,5.5,0,0,1-5.5-5.5V173H94.3Z"/><rect class="cls-1" x="327.43" y="179.85" width="130.45" height="10.99"/><rect class="cls-1" x="327.43" y="213.81" width="130.45" height="10.98"/><rect class="cls-1" x="327.43" y="247.76" width="130.45" height="10.99"/><rect class="cls-1" x="327.43" y="281.71" width="130.45" height="10.99"/><rect class="cls-1" x="327.43" y="315.67" width="130.45" height="10.98"/><rect class="cls-1" x="327.43" y="349.62" width="130.45" height="10.99"/></svg>