<svg id="Layer_1" data-name="Layer 1" xmlns="http://www.w3.org/2000/svg" xmlns:xlink="http://www.w3.org/1999/xlink" viewBox="0 0 200 189.81"><defs><style>.cls-1{fill:none;}.cls-2{fill:#5a647a;}.cls-3{fill:#e84355;}.cls-4{fill:#eb6335;opacity:0.75;}.cls-5{clip-path:url(#clip-path);}.cls-6{fill:#2f3544;}</style><clipPath id="clip-path"><rect class="cls-1" x="21.61" y="19.92" width="95.51" height="124.13"/></clipPath></defs><rect class="cls-2" x="157.83" y="45.2" width="4.82" height="3.45" transform="translate(-6.72 48.93) rotate(-17.01)"/><rect class="cls-2" x="160.63" y="36.88" width="3.45" height="4.82" transform="translate(22.91 131.25) rotate(-47.01)"/><rect class="cls-2" x="167.61" y="35.58" width="4.82" height="3.45" transform="translate(95.5 194.61) rotate(-77.02)"/><rect class="cls-2" x="173.17" y="41.23" width="4.82" height="3.45" transform="translate(-4.88 53.27) rotate(-17.02)"/><rect class="cls-2" x="171.74" y="48.18" width="3.45" height="4.82" transform="translate(18.18 142.98) rotate(-47.01)"/><rect class="cls-2" x="163.38" y="50.85" width="4.82" height="3.45" transform="translate(77.35 202.34) rotate(-77.03)"/><circle class="cls-3" cx="146.81" cy="26" r="3.19"/><circle class="cls-4" cx="91.42" cy="94.97" r="64.72"/><g class="cls-5"><path class="cls-6" d="M110.21,46.17l-1.8,2.57L84.22,31.8,86,29.23a9.73,9.73,0,0,1,13.53-2.39l8.27,5.8a9.73,9.73,0,0,1,2.39,13.53M51,130.73l-11.26,3.63-12.09-8.47-.81-12.13,4.32-6.18,24.19,16.94Zm-22.91,1.78,5.48,3.84L28.46,138Zm30.22-12.22L34.12,103.35l43-61.47,24.19,16.93Zm46-65.71L80.13,37.64,81.25,36,105.44,53Zm6.47-26.17-8.28-5.8a14.88,14.88,0,0,0-20.72,3.66L28.41,102.49h0l-6.32,9a2.55,2.55,0,0,0-.46,1.65l1.9,28.46a2.59,2.59,0,0,0,3,2.37,1.89,1.89,0,0,0,.34-.09l26.52-8.55a2.61,2.61,0,0,0,1.33-1l59.7-85.27a14.89,14.89,0,0,0-3.65-20.72"/><path class="cls-6" d="M79.87,51.33a2.59,2.59,0,0,0-3.6.63L43,99.51a2.58,2.58,0,1,0,4.23,3L80.5,54.93a2.59,2.59,0,0,0-.63-3.6"/><path class="cls-6" d="M91.15,59.23a2.58,2.58,0,0,0-3.6.63L54.26,107.41a2.58,2.58,0,1,0,4.23,3L91.78,62.83a2.58,2.58,0,0,0-.63-3.6"/></g></svg>