<svg id="Layer_1" data-name="Layer 1" xmlns="http://www.w3.org/2000/svg" viewBox="0 0 200 200"><defs><style>.cls-2{fill:#2f3544}.cls-4{fill:#596379}</style></defs><circle cx="124.3" cy="127.49" r="51.83" fill="#eb6335"/><path class="cls-2" d="M142.35 164.07H54.18a1.72 1.72 0 0 1-1.72-1.72V37.65a1.72 1.72 0 0 1 1.72-1.72h66.22a1.72 1.72 0 0 1 1.22.5l21.95 22a1.72 1.72 0 0 1 .5 1.22v77.61a1.72 1.72 0 0 1-3.44 0V60.31l-20.94-20.94h-63.8v121.26h86.46a1.72 1.72 0 0 1 0 3.44z"/><path class="cls-2" d="M142.35 61.31h-22a1.72 1.72 0 0 1-1.21-.5 1.69 1.69 0 0 1-.51-1.22V37.65a1.73 1.73 0 0 1 1.07-1.59 1.71 1.71 0 0 1 1.87.37l21.95 22a1.73 1.73 0 0 1 .37 1.87 1.71 1.71 0 0 1-1.54 1.01zm-20.26-3.43h16.11l-16.08-16.09zM140.72 159a6.5 6.5 0 0 1-4.62-1.91l-19.6-19.6a2.64 2.64 0 0 1 0-3.75l5.79-5.78a2.65 2.65 0 0 1 3.74 0l19.6 19.6a6.55 6.55 0 0 1 0 9.25l-.29.28a6.47 6.47 0 0 1-4.62 1.91zm3.7-3.41zm-24.93-20l19 19a3.11 3.11 0 0 0 4.39 0l.28-.28a3.11 3.11 0 0 0 0-4.39l-19-19zm-.56.56zm0-1.13z"/><path class="cls-2" d="M118.36 136a1.71 1.71 0 0 1-1.21-.5l-4.34-4.34a1.72 1.72 0 0 1 2.43-2.44l3.12 3.13 2.06-2.06-3.12-3.12a1.7 1.7 0 0 1 0-2.43 1.72 1.72 0 0 1 2.43 0l4.34 4.34a1.73 1.73 0 0 1 0 2.43l-4.49 4.49a1.75 1.75 0 0 1-1.22.5z"/><path class="cls-2" d="M99.7 136.51a25.38 25.38 0 1 1 18-43.31 25.37 25.37 0 0 1-18 43.31zm0-47.31a22 22 0 1 0 15.52 6.43A21.8 21.8 0 0 0 99.7 89.2z"/><path class="cls-2" d="M69.53 131.6a6.23 6.23 0 1 1 6.23-6.23 6.24 6.24 0 0 1-6.23 6.23zm0-9a2.79 2.79 0 1 0 2.79 2.79 2.79 2.79 0 0 0-2.79-2.81zM89.64 112.24a6.23 6.23 0 1 1 6.23-6.24 6.24 6.24 0 0 1-6.23 6.24zm0-9a2.79 2.79 0 1 0 2.8 2.79 2.79 2.79 0 0 0-2.8-2.81zM109.76 119.18A6.23 6.23 0 1 1 116 113a6.24 6.24 0 0 1-6.24 6.18zm0-9a2.79 2.79 0 1 0 2.79 2.79 2.79 2.79 0 0 0-2.79-2.81zM129.88 85.71a6.23 6.23 0 1 1 6.23-6.23 6.23 6.23 0 0 1-6.23 6.23zm0-9a2.8 2.8 0 1 0 2.79 2.79 2.8 2.8 0 0 0-2.79-2.81z"/><path class="cls-2" d="M72.77 124a1.71 1.71 0 0 1-1.19-3l13.63-13.12a1.72 1.72 0 1 1 2.38 2.48L74 123.48a1.7 1.7 0 0 1-1.23.52zM112.07 110.81a1.68 1.68 0 0 1-.88-.25 1.72 1.72 0 0 1-.59-2.36l15.47-25.74a1.72 1.72 0 0 1 3 1.76L113.55 110a1.71 1.71 0 0 1-1.48.81zM105.5 113.2a1.54 1.54 0 0 1-.56-.1l-11.6-4a1.73 1.73 0 0 1-1.06-2.19 1.71 1.71 0 0 1 2.18-1.06l11.6 4a1.72 1.72 0 0 1-.56 3.35z"/><circle cx="47.2" cy="175.58" r="2.55" fill="#49a1b7"/><path class="cls-4" transform="rotate(-2.57 36.493 162.728)" d="M35.11 160.86h2.76v3.86h-2.76z"/><path class="cls-4" d="M38.17 164.85L35 165l-.19-4.26 3.17-.14zm-2.78-.29l2.35-.1-.15-3.46-2.35.1z"/><path class="cls-4" transform="rotate(-62.58 41.676 159.143)" d="M40.3 157.21h2.76v3.86H40.3z"/><path class="cls-4" d="M44.37 158.8l-1.48 2.84-3.82-2 1.48-2.84zm-1.65 2.28l1.09-2.1-3.09-1.6-1.09 2.1z"/><path class="cls-4" transform="rotate(-32.55 41.107 152.81)" d="M39.19 151.44h3.86v2.76h-3.86z"/><path class="cls-4" d="M42.11 150.35l-3.63 2.32 1.72 2.7 3.63-2.32zm-3.06 2.45l2.95-1.87 1.28 2-2.93 1.87z"/><path class="cls-4" transform="rotate(-2.57 35.217 149.987)" d="M33.99 148.22h2.76v3.86h-2.76z"/><path class="cls-4" d="M37.05 152.24l-3.19.15-.2-4.3 3.2-.15zm-2.8-.29l2.37-.1-.16-3.47-2.36.1z"/><path class="cls-4" transform="rotate(-62.58 30.174 153.786)" d="M28.79 151.86h2.76v3.86h-2.76z"/><path class="cls-4" d="M32.77 153.41l-1.47 2.84-3.82-2 1.52-2.82zm-1.65 2.28l1.09-2.1-3.08-1.59-1.13 2.09z"/><path class="cls-4" transform="rotate(-32.9 29.997 159.573)" d="M28.8 158.74h3.86v2.76H28.8z"/><path class="cls-4" d="M33.36 160.4l-3.63 2.31L28 160l3.63-2.32zm-3.5 1.74l2.93-1.87-1.28-2-2.92 1.87z"/></svg>