<svg id="Layer_1" data-name="Layer 1" xmlns="http://www.w3.org/2000/svg" viewBox="0 0 200 200"><defs><style>.cls-2{fill:#2f3544}.cls-3{fill:#49a1b7}</style></defs><circle cx="82.43" cy="135.38" r="51.83" fill="#e74355"/><path class="cls-2" d="M128.89 166.16H71.11a8.67 8.67 0 0 1-8.66-8.66v-12.78a1.9 1.9 0 0 1 1.9-1.9h71.3a1.9 1.9 0 0 1 1.9 1.9v12.78a8.67 8.67 0 0 1-8.66 8.66zm-62.64-19.54v10.88a4.87 4.87 0 0 0 4.86 4.86h57.78a4.87 4.87 0 0 0 4.86-4.86v-10.88zM135.65 54.93h-71.3a1.9 1.9 0 0 1-1.9-1.9V42.5a8.67 8.67 0 0 1 8.66-8.66h57.78a8.67 8.67 0 0 1 8.66 8.66V53a1.9 1.9 0 0 1-1.9 1.93zm-69.4-3.81h67.5V42.5a4.87 4.87 0 0 0-4.86-4.86H71.11a4.87 4.87 0 0 0-4.86 4.86z"/><path class="cls-2" d="M135.65 146.62h-71.3a1.9 1.9 0 0 1-1.9-1.9V53a1.91 1.91 0 0 1 1.9-1.91h71.3a1.91 1.91 0 0 1 1.9 1.91v91.69a1.9 1.9 0 0 1-1.9 1.93zm-69.4-3.8h67.5V54.93h-67.5zM92.81 152.76h14.38v3.81H92.81zM92.07 42.8h4.61v3.81h-4.61zM99.25 42.8h12.53v3.81H99.25z"/><path class="cls-2" transform="rotate(-45 92.735 92.718)" d="M77.84 90.81h29.78v3.81H77.84z"/><path class="cls-2" transform="rotate(-45 102.172 101.04)" d="M73.93 99.13h56.47v3.81H73.93z"/><path class="cls-3" transform="rotate(-39.81 157.061 85.204)" d="M155.37 82.86h3.37v4.71h-3.37z"/><path class="cls-3" transform="rotate(-69.81 149.372 86.195)" d="M147.02 84.51h4.71v3.37h-4.71z"/><path class="cls-3" transform="rotate(-9.82 144.743 80.096)" d="M142.32 78.35h4.71v3.37h-4.71z"/><path class="cls-3" transform="rotate(-39.82 147.654 72.89)" d="M145.98 70.53h3.37v4.71h-3.37z"/><path class="cls-3" transform="rotate(-69.81 155.35 71.901)" d="M152.99 70.22h4.71v3.37h-4.71z"/><path class="cls-3" transform="rotate(-9.83 160.045 78.077)" d="M157.69 76.38h4.71v3.37h-4.71z"/><circle cx="163.65" cy="99.62" r="3.12" fill="#eb6335"/></svg>