<svg id="Layer_1" data-name="Layer 1" xmlns="http://www.w3.org/2000/svg" viewBox="0 0 200 200"><defs><style>.cls-2{fill:#2f3544}.cls-3{fill:#5a647a}</style></defs><circle cx="82.43" cy="115.49" r="51.83" fill="#eb6335"/><path class="cls-2" d="M100 80a20.16 20.16 0 1 0 14.26 6A20.07 20.07 0 0 0 100 80zm11.46 31.64a16.2 16.2 0 1 1 4.78-11.47 16.08 16.08 0 0 1-4.8 11.5z"/><path class="cls-2" d="M155.22 92l-13-3.59a1.14 1.14 0 0 1-.54-.58l-3.45-8.29a1.19 1.19 0 0 1 0-.65L145 67.12a4.1 4.1 0 0 0-.42-4.55c-.07-.08-1.75-2.06-3.23-3.54s-3.45-3.18-3.53-3.24a4.23 4.23 0 0 0-4.55-.45L121.5 62a1.3 1.3 0 0 1-.78 0l-8.29-3.46a1.29 1.29 0 0 1-.46-.47l-3.54-13.48c-.37-1.36-1.76-3.29-3.67-3.29h-9.27c-1.91 0-3.3 1.91-3.68 3.27l-3.59 13.21a1.35 1.35 0 0 1-.6.64l-8.3 3.48a3.64 3.64 0 0 1-.66 0l-11.72-6.73a4.25 4.25 0 0 0-4.55.41c-.09.07-2.06 1.73-3.52 3.22s-3.2 3.48-3.29 3.58a4.17 4.17 0 0 0-.41 4.53l6.69 11.74a1.24 1.24 0 0 1 0 .78l-3.49 8.31a1.16 1.16 0 0 1-.48.45l-13 3.53a4.07 4.07 0 0 0-2.92 3.68v9.34a4.05 4.05 0 0 0 2.86 3.59l13 3.6a1.16 1.16 0 0 1 .52.58l3.46 8.31a1.16 1.16 0 0 1 0 .64L55 133.21a4.1 4.1 0 0 0 .43 4.55c.07.08 1.74 2 3.24 3.59s3.42 3.11 3.5 3.17a4.19 4.19 0 0 0 4.55.45l11.75-6.66a1.21 1.21 0 0 1 .8 0l8.31 3.47a1.32 1.32 0 0 1 .45.46l3.51 13.3a4.18 4.18 0 0 0 3.67 3.15h9.27a4.21 4.21 0 0 0 3.68-3.11l3.61-13.15a1.2 1.2 0 0 1 .6-.58l8.29-3.47a4.84 4.84 0 0 1 .66 0l11.68 6.77a4.23 4.23 0 0 0 4.54-.41c.08-.07 2.06-1.73 3.59-3.25s3.13-3.43 3.21-3.53a4.1 4.1 0 0 0 .43-4.53l-6.68-11.76a1.2 1.2 0 0 1 0-.79l3.47-8.3a1.15 1.15 0 0 1 .48-.45l13.06-3.52a4.1 4.1 0 0 0 2.89-3.66v-9.37a4.05 4.05 0 0 0-2.77-3.58zm-1.07 12.85l-13.07 3.52a4.82 4.82 0 0 0-3.08 2.83l-3.36 8a4.93 4.93 0 0 0 .11 4.35l6.69 11.84s-1.67 1.94-3 3.29a38.82 38.82 0 0 1-3.41 3L123.27 135a4.67 4.67 0 0 0-2.3-.57 4.54 4.54 0 0 0-1.92.39l-8 3.35a4.86 4.86 0 0 0-3 3.17l-3.6 13.2s-.07.26-.12.26h-8.91s-.08-.21-.09-.24l-3.52-13.26a4.91 4.91 0 0 0-2.81-3.13l-8.08-3.39a5 5 0 0 0-4.33.12l-11.83 6.67s-1.94-1.67-3.29-3-3-3.34-3-3.43l6.76-11.76a4.81 4.81 0 0 0 .18-4.21l-3.35-8a4.89 4.89 0 0 0-3.14-3l-13-3.51v-9.15l13-3.53A4.79 4.79 0 0 0 62 89.14l3.38-8.06a4.94 4.94 0 0 0-.11-4.34L58.61 65v-.2s1.64-1.87 3.06-3.26a32.78 32.78 0 0 1 3.35-3l11.73 6.75a4.56 4.56 0 0 0 2.28.57 4.51 4.51 0 0 0 1.94-.39l8-3.37a5.12 5.12 0 0 0 3-3.26l3.61-13.24c0-.1.14-.4.24-.4h8.6c.1 0 .21.31.24.4l3.53 13.47a4.89 4.89 0 0 0 2.81 3.11l8 3.36a4.64 4.64 0 0 0 2 .45 4.74 4.74 0 0 0 2.3-.56l11.83-6.67s1.93 1.65 3.29 3a41 41 0 0 1 3 3.38l-6.75 11.76a4.84 4.84 0 0 0-.18 4.21l3.34 8a5 5 0 0 0 3.15 3l13 3.5z"/><path class="cls-3" transform="rotate(-17.01 162.192 54.233)" d="M160.26 52.85h3.86v2.76h-3.86z"/><path class="cls-3" transform="rotate(-47.01 163.88 48.115)" d="M162.5 46.18h2.76v3.86h-2.76z"/><path class="cls-3" transform="rotate(-77.02 170.038 46.514)" d="M168.09 45.14h3.86v2.76h-3.86z"/><path class="cls-3" transform="rotate(-17.02 174.457 51.044)" d="M172.54 49.66h3.86v2.76h-3.86z"/><path class="cls-3" transform="rotate(-47.01 172.784 57.156)" d="M171.4 55.23h2.76v3.86h-2.76z"/><path class="cls-3" transform="rotate(-77.03 166.64 58.747)" d="M164.71 57.37h3.86v2.76h-3.86z"/><circle cx="151.43" cy="37.47" r="2.55" fill="#e74355"/></svg>