<svg id="Layer_1" data-name="Layer 1" xmlns="http://www.w3.org/2000/svg" viewBox="0 0 200 200"><defs><style>.cls-3{fill:#49a2b8}</style></defs><circle cx="124.3" cy="114.38" r="51.83" fill="#e74355"/><path d="M41.64 84.2a5.68 5.68 0 0 0 5-3l26.28 12.27a22 22 0 0 0 4 19.7l-21.36 23a10.86 10.86 0 1 0 3 2.36l21-22.61a22.08 22.08 0 0 0 27.31 1.8l33.71 37.91a5.7 5.7 0 1 0 9.94-.28 5.65 5.65 0 0 0-3.51-2.6 5.56 5.56 0 0 0-3.64.29l-33.56-37.74a22.09 22.09 0 0 0 6.65-14l18.73-.54a8.25 8.25 0 1 0 0-3.81l-18.72.54a22 22 0 0 0-4.69-11.78l35.4-30.1a10.8 10.8 0 1 0-2.69-2.71l-35.32 30a22 22 0 0 0-21.95-4.5l-9.58-24.6a8.22 8.22 0 1 0-4.28 1.2h.66l9.7 24.92a22.3 22.3 0 0 0-9.45 10L47.19 77.21a5.7 5.7 0 1 0-5.55 7zM146 156.46a1.9 1.9 0 0 1 1.38 2.31 1.9 1.9 0 0 1-1.84 1.44 1.82 1.82 0 0 1-.46-.06 1.91 1.91 0 0 1-1.39-2.31 2 2 0 0 1 .87-1.17 1.87 1.87 0 0 1 1.44-.21zm-2.88-62.11a4.44 4.44 0 1 1-4.44 4.44 4.44 4.44 0 0 1 4.46-4.44zm-74.2-47.58a4.44 4.44 0 1 1 4.44 4.44 4.44 4.44 0 0 1-4.44-4.44zm-18.4 105.94a7 7 0 1 1 7-7 7 7 0 0 1-7 7zM153.29 39.79a7 7 0 1 1-7 7 7 7 0 0 1 7-7zM94.29 81a18.4 18.4 0 1 1-18.4 18.39A18.42 18.42 0 0 1 94.29 81zm-52.65-4.41a1.9 1.9 0 1 1-1.91 1.9 1.9 1.9 0 0 1 1.91-1.9z" fill="#2f3544"/><path class="cls-3" transform="rotate(-2.57 85.444 177.653)" d="M84.11 175.86h2.76v3.86h-2.76z"/><path class="cls-3" d="M87.17 179.85L84 180l-.19-4.26 3.17-.14zm-2.78-.29l2.35-.1-.15-3.46-2.35.1z"/><path class="cls-3" transform="rotate(-62.58 90.67 174.14)" d="M89.3 172.21h2.76v3.86H89.3z"/><path class="cls-3" d="M93.37 173.8l-1.48 2.84-3.82-2 1.48-2.84zm-1.65 2.28l1.09-2.1-3.09-1.6-1.09 2.1z"/><path class="cls-3" transform="rotate(-32.55 90.109 167.803)" d="M88.19 166.44h3.86v2.76h-3.86z"/><path class="cls-3" d="M91.11 165.35l-3.63 2.32 1.72 2.7 3.63-2.32zm-3.06 2.45l2.95-1.87 1.28 2-2.93 1.87z"/><path class="cls-3" transform="rotate(-2.57 84.169 164.912)" d="M82.99 163.22h2.76v3.86h-2.76z"/><path class="cls-3" d="M86.05 167.24l-3.19.15-.2-4.3 3.2-.15zm-2.8-.29l2.37-.1-.16-3.47-2.36.1z"/><path class="cls-3" transform="rotate(-62.58 79.163 168.79)" d="M77.79 166.86h2.76v3.86h-2.76z"/><path class="cls-3" d="M81.77 168.41l-1.47 2.84-3.82-2 1.52-2.82zm-1.65 2.28l1.09-2.1-3.08-1.59-1.13 2.09z"/><path class="cls-3" transform="rotate(-32.9 78.737 174.7)" d="M77.8 173.74h3.86v2.76H77.8z"/><path class="cls-3" d="M82.36 175.4l-3.63 2.31L77 175l3.63-2.32zm-3.5 1.74l2.93-1.87-1.28-2-2.92 1.87z"/><circle cx="107.97" cy="179.53" r="2.55" fill="#596379"/></svg>