<svg id="Layer_1" data-name="Layer 1" xmlns="http://www.w3.org/2000/svg" viewBox="0 0 200 200"><defs><style>.cls-2{fill:#2f3544}.cls-3{fill:#ec6335}</style></defs><circle cx="121.89" cy="115.38" r="51.83" fill="#e74355"/><path class="cls-2" d="M159.65 161.53a2.16 2.16 0 0 1-2.16-2.16V66.09a2.16 2.16 0 1 1 4.32 0v93.28a2.15 2.15 0 0 1-2.16 2.16zM140.18 161.53a2.16 2.16 0 0 1-2.16-2.16v-50.56a2.17 2.17 0 0 1 4.33 0v50.56a2.16 2.16 0 0 1-2.17 2.16zM120.72 161.53a2.16 2.16 0 0 1-2.17-2.16V127.2a2.17 2.17 0 1 1 4.33 0v32.17a2.16 2.16 0 0 1-2.16 2.16zM101.25 161.53a2.16 2.16 0 0 1-2.17-2.16v-20.82a2.17 2.17 0 0 1 4.33 0v20.82a2.16 2.16 0 0 1-2.16 2.16zM81.78 161.53a2.15 2.15 0 0 1-2.16-2.16v-13.25a2.16 2.16 0 0 1 4.32 0v13.25a2.15 2.15 0 0 1-2.16 2.16zM62.31 161.53a2.16 2.16 0 0 1-2.16-2.16v-8.92a2.16 2.16 0 1 1 4.32 0v8.92a2.15 2.15 0 0 1-2.16 2.16zM42.84 161.53a2.16 2.16 0 0 1-2.16-2.16v-6.21a2.17 2.17 0 0 1 4.33 0v6.21a2.16 2.16 0 0 1-2.17 2.16zM45.65 140.24c-4 0-6.53-.21-6.86-.24a2.16 2.16 0 1 1 .39-4.3 130.44 130.44 0 0 0 53.21-8.53c35.94-14.26 56.55-43.46 61.25-86.78a2.16 2.16 0 0 1 4.3.47C151.85 97 119.72 121 93.84 131.25a134.48 134.48 0 0 1-48.19 8.99z"/><path class="cls-2" d="M161 49.29a2.15 2.15 0 0 1-1.69-.81l-3.87-4.81-4.8 3.87a2.17 2.17 0 1 1-2.72-3.37l6.5-5.23a2.17 2.17 0 0 1 3 .33l5.22 6.5a2.17 2.17 0 0 1-1.64 3.52z"/><path class="cls-3" transform="rotate(-2.57 73.416 67.66)" d="M72.11 65.86h2.76v3.86h-2.76z"/><path class="cls-3" d="M75.17 69.85L72 70l-.19-4.26 3.19-.15zm-2.78-.29l2.35-.1-.15-3.46-2.35.1z"/><path class="cls-3" transform="rotate(-62.58 78.676 64.14)" d="M77.3 62.21h2.76v3.86H77.3z"/><path class="cls-3" d="M81.37 63.8l-1.48 2.84-3.82-2 1.48-2.84zm-1.65 2.28L80.81 64l-3.09-1.6-1.09 2.1z"/><path class="cls-3" transform="rotate(-32.55 78.113 57.821)" d="M76.19 56.44h3.86v2.76h-3.86z"/><path class="cls-3" d="M79.11 55.35l-3.63 2.32 1.72 2.7 3.63-2.32zm-3.06 2.45L79 55.93l1.28 2-2.93 1.87z"/><path class="cls-3" transform="rotate(-2.57 72.358 55.147)" d="M70.99 53.22h2.76v3.86h-2.76z"/><path class="cls-3" d="M74.05 57.24l-3.19.15-.2-4.3 3.2-.15zm-2.8-.24l2.37-.1-.16-3.47-2.36.1z"/><path class="cls-3" transform="rotate(-62.58 67.168 58.792)" d="M65.79 56.86h2.76v3.86h-2.76z"/><path class="cls-3" d="M69.77 58.41l-1.47 2.84-3.82-2L66 56.43zm-1.65 2.28l1.09-2.1L66.13 57 65 59.09z"/><path class="cls-3" transform="rotate(-32.57 67.746 65.116)" d="M65.8 63.74h3.86v2.76H65.8z"/><path class="cls-3" d="M70.36 65.4l-3.63 2.31L65 65l3.63-2.32zm-3.5 1.74l2.93-1.87-1.28-2-2.92 1.87z"/><circle cx="90.01" cy="50.3" r="2.55" fill="#49a1b7"/></svg>