<svg id="Layer_1" data-name="Layer 1" xmlns="http://www.w3.org/2000/svg" viewBox="0 0 200 200"><defs><style>.cls-2{fill:#2f3544}.cls-3{fill:#e84355}</style></defs><circle cx="82.43" cy="134.49" r="51.83" fill="#eb6335"/><path class="cls-2" d="M136.2 163.53H61.51a7.61 7.61 0 0 1-7.33-7.86V61.13l22.45-24.66h59.57a7.62 7.62 0 0 1 7.34 7.86v11.72h-4V44.33a3.63 3.63 0 0 0-3.34-3.86H78.4L58.18 62.68v93a3.63 3.63 0 0 0 3.33 3.86h74.69a3.63 3.63 0 0 0 3.34-3.86v-46.89h4v46.88a7.62 7.62 0 0 1-7.34 7.86z"/><path class="cls-2" d="M82.18 66.84h-18v-4h14V47.26h4v19.58zM98.09 134.23a3.8 3.8 0 0 1-2.91-1.17c-1.5-1.66-2.31-5.06 4.87-16.78a151.22 151.22 0 0 1 15.88-21.14l35.84-39.37c4.79-5.26 10.56-8.53 15-8.53a6.67 6.67 0 0 1 5.1 2.08c4.31 4.73.4 14.69-5.88 21.58l-35.83 39.37c-8.87 9.79-25.44 23.96-32.07 23.96zm.13-3.75zm0-.23h.08c3.36 0 17.31-9.84 29-22.69l35.84-39.36c5.9-6.49 8-13.9 5.87-16.2a2.75 2.75 0 0 0-2.14-.77c-2.75 0-7.55 2.24-12.09 7.23l-35.89 39.37c-11.28 12.4-21.29 28.91-20.72 32.42z"/><path class="cls-2" d="M92 138.81a2 2 0 0 1-1.48-3.35l4.65-5.1a2 2 0 1 1 3 2.7l-4.64 5.1a2 2 0 0 1-1.53.65zM151 104.05l-3-2.69 18.86-20.72a4.3 4.3 0 0 0 0-5.6l-15.09-16.57 3-2.7 15.09 16.58a8.34 8.34 0 0 1 0 11z"/><path class="cls-2" transform="rotate(-42.31 121.19 104.775)" d="M119.18 96.37h4v16.81h-4z"/><path class="cls-2" transform="rotate(-47.68 173.13 47.71)" d="M169.13 45.71h7.99v4h-7.99z"/><path class="cls-3" transform="rotate(-2.57 26.51 100.729)" d="M25.11 98.86h2.76v3.86h-2.76z"/><path class="cls-3" d="M28.17 102.85L25 103l-.19-4.26 3.19-.15zm-2.78-.29l2.35-.1-.15-3.46-2.35.1z"/><path class="cls-3" transform="rotate(-62.58 31.68 97.145)" d="M30.3 95.21h2.76v3.86H30.3z"/><path class="cls-3" d="M34.37 96.8l-1.48 2.84-3.82-2 1.48-2.84zm-1.65 2.28L33.81 97l-3.09-1.6-1.09 2.1z"/><path class="cls-3" transform="rotate(-32.55 31.124 90.81)" d="M29.19 89.44h3.86v2.76h-3.86z"/><path class="cls-3" d="M32.11 88.35l-3.63 2.32 1.72 2.7 3.63-2.32zm-3.06 2.45L32 88.93l1.28 2-2.93 1.87z"/><path class="cls-3" transform="rotate(-2.57 25.234 87.988)" d="M23.99 86.22h2.76v3.86h-2.76z"/><path class="cls-3" d="M27.05 90.24l-3.19.15-.2-4.3 3.2-.15zm-2.8-.24l2.37-.1-.16-3.47-2.36.1z"/><path class="cls-3" transform="rotate(-62.58 20.165 91.791)" d="M18.79 89.86h2.76v3.86h-2.76z"/><path class="cls-3" d="M22.77 91.41l-1.47 2.84-3.82-2L19 89.43zm-1.65 2.28l1.09-2.1L19.13 90 18 92.09z"/><path class="cls-3" transform="rotate(-32.9 20.285 97.788)" d="M18.8 96.74h3.86v2.76H18.8z"/><path class="cls-3" d="M23.36 98.4l-3.63 2.31L18 98l3.63-2.32zm-3.5 1.74l2.93-1.87-1.28-2-2.92 1.87z"/><circle cx="39.89" cy="78.97" r="2.55" fill="#596379"/></svg>