<svg id="Layer_1" data-name="Layer 1" xmlns="http://www.w3.org/2000/svg" xmlns:xlink="http://www.w3.org/1999/xlink" viewBox="0 0 200 200"><defs><style>.cls-1,.cls-6{fill:none;}.cls-2{fill:#596379;opacity:0.75;}.cls-3{fill:#49a1b7;}.cls-4{fill:#e84355;}.cls-5{clip-path:url(#clip-path);}.cls-6{stroke:#2f3544;stroke-linecap:round;stroke-linejoin:round;stroke-width:5px;}</style><clipPath id="clip-path"><rect class="cls-1" x="48.07" y="46.37" width="138.57" height="138.64"/></clipPath></defs><circle class="cls-2" cx="86.94" cy="93.4" r="64.72"/><circle class="cls-3" cx="16.55" cy="47.89" r="3.19"/><rect class="cls-4" x="23.83" y="27.72" width="4.82" height="3.45" transform="translate(-9.96 13.79) rotate(-24.91)"/><path class="cls-4" d="M24.65,32.37,23,28.77l4.84-2.24,1.67,3.59Zm-1-3.35,1.23,2.67,3.91-1.82-1.24-2.66Z"/><rect class="cls-4" x="30.5" y="31.99" width="4.82" height="3.45" transform="translate(-3.58 63.51) rotate(-84.92)"/><path class="cls-4" d="M34.58,36.65l-4-.35.47-5.36,4,.36Zm-3.41-.82,2.94.26.39-4.32-2.95-.26Z"/><rect class="cls-4" x="38.22" y="27.66" width="3.45" height="4.82" transform="translate(-7.62 45.46) rotate(-54.89)"/><path class="cls-4" d="M43.27,30l-4.4-3.09-2.3,3.27L41,33.3ZM39,27.67l3.55,2.49-1.7,2.42-3.55-2.5Z"/><rect class="cls-4" x="37.9" y="20.43" width="4.82" height="3.45" transform="translate(-5.58 19.04) rotate(-24.91)"/><path class="cls-4" d="M38.69,25.09,37,21.47l4.88-2.27,1.68,3.62Zm-1-3.37,1.25,2.68,3.93-1.83-1.24-2.68Z"/><rect class="cls-4" x="31.22" y="16.16" width="4.82" height="3.45" transform="translate(12.84 49.8) rotate(-84.92)"/><path class="cls-4" d="M35.31,20.7l-4-.35L31.8,15l4,.35Zm-3.42-.82,3,.26.38-4.32-2.94-.27Z"/><rect class="cls-4" x="24.87" y="19.12" width="3.45" height="4.82" transform="translate(-6.31 30.92) rotate(-54.92)"/><path class="cls-4" d="M27.52,24.7l-4.4-3.09,2.29-3.27,4.4,3.09Zm-3.68-3.22L27.39,24l1.7-2.42-3.55-2.5Z"/><g class="cls-5"><path class="cls-6" d="M130.89,127.14a18,18,0,1,1-25.5-25.5m8,29L164.7,79.33m-11-11-52.21,52.2M155.8,66.23l11,11,9.72-9.72-11-11Zm17.12-17-7.6,7.59,10.9,10.9,7.59-7.59a1.52,1.52,0,0,0-.29-2.1l-8.5-8.5A1.52,1.52,0,0,0,172.92,49.19Zm-37.33,60.66a18,18,0,1,1-10.67-12.17m16.77-18.39A41.49,41.49,0,0,0,136,75.85l.33-5.89-12.68-3.48L121,71.58a42.2,42.2,0,0,0-7.11,0l-2.45-4.86L98.72,70,99,75.59a42.57,42.57,0,0,0-6.17,3.68l-4.55-3L78.9,85.53,82,90.43a41.94,41.94,0,0,0-3.29,6.11L73,96.21l-3.48,12.68,5.74,3a43,43,0,0,0,.22,6.32l-5.76,2.91L73,133.82l7.23-.32a44,44,0,0,0,3,4.74l-4,6.06,9.24,9.35,6.76-4.32a42.67,42.67,0,0,0,4.37,2.33l-.45,7.92,12.68,3.48,3.93-7.58a42.57,42.57,0,0,0,4.52-.08l3.76,7.46,12.72-3.33-.39-8.63q2-1,3.86-2.25l7,4.59,9.34-9.24-4.51-7.06a42,42,0,0,0,2.4-4.06l8.05.45,3.47-12.69-6.94-3.59a42,42,0,0,0,.1-5.26l6.64-3.35-3.32-12.72-7.06.32a42.68,42.68,0,0,0-2.84-5.28M70.84,173.2l22.31-22.31m-11-11L59.87,162.24m4.94,6a22.94,22.94,0,0,0-5.68-4.18l-8.54,18.4L69,173.94A23,23,0,0,0,64.81,168.27Z"/></g></svg>