<svg id="Layer_1" data-name="Layer 1" xmlns="http://www.w3.org/2000/svg" viewBox="0 0 600 600"><defs><style>.cls-1{fill:#fff;}</style></defs><rect class="cls-1" x="72.17" y="256.11" width="10.99" height="76.85"/><path class="cls-1" d="M77.32,410.64a23.92,23.92,0,0,1-23.9-23.88V344.28a23.9,23.9,0,0,1,47.79,0v42.48A23.92,23.92,0,0,1,77.32,410.64Zm0-79.26a12.92,12.92,0,0,0-12.91,12.9v42.48a12.91,12.91,0,0,0,25.82,0V344.28A12.91,12.91,0,0,0,77.32,331.38Z"/><path class="cls-1" d="M308,282.84a141.35,141.35,0,0,1-26.06-2.13L84.1,239.89C79.73,239,69.41,237,69.41,229.57s10.32-9.46,14.73-10.33l197.74-40.8a159.68,159.68,0,0,1,52.17,0l197.83,40.82c4.37.86,14.7,2.91,14.7,10.32S536.25,239,531.84,239.9L334.09,280.7A141.25,141.25,0,0,1,308,282.84ZM88.44,229.57,284.1,269.94c12.34,2.43,35.39,2.45,47.82,0l195.62-40.36L331.88,189.2c-12.35-2.44-35.38-2.45-47.83,0Z"/><path class="cls-1" d="M308,315.48a141.35,141.35,0,0,1-26.06-2.13L75.1,263.66a5.48,5.48,0,0,1-4.2-5.06l-1.48-28.66v-.35a5.49,5.49,0,0,1,10.47-2.33,27,27,0,0,0,6.4,1.86L284.1,269.94c12.34,2.43,35.39,2.45,47.82,0l197.74-40.8a27,27,0,0,0,6.45-1.88,5.55,5.55,0,0,1,5.15-3.16,5.49,5.49,0,0,1,5.31,5.57v.21h0s0,.06,0,.08v0l-1.48,28.63a5.48,5.48,0,0,1-4.19,5.06L334.27,313.3A141,141,0,0,1,308,315.48ZM81.66,253.94l202.62,48.68a149.88,149.88,0,0,0,47.64-.05l202.41-48.63.75-14.77c-1.08.28-2.17.52-3.24.73L334.09,280.7a141.25,141.25,0,0,1-26.1,2.14,141.35,141.35,0,0,1-26.06-2.13L84.1,239.89c-1-.21-2.13-.44-3.21-.71Z"/><path class="cls-1" d="M463.74,423.71H150.32a5.49,5.49,0,0,1-5.5-5.49V276.09a5.49,5.49,0,0,1,6.78-5.34l132.68,31.87a149.88,149.88,0,0,0,47.64-.05l130.53-31.36a5.5,5.5,0,0,1,6.79,5.34V418.22A5.5,5.5,0,0,1,463.74,423.71Zm-307.93-11H458.24V283.52l-124,29.78A141,141,0,0,1,308,315.48a141.35,141.35,0,0,1-26.06-2.13l-126.12-30.3Z"/></svg>