<svg id="Layer_1" data-name="Layer 1" xmlns="http://www.w3.org/2000/svg" viewBox="0 0 600 600"><defs><style>.cls-1{fill:none;stroke:#fff;stroke-miterlimit:10;stroke-width:10px;}</style></defs><path class="cls-1" d="M442.51,130.76h-285a26.73,26.73,0,0,0-26.73,26.73v285a26.73,26.73,0,0,0,26.73,26.73h153.3l.35-131.55H266.35v-51h44.79V247.85c0-44.21,26.33-68.62,66.6-68.62a270.75,270.75,0,0,1,39.48,3.45v47.85L393,230.31c-21.92,0-26.79,9.38-26.79,23.32v33.08h48.9l-7.81,51H366.24V469.24h76.27a26.73,26.73,0,0,0,26.73-26.73v-285A26.73,26.73,0,0,0,442.51,130.76Z"/></svg>