<svg xmlns="http://www.w3.org/2000/svg" xmlns:xlink="http://www.w3.org/1999/xlink" id="Layer_1" data-name="Layer 1" viewBox="0 0 200 189.81"><defs><style>.cls-1,.cls-6,.cls-7,.cls-8{fill:none}.cls-2{fill:#e74355;opacity:.75}.cls-3{fill:#ec6335}.cls-4{fill:#49a1b7}.cls-5{clip-path:url(#clip-path)}.cls-6,.cls-7,.cls-8{stroke:#2f3544}.cls-6,.cls-7{stroke-width:4px}.cls-7{stroke-miterlimit:10}.cls-8{stroke-width:3px}</style><clipPath id="clip-path"><rect width="139.57" height="121.73" x="17.42" y="10.55" class="cls-1"/></clipPath></defs><circle cx="103.66" cy="91.4" r="64.72" class="cls-2"/><rect width="3.45" height="4.82" x="157.05" y="163.91" class="cls-3" transform="translate(-7.29 7.28) rotate(-2.57)"/><path d="M160.87,168.89l-4,.18-.24-5.33,4-.17Zm-3.47-.36,2.93-.13-.19-4.3-2.93.13Z" class="cls-3"/><rect width="3.45" height="4.82" x="163.53" y="159.36" class="cls-3" transform="translate(-54.44 233.95) rotate(-62.58)"/><path d="M168.61,161.34l-1.84,3.54L162,162.41l1.84-3.55Zm-2.06,2.84,1.36-2.62-3.85-2-1.37,2.62Z" class="cls-3"/><rect width="4.82" height="3.45" x="162.15" y="152.15" class="cls-3" transform="translate(-56.94 112.69) rotate(-32.55)"/><path d="M165.79,150.79l-4.53,2.89,2.14,3.37,4.54-2.89ZM162,153.84l3.66-2.34,1.59,2.5-3.66,2.33Z" class="cls-3"/><rect width="3.45" height="4.82" x="155.65" y="148.12" class="cls-3" transform="translate(-6.58 7.2) rotate(-2.57)"/><path d="M159.47,153.15l-4,.18-.24-5.37,4-.18Zm-3.49-.36,3-.14-.19-4.33-3,.13Z" class="cls-3"/><rect width="3.45" height="4.82" x="149.16" y="152.67" class="cls-3" transform="translate(-56.26 217.59) rotate(-62.58)"/><path d="M154.13,154.6l-1.84,3.55-4.78-2.48,1.84-3.54Zm-2.06,2.85,1.36-2.62-3.85-2-1.36,2.62Z" class="cls-3"/><rect width="4.82" height="3.45" x="149.17" y="161.25" class="cls-3" transform="translate(-63.9 107.25) rotate(-32.57)"/><path d="M154.87,163.33l-4.54,2.89-2.15-3.36,4.53-2.9Zm-4.38,2.18,3.66-2.34-1.59-2.49L148.9,163Z" class="cls-3"/><circle cx="179.39" cy="144.47" r="3.19" class="cls-4"/><g class="cls-5"><path d="M155.16,52.51a40.14,40.14,0,1,0-80.27,0c0,.26,0,.52,0,.79A40.14,40.14,0,0,1,99.48,89.52a40.14,40.14,0,0,0,55.68-37Z" class="cls-6"/><path d="M119,78V54.74h7.79l1.17-9.05h-9V39.92c0-2.62.72-4.41,4.48-4.41h4.79V27.42a63.77,63.77,0,0,0-7-.36c-6.91,0-11.64,4.22-11.64,12v6.67h-7.81v9.05h7.81V78Z" class="cls-7"/><circle cx="59.38" cy="90.31" r="40.14" class="cls-6"/><rect width="40.75" height="40.75" x="39" y="68.84" class="cls-6" rx="9.12"/><path d="M59.38,99.46A10.24,10.24,0,1,0,49.14,89.22,10.25,10.25,0,0,0,59.38,99.46Z" class="cls-6"/><circle cx="70.53" cy="76.04" r="1.11" class="cls-8"/></g></svg>