<svg xmlns="http://www.w3.org/2000/svg" xmlns:xlink="http://www.w3.org/1999/xlink" id="Layer_1" data-name="Layer 1" viewBox="0 0 200 189.64"><defs><style>.cls-1{fill:none}.cls-2{fill:#e84355;opacity:.75}.cls-3{fill:#4cc1bb}.cls-4{fill:#596379}.cls-5{clip-path:url(#clip-path)}.cls-6{fill:#2f3544}</style><clipPath id="clip-path"><rect width="128.81" height="110.76" x="62.07" y="54.52" class="cls-1"/></clipPath></defs><circle cx="90.23" cy="86.52" r="64.72" class="cls-2"/><rect width="3.45" height="4.82" x="18.65" y="42.03" class="cls-3" transform="translate(-1.97 0.96) rotate(-2.57)"/><path d="M22.47,47l-4,.18-.24-5.33,4-.18ZM19,46.65l2.94-.13-.2-4.3-2.93.13Z" class="cls-3"/><rect width="3.45" height="4.82" x="25.13" y="37.47" class="cls-3" transform="translate(-20.91 45.35) rotate(-62.58)"/><path d="M30.21,39.45,28.37,43,23.6,40.52,25.44,37ZM28.15,42.3l1.36-2.62-3.85-2L24.3,40.3Z" class="cls-3"/><rect width="4.82" height="3.45" x="23.75" y="30.26" class="cls-3" transform="translate(-13.1 19.1) rotate(-32.55)"/><path d="M27.39,28.9l-4.53,2.9L25,35.16l4.53-2.89ZM23.58,32l3.65-2.34,1.59,2.49-3.65,2.34Z" class="cls-3"/><rect width="3.45" height="4.82" x="17.25" y="26.24" class="cls-3" transform="translate(-1.26 0.88) rotate(-2.57)"/><path d="M21.08,31.26l-4,.18-.25-5.37,4-.18Zm-3.5-.36,3-.13-.19-4.33-2.95.13Z" class="cls-3"/><rect width="3.45" height="4.82" x="10.76" y="30.79" class="cls-3" transform="translate(-22.73 28.99) rotate(-62.58)"/><path d="M15.73,32.72l-1.84,3.55L9.12,33.79,11,30.25Zm-2.06,2.85L15,32.94l-3.85-2L9.82,33.57Z" class="cls-3"/><rect width="4.82" height="3.45" x="10.78" y="39.37" class="cls-3" transform="translate(-20.05 13.56) rotate(-32.57)"/><path d="M16.47,41.45l-4.53,2.89L9.79,41l4.53-2.89ZM12.1,43.62l3.65-2.33L14.16,38.8,10.5,41.13Z" class="cls-3"/><circle cx="37.11" cy="17.18" r="3.19" class="cls-4"/><g class="cls-5"><path d="M182.83,161.46H157.67V143.39a21.23,21.23,0,0,0,3.45-3.89h25.74v18.14a3.93,3.93,0,0,1-4,3.82M66.1,157.64V139.5H95.28v22H70.12a3.92,3.92,0,0,1-4-3.82m29.18-42H66.1v-21H95.28Zm-29.18-42a3.92,3.92,0,0,1,4-3.82h8v3.82a8.06,8.06,0,0,0,16.1,0V69.8h64.41v3.82a8.06,8.06,0,0,0,16.1,0V69.8h8.05a3.93,3.93,0,0,1,4,3.82V88.9H66.1ZM82.2,62.16a4,4,0,0,1,8,0V73.62a4,4,0,0,1-8,0Zm80.5,0a4,4,0,0,1,8.06,0V73.62a4,4,0,0,1-8.06,0Zm-2.28,53.47a21.17,21.17,0,0,0-2.75-2.93V94.62h29.19v21Zm1.32,1.91h25.12v20H162.29a20,20,0,0,0-.55-20m-19.16,27.69c-10,0-18.12-7.71-18.12-17.19s8.13-17.18,18.12-17.18,18.11,7.71,18.11,17.18-8.12,17.19-18.11,17.19m-15.1-1.84A23,23,0,0,0,155.66,145v16.48H127.48ZM124,139.5a20,20,0,0,0,1.43,1.86v20.1H97.29v-22ZM142.58,107a22.71,22.71,0,0,0-15.1,5.66V94.62h28.18v16.49A22.8,22.8,0,0,0,142.58,107M125.47,94.62v20.11c-.25.29-.5.59-.74.9H97.29v-21Zm-30.19,43H66.1v-20H95.28Zm2-20h26.13a20,20,0,0,0-.55,20H97.29ZM182.83,66h-8.05V62.16a8.06,8.06,0,0,0-16.1,0V66H94.27V62.16a8.06,8.06,0,0,0-16.1,0V66h-8a7.88,7.88,0,0,0-8.05,7.64v84a7.88,7.88,0,0,0,8.05,7.64H182.83a7.87,7.87,0,0,0,8-7.64v-84a7.88,7.88,0,0,0-8-7.64" class="cls-6"/></g><polygon points="153.54 118.42 138.19 132.99 132.02 127.13 127.75 131.19 138.19 141.09 157.81 122.47 153.54 118.42" class="cls-6"/></svg>