<svg id="Layer_1" data-name="Layer 1" xmlns="http://www.w3.org/2000/svg" viewBox="0 0 600 600"><defs><style>.cls-1{fill:#fff;}.cls-2{fill:none;stroke:#fff;stroke-miterlimit:10;stroke-width:5px;}</style></defs><path class="cls-1" d="M387.86,488.65H216.31a25.76,25.76,0,0,1-25.73-25.73V425a5.64,5.64,0,0,1,5.65-5.65H407.94a5.64,5.64,0,0,1,5.65,5.65v37.94A25.76,25.76,0,0,1,387.86,488.65Zm-186-58v32.29a14.45,14.45,0,0,0,14.43,14.43H387.86a14.45,14.45,0,0,0,14.43-14.43V430.63Z"/><path class="cls-1" d="M407.94,158.36H196.23a5.65,5.65,0,0,1-5.65-5.65V121.45a25.76,25.76,0,0,1,25.73-25.73H387.86a25.76,25.76,0,0,1,25.73,25.73v31.26A5.65,5.65,0,0,1,407.94,158.36Zm-206.06-11.3H402.29V121.45A14.45,14.45,0,0,0,387.86,107H216.31a14.45,14.45,0,0,0-14.43,14.43Z"/><path class="cls-1" d="M407.94,430.63H196.23a5.65,5.65,0,0,1-5.65-5.65V152.71a5.65,5.65,0,0,1,5.65-5.65H407.94a5.65,5.65,0,0,1,5.65,5.65V425A5.65,5.65,0,0,1,407.94,430.63Zm-206.06-11.3H402.29v-261H201.88Z"/><rect class="cls-1" x="280.73" y="448.85" width="42.71" height="11.3"/><rect class="cls-1" x="278.53" y="122.35" width="13.7" height="11.3"/><rect class="cls-1" x="299.85" y="122.34" width="37.19" height="11.3"/><circle class="cls-2" cx="302.08" cy="292.19" r="54.13"/><path class="cls-1" d="M324.64,289,297,272.1a3.74,3.74,0,0,0-5.7,3.19v33.79a3.74,3.74,0,0,0,5.7,3.19l27.62-16.89A3.74,3.74,0,0,0,324.64,289Z"/></svg>