<svg xmlns="http://www.w3.org/2000/svg" xmlns:xlink="http://www.w3.org/1999/xlink" viewBox="0 0 501.93 48.11"><defs><clipPath id="clip-path"><path d="M31.91,24.33c0,7.88,5.36,14.5,14.15,14.5s14.15-6.62,14.15-14.5a16.69,16.69,0,0,0-.59-4.4L49.55,30,47.42,32.1a1.5,1.5,0,0,1-2.12,0L43.17,30,37.5,24.31a1.51,1.51,0,0,1,0-2.13l2.13-2.13a1.51,1.51,0,0,1,2.13,0l4.6,4.62L56.69,14.45A13.71,13.71,0,0,0,46.06,9.9c-8.79,0-14.15,6.5-14.15,14.43" style="fill:none"/></clipPath><linearGradient id="linear-gradient" x1="-724.9" y1="1323.53" x2="-723.9" y2="1323.53" gradientTransform="matrix(50.9, 0, 0, -50.9, 36920.03, 67397.91)" gradientUnits="userSpaceOnUse"><stop offset="0" stop-color="#ec2475"/><stop offset="1" stop-color="#f16522"/></linearGradient></defs><title>Asset 1</title><g id="Layer_2" data-name="Layer 2"><g id="Layer_1-2" data-name="Layer 1"><path d="M22.37,12.15c0-3.65-2.74-6-6.51-6H6.68v12.1h9.18c3.77,0,6.51-2.4,6.51-6.11m-.63,26.2L13.35,24.14H6.68V38.35H0V.29H16.72c7.53,0,12.5,4.85,12.5,11.92,0,6.73-4.45,10.44-9.08,11.19l9.36,15Z" style="fill:#353535"/><path d="M83.43,32.07V27.85A8.21,8.21,0,0,0,76.87,25c-3.37,0-5.94,2-5.94,5s2.57,5,5.94,5a8.23,8.23,0,0,0,6.56-2.85m0,6.28v-3a11.59,11.59,0,0,1-9,3.71C70,39,64.94,36,64.94,29.9c0-6.39,5-9,9.53-9,3.77,0,6.91,1.2,9,3.54V20.31c0-3.19-2.68-5.13-6.45-5.13a11,11,0,0,0-8.16,3.54l-2.51-4.17A16.16,16.16,0,0,1,77.9,10.1c6.16,0,11.52,2.57,11.52,9.93V38.35Z" style="fill:#353535"/><path d="M114.3,30V19.12a8.92,8.92,0,0,0-7.07-3.71c-4.8,0-7.82,3.82-7.82,9.13s3,9.18,7.82,9.18A8.94,8.94,0,0,0,114.3,30m0,8.33V34.58A11.07,11.07,0,0,1,105.46,39c-7,0-12.21-5.36-12.21-14.49,0-8.9,5.13-14.44,12.21-14.44a10.72,10.72,0,0,1,8.84,4.51V.29h6V38.35Z" style="fill:#353535"/><path d="M124.58,34.69l2.73-4.28a14.17,14.17,0,0,0,9.31,3.83c3.59,0,5.47-1.49,5.47-3.65,0-5.43-16.66-1.55-16.66-12.16,0-4.51,3.88-8.33,10.84-8.33a15.73,15.73,0,0,1,10.67,3.82l-2.51,4.23a11.22,11.22,0,0,0-8.16-3.31c-3.13,0-5.08,1.48-5.08,3.42,0,4.85,16.67,1.2,16.67,12.15,0,4.91-4.05,8.62-11.47,8.62a16.67,16.67,0,0,1-11.81-4.34" style="fill:#353535"/><path d="M152.71,10.78h6V38.35h-6ZM152,3.71a3.71,3.71,0,1,1,3.71,3.71A3.7,3.7,0,0,1,152,3.71" style="fill:#353535"/><path d="M184.72,30V19.12a8.92,8.92,0,0,0-7.07-3.71c-4.8,0-7.82,3.82-7.82,9.13s3,9.18,7.82,9.18a8.94,8.94,0,0,0,7.07-3.7m0,8.33V34.58A11.07,11.07,0,0,1,175.88,39c-7,0-12.22-5.36-12.22-14.49,0-8.9,5.14-14.44,12.22-14.44a10.74,10.74,0,0,1,8.84,4.51V.29h6V38.35Z" style="fill:#353535"/><path d="M209.6,15a7.54,7.54,0,0,0-7.7,7.25h15.52A7.42,7.42,0,0,0,209.6,15m-13.92,9.53c0-8,5.82-14.44,14-14.44s13.52,6.28,13.52,15v1.48H202a8.32,8.32,0,0,0,8.73,7.59A11.57,11.57,0,0,0,218.56,31L221.3,35A16.29,16.29,0,0,1,210.12,39c-8.34,0-14.44-5.76-14.44-14.49" style="fill:#353535"/><g style="clip-path:url(#clip-path)"><rect x="27.74" y="5.86" width="36.64" height="37.01" transform="translate(-5.62 17.67) rotate(-20.5)" style="fill:url(#linear-gradient)"/></g><path d="M496.74,31.63a7,7,0,0,0,5.19-2.21V24.73h-5.72v1.52h3.92v2.47A4.93,4.93,0,0,1,496.74,30a4.84,4.84,0,0,1-4.92-5,4.92,4.92,0,0,1,8.61-3.35l1.41-.95a6.7,6.7,0,1,0-5.1,10.92m-13.19-.27V18.66h-1.8v9.69l-7.44-9.69h-1.89v12.7h1.8V21.47l7.51,9.89ZM464,18.66h-1.82v12.7H464Zm-12.61,12.7V20.25h3.93V18.66h-9.68v1.59h3.95V31.36Zm-12.51,0v-1.6h-7V25.65h6.88V24.06h-6.88V20.25h7V18.66h-8.82v12.7Zm-15.38,0-6.05-6.68,5.59-6h-2.27L415,25V18.66h-1.83v12.7H415V27.08l1.22-1.34,5,5.62Zm-22.08-6.52H398V20.25h3.46a2.3,2.3,0,1,1,0,4.59m4.53,6.52-3.61-5.08a3.55,3.55,0,0,0,3.45-3.75c0-2.17-1.53-3.87-4.21-3.87h-5.45v12.7H398V26.41h2.54l3.32,4.95ZM386,27H380.6l2.71-6.44Zm-3.77-8.33-5.38,12.7h2l1.18-2.77h6.49l1.18,2.77h2l-5.36-12.7Zm-11.31,12.7V18.66h-2.48l-4.11,9.67-4.08-9.67h-2.47v12.7h1.82V21.1L364,31.36h.79L369.1,21.1V31.36Zm-32.59,0v-1.6h-6.14V18.66h-1.83v12.7ZM320.68,27H315.3l2.7-6.44Zm-3.76-8.33-5.39,12.7h2l1.17-2.77h6.49l1.18,2.77h2l-5.36-12.7Zm-13.61,12.7V20.25h3.93V18.66h-9.68v1.59h3.95V31.36Zm-12.58,0V18.66h-1.8v9.69l-7.44-9.69H279.6v12.7h1.8V21.47l7.5,9.89Zm-18.57,0v-1.6h-7V25.65h6.89V24.06h-6.89V20.25h7V18.66h-8.82v12.7Zm-22-1.6h-2.8V20.25h2.8A4.53,4.53,0,0,1,255.07,25a4.55,4.55,0,0,1-4.89,4.73m0,1.6c4.15,0,6.76-2.73,6.76-6.33s-2.61-6.37-6.76-6.37h-4.62v12.7Z" style="fill:#353535"/></g></g></svg>